<svg xmlns="http://www.w3.org/2000/svg" viewBox="0 0 60 60">
 <path d="M30,0A30.07,30.07,0,0,0,8.81,8.81,29.83,29.83,0,0,0,2.38,41.65a30.09,30.09,0,0,0,16,16,29.94,29.94,0,0,0,32.84-6.43,29.83,29.83,0,0,0,6.43-32.84,30.09,30.09,0,0,0-16-16A29.4,29.4,0,0,0,30,0ZM41.25,37.5a7.36,7.36,0,0,1-1,3.77A7.45,7.45,0,0,1,37.52,44a7.36,7.36,0,0,1-3.77,1H22.5a7.36,7.36,0,0,1-3.77-1A7.45,7.45,0,0,1,16,41.27a7.36,7.36,0,0,1-1-3.77V26.25a7.36,7.36,0,0,1,1-3.77,7.45,7.45,0,0,1,2.73-2.73,7.36,7.36,0,0,1,3.77-1h1.87a1.88,1.88,0,1,1,0,3.75H22.5a3.57,3.57,0,0,0-3.75,3.75V37.5a3.57,3.57,0,0,0,3.75,3.75H33.75A3.57,3.57,0,0,0,37.5,37.5V35.62a1.88,1.88,0,1,1,3.75,0ZM45,28.12a1.88,1.88,0,1,1-3.75,0V21.36l-11.62,12a3.55,3.55,0,0,1-1.51.27,3.53,3.53,0,0,1-1.5-.27,4.33,4.33,0,0,1,0-3l12-11.62H31.87a1.88,1.88,0,1,1,0-3.75H43.12A1.78,1.78,0,0,1,45,16.87Z"/>
</svg>