<svg aria-hidden="true" style="position: absolute; width: 0; height: 0; overflow: hidden;" version="1.1"
 xmlns="http://www.w3.org/2000/svg"
 xmlns:xlink="http://www.w3.org/1999/xlink">
 <defs>
  <symbol id="icon-arr-to-bottom-left" viewBox="0 0 33 32">
   <path d="M0 32v-32h5.437v21.289l22.468-21.289 3.991 3.968-22.513 22.498h23.818v5.534z"/>
  </symbol>
  <symbol id="icon-arr-to-bottom-right" viewBox="0 0 33 32">
   <path d="M33.202 32v-32h-5.437v21.289l-22.468-21.289-3.976 3.968 22.498 22.498h-23.818v5.534z"/>
  </symbol>
  <symbol id="icon-arr-to-top-right" viewBox="0 0 33 32">
   <path d="M33.202 0v32h-5.437v-21.296l-22.468 21.296-3.976-3.976 22.498-22.491h-23.818v-5.534z"/>
  </symbol>
  <symbol id="icon-fill-arrow-next" viewBox="0 0 28 32">
   <path d="M27.727 16.012l-27.727 15.988v-32z"/>
  </symbol>
  <symbol id="icon-soc-fb" viewBox="0 0 15 32">
   <path d="M9.722 17.204h4.724l0.792-5.288h-5.516v-2.895c0-2.21 0.655-4.145 2.469-4.145h3.048v-4.571c-1.125-0.191-2.422-0.301-3.745-0.305h-0.003c-4.389 0-6.918 2.56-6.918 8.396v3.52h-4.571v5.288h4.571v14.552c0.797 0.141 1.724 0.229 2.668 0.244l0.014 0c0.883-0.013 1.737-0.084 2.573-0.211l-0.104 0.013z"/>
  </symbol>
  <symbol id="icon-soc-in" viewBox="0 0 32 32">
   <path d="M7.087 10.959h-6.557v21.041h6.557zM7.671 3.799c0-0.003 0-0.006 0-0.009 0-0.516-0.101-1.009-0.283-1.46l0.009 0.026c-0.198-0.477-0.476-0.884-0.821-1.223l-0.001-0.001c-0.334-0.351-0.734-0.635-1.182-0.831l-0.023-0.009c-0.426-0.18-0.921-0.287-1.441-0.292l-0.002-0h-0.128c-2.098 0-3.799 1.701-3.799 3.799s1.701 3.799 3.799 3.799v0c0.528-0.006 1.029-0.113 1.488-0.302l-0.027 0.010c0.481-0.198 0.893-0.469 1.243-0.805l-0.001 0.001c0.335-0.319 0.606-0.701 0.795-1.128l0.009-0.022c0.192-0.418 0.312-0.905 0.329-1.418l0-0.006zM32 19.251c0-6.301-4.018-8.767-8-8.767-0.1-0.005-0.217-0.007-0.335-0.007-1.256 0-2.442 0.3-3.49 0.831l0.044-0.020c-1.169 0.626-2.133 1.496-2.85 2.548l-0.018 0.027h-0.183v-2.904h-6.21v21.041h6.612v-11.16c-0.010-0.11-0.015-0.237-0.015-0.366 0-2.258 1.722-4.114 3.925-4.327l0.018-0.001h0.256c2.082 0 3.653 1.297 3.653 4.603v11.251h6.557z"/>
  </symbol>
  <symbol id="icon-soc-tw" viewBox="0 0 39 32">
   <path d="M35.363 7.962c0 0.347 0 0.694 0 1.041 0 0.045 0.001 0.099 0.001 0.152 0 12.617-10.228 22.845-22.845 22.845-0.054 0-0.107-0-0.161-0.001l0.008 0c-4.592-0.005-8.868-1.355-12.456-3.678l0.090 0.055c0.576 0.066 1.246 0.105 1.926 0.108l0.005 0c0 0 0 0 0 0 3.799 0 7.293-1.307 10.057-3.497l-0.034 0.026c-3.521-0.014-6.508-2.28-7.598-5.432l-0.017-0.057c0.451 0.091 0.969 0.143 1.5 0.143 0.764 0 1.502-0.108 2.201-0.308l-0.056 0.014c-3.736-0.756-6.508-4.013-6.508-7.918 0-0 0-0.001 0-0.001v0c1.059 0.589 2.316 0.954 3.653 0.998l0.013 0c-2.2-1.47-3.63-3.943-3.63-6.751 0-1.51 0.414-2.924 1.134-4.134l-0.021 0.037c4.050 4.87 10.015 8.027 16.724 8.308l0.046 0.002c-0.133-0.55-0.21-1.182-0.21-1.832 0-4.469 3.623-8.092 8.092-8.092 2.321 0 4.415 0.978 5.89 2.543l0.004 0.004c1.931-0.386 3.646-1.064 5.193-1.993l-0.073 0.041c-0.637 1.906-1.901 3.458-3.543 4.449l-0.037 0.021c1.724-0.215 3.291-0.666 4.746-1.322l-0.103 0.042c-1.1 1.636-2.424 3.022-3.947 4.155l-0.045 0.032z"/>
  </symbol>
  <symbol id="icon-soc-inst" viewBox="0 0 32 32">
   <path d="M16 23.651c-0.005 0-0.011 0-0.016 0-4.225 0-7.651-3.425-7.651-7.651s3.425-7.651 7.651-7.651c4.225 0 7.651 3.425 7.651 7.651v0c-0.009 4.216-3.42 7.632-7.633 7.651h-0.002zM16 10.786c-0.005-0-0.011-0-0.016-0-2.88 0-5.214 2.334-5.214 5.214s2.334 5.214 5.214 5.214c2.88 0 5.214-2.334 5.214-5.214v0c0 0 0-0 0-0 0-2.874-2.325-5.205-5.197-5.214h-0.001z"/>
   <path d="M23.066 32h-14.132c-4.93-0.009-8.925-4.004-8.934-8.933v-14.133c0.009-4.93 4.004-8.925 8.933-8.934h14.133c4.93 0.009 8.925 4.004 8.934 8.933v14.133c-0.009 4.93-4.004 8.925-8.933 8.934h-0.001zM8.934 2.437c-3.588 0-6.497 2.909-6.497 6.497v0 14.132c0 3.588 2.909 6.497 6.497 6.497v0h14.132c3.588 0 6.497-2.909 6.497-6.497v0-14.132c0-3.588-2.909-6.497-6.497-6.497v0z"/>
   <path d="M24.365 9.568c1.061-0.009 1.917-0.871 1.917-1.933 0-1.068-0.865-1.933-1.933-1.933s-1.933 0.865-1.933 1.933c0 0.006 0 0.011 0 0.017v-0.001c0 0 0 0 0 0 0 1.059 0.858 1.917 1.917 1.917 0.011 0 0.023-0 0.034-0l-0.002 0z"/>
  </symbol>
  <symbol id="icon-tringle-next" viewBox="0 0 11.81 13.63">
   <path d="M11.81,6.82,0,13.63V0Z"/>
  </symbol>
  <symbol id="icon-link-to" viewBox="0 0 60 60">
   <path d="M30,0A30.07,30.07,0,0,0,8.81,8.81,29.83,29.83,0,0,0,2.38,41.65a30.09,30.09,0,0,0,16,16,29.94,29.94,0,0,0,32.84-6.43,29.83,29.83,0,0,0,6.43-32.84,30.09,30.09,0,0,0-16-16A29.4,29.4,0,0,0,30,0ZM41.25,37.5a7.36,7.36,0,0,1-1,3.77A7.45,7.45,0,0,1,37.52,44a7.36,7.36,0,0,1-3.77,1H22.5a7.36,7.36,0,0,1-3.77-1A7.45,7.45,0,0,1,16,41.27a7.36,7.36,0,0,1-1-3.77V26.25a7.36,7.36,0,0,1,1-3.77,7.45,7.45,0,0,1,2.73-2.73,7.36,7.36,0,0,1,3.77-1h1.87a1.88,1.88,0,1,1,0,3.75H22.5a3.57,3.57,0,0,0-3.75,3.75V37.5a3.57,3.57,0,0,0,3.75,3.75H33.75A3.57,3.57,0,0,0,37.5,37.5V35.62a1.88,1.88,0,1,1,3.75,0ZM45,28.12a1.88,1.88,0,1,1-3.75,0V21.36l-11.62,12a3.55,3.55,0,0,1-1.51.27,3.53,3.53,0,0,1-1.5-.27,4.33,4.33,0,0,1,0-3l12-11.62H31.87a1.88,1.88,0,1,1,0-3.75H43.12A1.78,1.78,0,0,1,45,16.87Z"/>
  </symbol>
 </defs>
</svg>
