<?xml version="1.0" standalone="no"?>
<!DOCTYPE svg PUBLIC "-//W3C//DTD SVG 1.1//EN" "http://www.w3.org/Graphics/SVG/1.1/DTD/svg11.dtd" >
<svg xmlns="http://www.w3.org/2000/svg" xmlns:xlink="http://www.w3.org/1999/xlink" version="1.1">
<metadata>
Created by FontForge 20170731 at Thu Jul 27 19:06:51 2017
 By Aleksey,,,
Copyright 2017 The Mardoto Project Authors (https://github.com/vahanhovh/mardoto)
</metadata>
<defs>
<font id="Mardoto-Black" horiz-adv-x="1187" >
  <font-face 
    font-family="Mardoto Black"
    font-weight="900"
    font-stretch="normal"
    units-per-em="2048"
    panose-1="0 0 10 0 0 0 0 0 0 0"
    ascent="1536"
    descent="-512"
    x-height="1082"
    cap-height="1456"
    bbox="-515 -555 3236 2146"
    underline-thickness="100"
    underline-position="-300"
    unicode-range="U+000D-2212"
  />
<missing-glyph horiz-adv-x="1351" 
d="M1107 -555h-856v2701h856v-2701zM454 1965v-89h175v-100h-178v-89h448v89h-178v100h178v89h-445zM451 1617v-281h448v92h-178v189h-270zM629 1428h-89v97h89v-97zM451 1263v-89h178v-100h-178v-89h270v189h178v89h-448zM810 1101v-179h-359v-91h448v270h-89zM629 771
v-151h92v62h89v-127h-270v216h-89v-305h448v305h-270zM451 304v-305h448v305h-448zM810 88h-270v127h270v-127zM451 -63v-90h189l-189 -126v-90h448v90h-275l189 126h86v90h-448z" />
    <glyph glyph-name="uni0535054E.liga" unicode="&#x535;&#x54e;" horiz-adv-x="2868" 
d="M2868 261v-261h-640v261h1v101q-106 -52 -220 -52q-173 0 -302.5 60.5t-201 179t-71.5 285.5v76h-966v-422q6 -239 223 -239q110 0 165 61t55 194v145h351v-145q0 -168 -70 -286t-199 -178.5t-302 -60.5t-302.5 60.5t-201 179t-71.5 285.5v1031h352v-364h1318v-353
q6 -239 223 -239q107 0 163.5 74.5t56.5 210.5v671h351v-1275h288z" />
    <glyph glyph-name="uni05390545.liga" unicode="&#x539;&#x545;" horiz-adv-x="3302" 
d="M3169.5 669q66.5 -93 66.5 -225q0 -153 -77.5 -257t-215.5 -155.5t-321 -51.5q-173 0 -312.5 57t-220.5 166t-81 257h352q0 -60 31.5 -108t91 -75.5t139.5 -27.5q262 0 262 201q0 64 -34 111.5t-91.5 72.5t-125.5 25h-971v-218q0 -232 -121 -346.5t-372 -114.5
q-164 0 -278.5 63t-172 171t-57.5 242v26q0 219 130 333t378 114h141v32q0 93 -57 167t-153.5 116t-210.5 42q-123 0 -218.5 -40.5t-149 -111t-53.5 -157.5v-977h-352v961q0 166 84 301t258 214.5t431 79.5q249 0 423.5 -80t262 -215t87.5 -300v-32h981q89 0 146 47t57 131
q0 85 -60.5 132t-163.5 47q-67 0 -117.5 -20t-78 -56t-27.5 -81h-350q0 128 73 225t203.5 149.5t296.5 52.5q165 0 295.5 -53.5t205 -153.5t74.5 -235q0 -114 -54 -196.5t-156 -118.5q116 -37 182.5 -130zM1310 659h-141q-76 0 -116 -50.5t-40 -148.5q0 -96 40.5 -147
t115.5 -51t108 41.5t33 137.5v218z" />
    <glyph glyph-name="uni0544053E.liga" unicode="&#x544;&#x53e;" horiz-adv-x="3212" 
d="M3222 1096h-260q111 -166 111 -400v-55q0 -201 -80.5 -350.5t-224 -230t-327.5 -80.5q-187 0 -331 80.5t-224 230t-80 350.5v55q0 123 31 229t90 188q-82 20 -147 61.5t-108 100.5h-410v-770q0 -168 -70 -286t-199 -178.5t-302 -60.5t-302.5 60.5t-201 179t-71.5 285.5
v1031h352v-1047q6 -239 223 -239q110 0 165 61t55 194v770h-1v261h640v-1h40v1h351q0 -83 51 -131t163 -48h244q13 1 40 1t40 -1h743v-261zM2715 692q0 368 -281 368q-132 0 -204.5 -82t-73.5 -241l-1 -96q-2 -179 70 -274t211 -95q133 0 206 95t73 270v55z" />
    <glyph glyph-name="uni05440546.liga" unicode="&#x544;&#x546;" horiz-adv-x="3130" 
d="M3024 880v-375q0 -168 -70 -286t-199 -178.5t-302 -60.5t-302.5 60.5t-201 179t-71.5 285.5v667q-50 3 -98.5 10t-123.5 20q-96 17 -156.5 25t-125.5 8q-49 0 -80.5 -31.5t-31.5 -80.5v-618q0 -168 -70 -286t-199 -178.5t-302 -60.5t-302.5 60.5t-201 179t-71.5 285.5
v1031h352v-1047q6 -239 223 -239q110 0 165 61t55 194l-1 725q0 87 39.5 157t109.5 109.5t157 39.5q85 0 166 -7t200 -21q130 -14 201.5 -20.5t151.5 -6.5q155 0 294 31v-129h1v-894q6 -239 223 -239q110 0 165 61t55 194v375h351z" />
    <glyph glyph-name="uni05440576.liga" unicode="&#x544;&#x576;" horiz-adv-x="2800" 
d="M2692 1082v-1082h-316l-10 116q-106 -136 -288 -136q-169 0 -265.5 98t-96.5 304v793q-22 4 -74 19q-78 20 -135 30.5t-133 10.5q-49 0 -80.5 -31.5t-31.5 -80.5v-618q0 -168 -70 -286t-199 -178.5t-302 -60.5t-302.5 60.5t-201 179t-71.5 285.5v1031h352v-1047
q6 -239 223 -239q110 0 165 61t55 194l-1 725q0 87 39.5 157t109.5 109.5t157 39.5q89 0 159 -7.5t170 -22.5q79 -13 132 -19t113 -6q122 0 261 31v-86h2v-1046q0 -140 136 -140q119 0 165 85v757h338z" />
    <glyph glyph-name="uni0574056F.liga" unicode="&#x574;&#x56f;" horiz-adv-x="2423" 
d="M2315 1082v-1498h-338v532q-44 -68 -114 -102t-162 -34q-169 0 -265.5 98t-96.5 304v826q-43 17 -80.5 25.5t-91.5 8.5q-40 0 -66 -26t-26 -66v-1150h-316l-10 116q-106 -136 -288 -136q-169 0 -265.5 98t-96.5 304v700h337v-702q0 -140 136 -140q119 0 165 85v905
q0 87 39.5 157t109.5 109.5t157 39.5q107 0 171 -9t132 -26q55 -14 97 -20.5t105 -6.5q52 0 128 6v-1100q0 -140 136 -140q119 0 165 85v757h338z" />
    <glyph glyph-name="uni0578055B0582.liga" unicode="&#x578;&#x55b;&#x582;" horiz-adv-x="1802" 
d="M1040 1275h-277l232 497h357zM992.5 1004.5q89.5 -97.5 90.5 -318.5v-686h-339v682q0 64 -17.5 98.5t-50.5 48t-85 13.5q-99 0 -146 -77v-765h-337v1082h316l11 -126q113 146 308 146q160 0 249.5 -97.5zM1822 234v-234h-563v1082h337v-848h226z" />
    <glyph glyph-name="uni0578055C0582.liga" unicode="&#x578;&#x55c;&#x582;" horiz-adv-x="1802" 
d="M1476 1639.5q-8 -53.5 -40 -99.5t-100 -67q-56 -17 -92.5 -52.5t-53 -77t-16.5 -80.5v-9h-290v57q0 48 19 109t58.5 113t97.5 71q75 25 100 68.5t25 113.5v9h300v-25q0 -77 -8 -130.5zM992.5 1004.5q89.5 -97.5 90.5 -318.5v-686h-339v682q0 64 -17.5 98.5t-50.5 48
t-85 13.5q-99 0 -146 -77v-765h-337v1082h316l11 -126q113 146 308 146q160 0 249.5 -97.5zM1822 234v-234h-563v1082h337v-848h226z" />
    <glyph glyph-name="uni0578055E0582.liga" unicode="&#x578;&#x55e;&#x582;" horiz-adv-x="1802" 
d="M1175 1547.5q29 27.5 29 70.5t-23.5 68t-74.5 25q-34 0 -66.5 -23.5t-53.5 -71.5t-21 -118v-243h-267v256q0 140 58.5 238t152 147.5t197.5 49.5q103 0 189 -35t137.5 -105t51.5 -170q0 -87 -40 -164t-129 -126t-226 -49v223q57 0 86 27.5zM992.5 1004.5
q89.5 -97.5 90.5 -318.5v-686h-339v682q0 64 -17.5 98.5t-50.5 48t-85 13.5q-99 0 -146 -77v-765h-337v1082h316l11 -126q113 146 308 146q160 0 249.5 -97.5zM1822 234v-234h-563v1082h337v-848h226z" />
    <glyph glyph-name="uniFB13.liga" unicode="&#x574;&#x576;" horiz-adv-x="2540" 
d="M2432 1082v-1082h-316l-10 116q-106 -136 -288 -136q-169 0 -265.5 98t-96.5 304v798q-43 9 -103 28q-51 17 -91 25.5t-95 8.5q-40 0 -66 -26t-26 -66v-1150h-316l-10 116q-106 -136 -288 -136q-169 0 -265.5 98t-96.5 304v700h337v-702q0 -140 136 -140q119 0 165 85
v905q0 87 39.5 157t109.5 109.5t157 39.5q101 0 167 -8t143 -24q76 -15 133.5 -22.5t143.5 -7.5q67 0 163 6v-1100q0 -140 136 -140q119 0 165 85v757h338z" />
    <glyph glyph-name="uniFB14.liga" unicode="&#x574;&#x565;" horiz-adv-x="2413" 
d="M1676 848v-468q0 -140 136 -140q119 0 165 85v306h338v-631h-316l-10 116q-106 -136 -288 -136q-169 0 -265.5 98t-96.5 304v822q-43 19 -78.5 28.5t-93.5 9.5q-40 0 -66 -26t-26 -66v-1150h-316l-10 116q-106 -136 -288 -136q-169 0 -265.5 98t-96.5 304v700h337v-702
q0 -140 136 -140q119 0 165 85v905q0 87 39.5 157t109.5 109.5t157 39.5q106 0 166 -9t124 -26q53 -14 95 -20.5t110 -6.5q56 0 138 6v-398h707v-234h-707z" />
    <glyph glyph-name=".notdef" horiz-adv-x="1351" 
d="M1107 -555h-856v2701h856v-2701zM454 1965v-89h175v-100h-178v-89h448v89h-178v100h178v89h-445zM451 1617v-281h448v92h-178v189h-270zM629 1428h-89v97h89v-97zM451 1263v-89h178v-100h-178v-89h270v189h178v89h-448zM810 1101v-179h-359v-91h448v270h-89zM629 771
v-151h92v62h89v-127h-270v216h-89v-305h448v305h-270zM451 304v-305h448v305h-448zM810 88h-270v127h270v-127zM451 -63v-90h189l-189 -126v-90h448v90h-275l189 126h86v90h-448z" />
    <glyph glyph-name=".null" horiz-adv-x="0" 
 />
    <glyph glyph-name="nonmarkingreturn" unicode="&#xd;" horiz-adv-x="510" 
 />
    <glyph glyph-name="NULL" horiz-adv-x="0" 
 />
    <glyph glyph-name="NULL" horiz-adv-x="0" 
 />
    <glyph glyph-name="space" unicode=" " horiz-adv-x="510" 
 />
    <glyph glyph-name="exclam" unicode="!" horiz-adv-x="566" 
d="M473 1456l-43 -995h-274l-43 995h360zM127.5 237.5q23.5 38.5 66.5 60.5t97 22t96.5 -22t66 -60.5t23.5 -86.5t-23.5 -86.5t-66 -60.5t-96.5 -22t-97 22t-66.5 60.5t-23.5 86.5t23.5 86.5z" />
    <glyph glyph-name="quotedbl" unicode="&#x22;" horiz-adv-x="650" 
d="M256 1398l-43 -429h-187v568h230v-139zM607 1398l-43 -429h-186v568h229v-139z" />
    <glyph glyph-name="numbersign" unicode="#" horiz-adv-x="1190" 
d="M545 0l68 410h-162l-67 -410h-199l68 410h-223v183h253l43 264h-221v183h251l69 416h198l-68 -416h161l69 416h199l-69 -416h231v-183h-261l-43 -264h228v-183h-258l-68 -410h-199zM481 593h162l43 264h-161z" />
    <glyph glyph-name="dollar" unicode="$" 
d="M1048 185.5q-50 -86.5 -141 -138t-213 -64.5v-201h-159v201q-122 13 -223.5 66.5t-163.5 151.5q-65 103 -65 266h337q0 -124 54.5 -178.5t140.5 -54.5q72 0 109 42.5t37 109.5q0 54 -17 90.5t-54 63t-102 54.5q-157 63 -249.5 118.5t-147 140.5t-54.5 215
q0 113 52.5 200.5t147 141t218.5 64.5v211h159v-215q119 -18 207 -78t136 -158.5t48 -227.5h-337q0 110 -42 163t-112 53q-71 0 -105.5 -43.5t-34.5 -112.5q0 -47 15.5 -79.5t53 -61t104.5 -58.5q155 -66 247.5 -123t148 -142.5t55.5 -213.5q0 -116 -50 -202.5z" />
    <glyph glyph-name="percent" unicode="%" horiz-adv-x="1521" 
d="M91 1176q0 84 37 152.5t110 108.5t176 40q106 0 179 -40t109.5 -108t36.5 -153v-77q0 -84 -36.5 -151.5t-109 -107.5t-177.5 -40q-104 0 -177.5 40t-110.5 108t-37 151v77zM1191 1247l-711 -1138l-157 79l711 1138zM307 1099q0 -49 28.5 -83t80.5 -34q106 0 106 133v61
q0 51 -27.5 85t-80.5 34q-51 0 -79 -34.5t-28 -84.5v-77zM782 357q0 84 37 152t110.5 108t177.5 40q106 0 179 -40t109 -108t36 -152v-77q0 -84 -36 -152t-108.5 -108t-177.5 -40q-104 0 -178 40t-111.5 108t-37.5 152v77zM999 280q0 -30 15 -57.5t40 -44t55 -16.5
q63 0 84.5 31.5t21.5 86.5v77q0 50 -28 84t-80 34q-108 0 -108 -135v-60z" />
    <glyph glyph-name="ampersand" unicode="&#x26;" horiz-adv-x="1381" 
d="M970 0l-68 77q-85 -51 -172.5 -74.5t-197.5 -23.5q-144 0 -252 52.5t-166 146t-58 213.5q0 81 30.5 144.5t84 115.5t137.5 114l4 2q-63 89 -94.5 164t-31.5 153q0 114 51 203.5t144.5 139.5t215.5 50q113 0 199.5 -47.5t134 -127.5t47.5 -175q0 -187 -206 -331l-73 -51
l224 -258q54 110 54 241h282q0 -297 -136 -472l223 -256h-376zM554 918l63 40q56 36 73.5 69.5t17.5 75.5q0 28 -13.5 54.5t-39 43t-59.5 16.5q-57 0 -88 -36.5t-31 -92.5q0 -69 77 -170zM416.5 323q21.5 -40 58.5 -62t80 -22q86 0 168 41l-262 299l-10 -7q-56 -71 -56 -158
q0 -51 21.5 -91z" />
    <glyph glyph-name="quotesingle" unicode="'" horiz-adv-x="316" 
d="M284 1374l-34 -413h-206v575h240v-162z" />
    <glyph glyph-name="parenleft" unicode="(" horiz-adv-x="723" 
d="M121 592q0 265 70.5 477t190.5 353q116 135 238 184l63 -166q-80 -58 -145.5 -166t-106.5 -275.5t-42 -387.5v-49q0 -227 40.5 -397.5t106.5 -280t147 -168.5l-63 -166q-128 52 -240.5 187.5t-183.5 336.5q-73 205 -75 475v43z" />
    <glyph glyph-name="parenright" unicode=")" horiz-adv-x="722" 
d="M626 564q0 -253 -73.5 -465t-198.5 -359q-121 -141 -249 -190l-65 166q79 58 144.5 166.5t107 275.5t42.5 387v49q0 227 -40.5 397.5t-106.5 280t-147 168.5l65 166q132 -52 251 -193.5t194 -346.5q76 -210 76 -474v-28z" />
    <glyph glyph-name="asterisk" unicode="*" horiz-adv-x="953" 
d="M125 684l227 272l-325 90l65 189l318 -131l-24 352h213l-26 -359l311 128l64 -191l-330 -90l219 -265l-172 -118l-184 294l-184 -284z" />
    <glyph glyph-name="plus" unicode="+" horiz-adv-x="1094" 
d="M1043 537h-340v-391h-315v391h-343v289h343v380h315v-380h340v-289z" />
    <glyph glyph-name="comma" unicode="," horiz-adv-x="552" 
d="M421 254l-2 -218q-1 -117 -59 -234t-146 -194l-171 80l68 140q39 75 39 191v235h271z" />
    <glyph glyph-name="hyphen" unicode="-" horiz-adv-x="921" 
d="M753 758v-261h-601v261h601z" />
    <glyph glyph-name="period" unicode="." horiz-adv-x="620" 
d="M140.5 244.5q23.5 38.5 66 60.5t96.5 22t96.5 -22t66 -60.5t23.5 -86.5t-23.5 -86.5t-66 -60.5t-96.5 -22t-96.5 22t-66 60.5t-23.5 86.5t23.5 86.5z" />
    <glyph glyph-name="slash" unicode="/" horiz-adv-x="719" 
d="M709 1456l-498 -1581h-240l498 1581h240z" />
    <glyph glyph-name="zero" unicode="0" 
d="M1101 595q0 -205 -63 -342.5t-176.5 -205t-266.5 -67.5t-267.5 67.5t-178 205t-63.5 342.5v266q0 205 63 342.5t177 205t267 67.5t267 -67.5t177.5 -205t63.5 -342.5v-266zM764 904q0 175 -46 243q-46 69 -125 69q-82 0 -125.5 -71t-44.5 -233v-358q0 -178 46 -245
q47 -69 126 -69q77 0 123 67q45 67 46 239v358z" />
    <glyph glyph-name="one" unicode="1" 
d="M836 1456v-1456h-337v1076l-332 -97v256l638 221h31z" />
    <glyph glyph-name="two" unicode="2" 
d="M1106 260v-260h-1016v220l468 492q173 200 173 313q0 192 -160 192q-51 0 -90.5 -29.5t-61 -82t-21.5 -117.5h-338q0 134 66 246t184 177.5t269 65.5q238 0 364 -110.5t126 -311.5q0 -98 -40 -188t-114 -180t-195 -210l-188 -217h574z" />
    <glyph glyph-name="three" unicode="3" 
d="M397 618v251h159q189 0 189 185q0 70 -43.5 116.5t-128.5 46.5q-41 0 -79.5 -16.5t-62 -47.5t-23.5 -72h-338q0 119 67.5 209t180 138.5t244.5 48.5q156 0 273 -48t182 -141.5t65 -226.5q0 -98 -60.5 -181t-163.5 -132q118 -43 183 -129.5t65 -209.5q0 -133 -70.5 -230
t-194 -148t-279.5 -51q-128 0 -244.5 46t-191.5 136q-78 95 -78 243h338q0 -45 25.5 -83t68.5 -60t93 -22q60 0 104.5 23t67.5 63t23 90q0 106 -53 154t-154 48h-164z" />
    <glyph glyph-name="four" unicode="4" 
d="M59 515l584 939v2h337v-887h147v-260h-147v-309h-337v309h-564zM381 569h262v450l-22 -36z" />
    <glyph glyph-name="five" unicode="5" 
d="M109 712l88 744h851v-262h-576l-33 -289q32 19 89.5 36t119.5 17q143 0 244 -57t153.5 -167t52.5 -265q0 -129 -56 -240t-165 -179q-112 -70 -285 -70q-131 0 -248.5 53.5t-190.5 149.5q-74 99 -73 231h339q4 -80 50.5 -127t120.5 -47q94 0 132 68.5t38 183.5
q0 112 -50 172.5t-157 60.5q-67 0 -109.5 -22.5t-66.5 -53.5z" />
    <glyph glyph-name="six" unicode="6" 
d="M1064 226q-65 -115 -181 -180.5t-263 -65.5q-153 0 -274 69t-190.5 199t-71.5 307v134q0 242 103 420t284 275q174 93 378 93h54v-265h-18q-117 0 -212.5 -38t-159.5 -115t-84 -188q113 111 288 111q129 0 222 -65t141.5 -178.5t48.5 -256.5q0 -141 -65 -256zM421 516
q0 -276 190 -276q52 0 93 31.5t64 86.5t23 124q0 73 -24.5 128t-68 84.5t-99.5 29.5q-63 0 -109 -29t-69 -76v-103z" />
    <glyph glyph-name="seven" unicode="7" 
d="M1102 1456v-180l-544 -1276h-356l545 1196h-695v260h1050z" />
    <glyph glyph-name="eight" unicode="8" 
d="M1036.5 170.5q-64.5 -94.5 -179 -142.5t-262.5 -48t-263.5 48t-181 142.5t-65.5 230.5q0 118 60.5 208.5t168.5 141.5q-94 50 -146 131.5t-52 184.5q0 130 60.5 222.5t168.5 140t248 47.5q141 0 249 -47.5t168.5 -139.5t60.5 -223q0 -103 -52 -185t-144 -132
q107 -51 166.5 -141t59.5 -208q0 -136 -64.5 -230.5zM593 1217q-139 0 -139 -168q0 -80 36.5 -127t104.5 -47t103.5 47t35.5 127q0 168 -141 168zM716.5 565.5q-45.5 49.5 -123.5 49.5q-76 0 -123 -49.5t-47 -137.5q0 -87 47 -137.5t125 -50.5q76 0 121.5 50.5t45.5 137.5
q0 88 -45.5 137.5z" />
    <glyph glyph-name="nine" unicode="9" 
d="M1096 765q0 -252 -99.5 -428.5t-278.5 -267.5q-175 -89 -389 -89h-26v270h20q389 0 430 313q-110 -98 -244 -98q-131 0 -228 61t-149 172.5t-52 258.5q0 144 66.5 263t182.5 188t258 69t257.5 -70.5t183.5 -205t68 -320.5v-116zM465 777q47 -69 136 -69q109 0 157 94v141
q0 137 -46 205.5t-128 68.5q-51 0 -89 -37.5t-57.5 -97.5t-19.5 -125q0 -111 47 -180z" />
    <glyph glyph-name="colon" unicode=":" horiz-adv-x="615" 
d="M141.5 1042.5q23.5 38.5 66 60.5t96.5 22t96.5 -22t66 -60.5t23.5 -86.5t-23.5 -86.5t-66 -60.5t-96.5 -22t-96.5 22t-66 60.5t-23.5 86.5t23.5 86.5zM141.5 244.5q23.5 38.5 66 60.5t96.5 22t96.5 -22t66 -60.5t23.5 -86.5t-23.5 -86.5t-66 -60.5t-96.5 -22t-96.5 22
t-66 60.5t-23.5 86.5t23.5 86.5z" />
    <glyph glyph-name="semicolon" unicode=";" horiz-adv-x="590" 
d="M130.5 1042.5q23.5 38.5 66 60.5t96.5 22t96.5 -22t66 -60.5t23.5 -86.5t-23.5 -86.5t-66 -60.5t-96.5 -22t-96.5 22t-66 60.5t-23.5 86.5t23.5 86.5zM446 254l-2 -218q-1 -117 -59 -234t-146 -194l-171 80l68 140q39 75 39 191v235h271z" />
    <glyph glyph-name="less" unicode="&#x3c;" horiz-adv-x="1045" 
d="M931 118l-885 360v266l885 360v-306l-547 -188l547 -185v-307z" />
    <glyph glyph-name="equal" unicode="=" horiz-adv-x="1200" 
d="M1055 982v-260h-927v260h927zM1055 543v-260h-927v260h927z" />
    <glyph glyph-name="greater" unicode="&#x3e;" horiz-adv-x="1051" 
d="M111 1103l880 -360v-266l-880 -360v306l545 189l-545 185v306z" />
    <glyph glyph-name="question" unicode="?" horiz-adv-x="1044" 
d="M344 461q0 136 32 224t108 153q81 69 116 119t35 108q0 151 -129 151q-56 0 -95 -41t-41 -122h-339q2 143 64 238t168 140t243 45q222 0 345 -102t123 -294q0 -78 -27.5 -138.5t-71 -108t-124.5 -120.5l-18 -17q-57 -49 -78.5 -101t-23.5 -134h-287zM326.5 243.5
q23.5 38.5 66.5 60.5t97 22t97 -22t66.5 -60.5t23.5 -86.5t-23.5 -86.5t-66.5 -60.5t-97 -22t-97 22t-66.5 60.5t-23.5 86.5t23.5 86.5z" />
    <glyph glyph-name="at" unicode="@" horiz-adv-x="1834" 
d="M1263 -364q-66 -43 -170 -66t-203 -23q-262 0 -446.5 96.5t-281 287.5t-96.5 470q0 38 1 57q12 274 125 489t309 339t462 124q250 0 428.5 -100.5t271 -282.5t92.5 -425q0 -34 -1 -52q-6 -150 -55 -278.5t-142 -208.5q-97 -84 -254 -84q-169 0 -243 137
q-97 -133 -262 -133q-88 0 -155.5 47t-105.5 133.5t-38 201.5q0 23 4 71q20 167 86.5 292.5t169 193.5t227.5 68q74 0 129 -14.5t92 -35.5t94 -60l-50 -587q-2 -22 -2 -31q0 -58 28 -83t70 -25q56 0 101.5 50.5t73 138.5t30.5 197q2 42 2 61q0 195 -65.5 337.5t-198.5 221
t-331 78.5t-346 -100.5t-233 -280.5q-44 -93 -70.5 -218t-26.5 -253q0 -140 35.5 -261.5t111.5 -206.5q160 -181 464 -181q84 0 174.5 18.5t156.5 46.5zM751 377q0 -204 125 -204q32 0 75 31q43 30 78 131l39 456q-34 8 -63 8q-115 0 -173.5 -90t-78.5 -273q-2 -21 -2 -59z
" />
    <glyph glyph-name="A" unicode="A" horiz-adv-x="1395" 
d="M-4 0l535 1456h331l538 -1456h-378l-84 272h-481l-84 -272h-377zM541 543h313l-157 507z" />
    <glyph glyph-name="B" unicode="B" horiz-adv-x="1322" 
d="M701 0h-590v1456h523q275 0 424.5 -101t149.5 -301q0 -107 -49 -189t-156 -122q121 -31 178 -116.5t57 -195.5q0 -426 -537 -431zM462 1185v-336h170q120 0 172.5 40t52.5 123q0 169 -213 173h-182zM717 619h-255v-349h229q101 0 149.5 46t48.5 120q0 179 -172 183z" />
    <glyph glyph-name="C" unicode="C" horiz-adv-x="1344" 
d="M1289 493q-7 -152 -82.5 -268t-209 -180.5t-310.5 -64.5q-191 0 -329 83.5t-212 239.5t-76 369v95q0 217 76 377.5t214 246.5t322 86q185 0 317 -66.5t205 -184.5t87 -273h-350q-4 127 -63.5 188t-195.5 61q-87 0 -143.5 -43.5t-84.5 -137t-28 -244.5v-89
q0 -157 25.5 -251t82.5 -138t153 -44q245 0 252 238h350z" />
    <glyph glyph-name="D" unicode="D" horiz-adv-x="1325" 
d="M111 0v1456h468q196 0 348.5 -87.5t240.5 -246.5q86 -158 86 -364v-61q0 -202 -85.5 -360.5t-237.5 -247.5t-345 -89h-475zM462 1185v-915h122q295 0 311 379l1 111q0 416 -304 425h-130z" />
    <glyph glyph-name="E" unicode="E" horiz-adv-x="1146" 
d="M111 0v1456h1005v-271h-654v-307h551v-261h-551v-347h651v-270h-1002z" />
    <glyph glyph-name="F" unicode="F" horiz-adv-x="1120" 
d="M111 0v1456h974v-271h-623v-335h566v-270h-566v-580h-351z" />
    <glyph glyph-name="G" unicode="G" horiz-adv-x="1396" 
d="M1302 778v-598q-43 -48 -121 -93t-195 -76t-263 -31q-194 0 -338.5 83t-223.5 242t-79 382v81q0 222 79 382t219.5 243.5t323.5 83.5q287 0 430.5 -132t166.5 -364h-337q-17 113 -74 169.5t-174 56.5q-129 0 -202.5 -109.5t-74.5 -321.5v-89q0 -437 309 -437
q136 0 203 61v226h-244v241h595z" />
    <glyph glyph-name="H" unicode="H" horiz-adv-x="1439" 
d="M978 0v608h-516v-608h-351v1456h351v-578h516v578h350v-1456h-350z" />
    <glyph glyph-name="I" unicode="I" horiz-adv-x="619" 
d="M484 1456v-1456h-350v1456h350z" />
    <glyph glyph-name="J" unicode="J" horiz-adv-x="1151" 
d="M690 1456h350v-999q0 -143 -66 -251t-180 -167t-255 -59q-150 0 -263 50t-176 153t-63 257h352q0 -106 36.5 -148t113.5 -42q150 0 151 204v1002z" />
    <glyph glyph-name="K" unicode="K" horiz-adv-x="1310" 
d="M916 0l-310 541l-144 -157v-384h-351v1456h351v-642l122 185l314 457h433l-491 -643l491 -813h-415z" />
    <glyph glyph-name="L" unicode="L" horiz-adv-x="1110" 
d="M1073 270v-270h-962v1456h351v-1186h611z" />
    <glyph glyph-name="M" unicode="M" horiz-adv-x="1795" 
d="M896 443l325 1013h461v-1456h-352v340l34 696l-352 -1036h-232l-352 1036l34 -696v-340h-351v1456h460z" />
    <glyph glyph-name="N" unicode="N" horiz-adv-x="1438" 
d="M1327 1456v-1456h-350l-515 906v-906h-351v1456h351l515 -906v906h350z" />
    <glyph glyph-name="O" unicode="O" horiz-adv-x="1414" 
d="M1343 698q0 -219 -80.5 -381.5t-224.5 -249.5t-330 -87q-187 0 -332 87t-225.5 249.5t-80.5 381.5v59q0 219 80.5 381.5t224.5 250t331 87.5q186 0 330.5 -87.5t225.5 -250t81 -381.5v-59zM987 759q0 442 -281 442q-261 0 -278 -390l-1 -113q0 -216 71 -330t210 -114
q133 0 205.5 114t73.5 324v67z" />
    <glyph glyph-name="P" unicode="P" horiz-adv-x="1334" 
d="M462 494v-494h-351v1456h581q171 0 299 -63.5t196.5 -175.5t68.5 -255q0 -141 -68.5 -246.5t-196 -163.5t-299.5 -58h-230zM462 1185v-420h230q106 0 157.5 53t51.5 142q0 97 -52.5 161t-156.5 64h-230z" />
    <glyph glyph-name="Q" unicode="Q" horiz-adv-x="1414" 
d="M1329 -82l-218 -184l-312 251l-89 -5q-187 0 -332 87t-225.5 249.5t-80.5 381.5v59q0 219 80.5 381.5t224.5 250t331 87.5q186 0 330.5 -87.5t226 -250.5t81.5 -381v-59q0 -197 -66 -349.5t-186 -244.5zM989 759q0 442 -281 442q-261 0 -278 -390l-1 -113q0 -216 71 -330
t210 -114q133 0 205.5 114t73.5 324v67z" />
    <glyph glyph-name="R" unicode="R" horiz-adv-x="1336" 
d="M908 0l-257 514h-189v-514h-351v1456h573q169 0 293 -50.5t191 -149.5t67 -240q0 -160 -65.5 -258t-188.5 -156l303 -587v-15h-376zM462 1185v-400h222q200 0 200 199q0 198 -194 201h-228z" />
    <glyph glyph-name="S" unicode="S" horiz-adv-x="1282" 
d="M814 501q-48 45 -209 99q-166 55 -273.5 118.5t-164.5 145.5q-59 85 -59 203q0 122 72 215t199.5 143.5t288.5 50.5q159 0 282.5 -56t192.5 -158.5t69 -237.5h-349q0 85 -52 136t-151 51q-64 0 -110 -19.5t-69 -53t-23 -74.5q0 -62 66 -106.5t201 -87.5q243 -78 365 -191
t122 -290q0 -129 -66 -221.5t-187.5 -140t-284.5 -47.5q-157 0 -295 53t-225 158q-90 110 -90 281h352q0 -124 64.5 -176t193.5 -52q95 0 141 39.5t46 103.5q0 69 -47 114z" />
    <glyph glyph-name="T" unicode="T" horiz-adv-x="1292" 
d="M37 1185v271h1217v-271h-438v-1185h-351v1185h-428z" />
    <glyph glyph-name="U" unicode="U" horiz-adv-x="1361" 
d="M901 1456h351v-951q0 -168 -70 -286t-199 -178.5t-302 -60.5t-302.5 60.5t-201 179t-71.5 285.5v951h352v-967q6 -239 223 -239q110 0 165 61t55 194v951z" />
    <glyph glyph-name="V" unicode="V" horiz-adv-x="1354" 
d="M1358 1456l-491 -1456h-383l-488 1456h391l289 -1062l289 1062h393z" />
    <glyph glyph-name="W" unicode="W" horiz-adv-x="1780" 
d="M1753 1456l-309 -1456h-363l-195 830l-191 -830h-364l-309 1456h348l167 -911l200 911h298l204 -914l167 914h347z" />
    <glyph glyph-name="X" unicode="X" horiz-adv-x="1308" 
d="M416 1456l238 -484l238 484h400l-406 -722l417 -734h-404l-245 493l-245 -493h-405l418 734l-407 722h401z" />
    <glyph glyph-name="Y" unicode="Y" horiz-adv-x="1286" 
d="M375 1456l268 -632l269 632h378l-468 -933v-523h-357v523l-469 933h379z" />
    <glyph glyph-name="Z" unicode="Z" horiz-adv-x="1250" 
d="M62 1185v271h1132v-180l-688 -1006h695v-270h-1134v185l695 1000h-700z" />
    <glyph glyph-name="bracketleft" unicode="[" horiz-adv-x="578" 
d="M565 1706v-246h-118v-1564h118v-245h-457v2055h457z" />
    <glyph glyph-name="backslash" unicode="\" horiz-adv-x="874" 
d="M586 -125l-607 1581h353l608 -1581h-354z" />
    <glyph glyph-name="bracketright" unicode="]" horiz-adv-x="578" 
d="M14 1460v246h457v-2055h-457v245h120v1564h-120z" />
    <glyph glyph-name="asciicircum" unicode="^" horiz-adv-x="917" 
d="M36 729l299 727h250l299 -727h-254l-170 453l-170 -453h-254z" />
    <glyph glyph-name="underscore" unicode="_" horiz-adv-x="905" 
d="M903 0v-251h-904v251h904z" />
    <glyph glyph-name="grave" unicode="`" horiz-adv-x="696" 
d="M411 1536l199 -314h-273l-282 314h356z" />
    <glyph glyph-name="a" unicode="a" horiz-adv-x="1088" 
d="M704 0q-19 38 -31 97q-93 -117 -260 -117q-100 0 -184 41.5t-133.5 115.5t-49.5 168q0 169 123 261.5t373 94.5h115v57q0 149 -129 149q-120 0 -120 -118h-337q0 100 59 180.5t166.5 126.5t249.5 46q131 0 232.5 -43.5t159.5 -130.5t58 -212v-471q1 -145 46 -228v-17
h-338zM594 245q43 25 63 61v175h-106q-88 0 -128 -45t-40 -113q0 -45 31 -74t79 -29q58 0 101 25z" />
    <glyph glyph-name="b" unicode="b" horiz-adv-x="1153" 
d="M1099 532q0 -167 -46 -291t-140 -192.5t-234 -68.5q-165 0 -264 131l-15 -111h-302v1536h337v-540q94 106 242 106q140 0 234.5 -69t140.5 -191.5t47 -284.5v-25zM435 756v-432q43 -85 160 -85q69 0 105 33.5t49 99.5t13 181q0 136 -36 212.5t-133 76.5q-114 0 -158 -86z
" />
    <glyph glyph-name="c" unicode="c" horiz-adv-x="1065" 
d="M700 386h317q0 -120 -59.5 -212t-164 -143t-233.5 -51q-165 0 -279 70.5t-171 194.5t-57 284v23q0 159 57 283.5t171 195.5t277 71q135 0 239 -51.5t162 -149.5t58 -233h-317q2 76 -37 125t-113 49q-66 0 -100.5 -36t-47 -103t-12.5 -174q0 -91 12 -153t47.5 -99
t102.5 -37q151 0 148 146z" />
    <glyph glyph-name="d" unicode="d" horiz-adv-x="1152" 
d="M752 0l-16 116q-106 -136 -264 -136q-133 0 -227.5 69.5t-142.5 192.5t-49 282v25q0 166 48 290.5t143 193.5t230 69q145 0 243 -113v547h339v-1536h-304zM428.5 317q38.5 -77 129.5 -77q113 0 159 93v415q-45 94 -157 94q-90 0 -130 -80t-40 -234q0 -134 38.5 -211z" />
    <glyph glyph-name="e" unicode="e" horiz-adv-x="1116" 
d="M1045 170q-35 -50 -96.5 -93.5t-146 -70t-183.5 -26.5q-171 0 -297 70t-193 189.5t-68 262.5v41q0 161 59 287.5t177 199t286 72.5q152 0 262.5 -64.5t169.5 -184t59 -281.5v-137h-669q18 -91 79.5 -143t156.5 -52q161 0 251 112zM458 790.5q-41 -51.5 -53 -144.5h340v26
q2 170 -165 170q-81 0 -122 -51.5z" />
    <glyph glyph-name="f" unicode="f" horiz-adv-x="743" 
d="M718 848h-210v-848h-339v848h-156v234h156v91q0 122 50.5 208t143 130.5t217.5 45.5h4q73 0 159 -21l1 -248q-36 9 -84 9q-152 0 -152 -127v-88h210v-234z" />
    <glyph glyph-name="g" unicode="g" horiz-adv-x="1179" 
d="M304.5 -383.5q-111.5 42.5 -175.5 119.5l141 198q98 -111 249 -111q221 0 224 215v50q-94 -108 -246 -108q-134 0 -234 70.5t-153.5 195t-53.5 282.5v21q0 164 53.5 289.5t154 194.5t235.5 69q169 0 264 -113l12 93h306v-1040q0 -147 -68.5 -252.5t-192.5 -160.5
t-289 -55q-115 0 -226.5 42.5zM442 320q49 -80 141 -80q110 0 160 74v454q-48 74 -158 74q-94 0 -143 -82t-49 -232q0 -128 49 -208z" />
    <glyph glyph-name="h" unicode="h" horiz-adv-x="1156" 
d="M425 777v-777h-337v1536h337v-569q110 135 276 135q170 0 266 -101.5t97 -323.5v-677h-339v674q0 94 -38 131t-116 37q-102 0 -146 -65z" />
    <glyph glyph-name="i" unicode="i" horiz-adv-x="563" 
d="M116.5 1446q23.5 37 66 58t97.5 21t97.5 -21t66 -58t23.5 -85t-23.5 -85t-66 -58t-97.5 -21t-97.5 21t-66 58t-23.5 85t23.5 85zM451 1082v-1082h-338v1082h338z" />
    <glyph glyph-name="j" unicode="j" horiz-adv-x="554" 
d="M118.5 1446q23.5 37 66 58t97.5 21t97.5 -21t66 -58t23.5 -85t-23.5 -85t-66 -58t-97.5 -21t-97.5 21t-66 58t-23.5 85t23.5 85zM120 1082h338v-1117q0 -128 -50 -218.5t-143 -137t-222 -46.5q-81 0 -160 17v255q56 -9 96 -9q141 0 141 139v1117z" />
    <glyph glyph-name="k" unicode="k" horiz-adv-x="1120" 
d="M766 0l-237 403l-94 -94v-309h-337v1537h337v-815l288 360h404l-380 -445l405 -637h-386z" />
    <glyph glyph-name="l" unicode="l" horiz-adv-x="563" 
d="M451 1536v-1536h-338v1536h338z" />
    <glyph glyph-name="m" unicode="m" horiz-adv-x="1764" 
d="M435 753v-753h-337v1082h316l12 -127q113 147 308 147q202 0 277 -163q109 163 317 163q337 0 338 -416v-686h-338v681q0 65 -15 100t-42.5 48t-71.5 13q-100 0 -150 -89l1 -753h-337v679q0 66 -15 101.5t-43 48.5t-73 13q-94 0 -147 -89z" />
    <glyph glyph-name="n" unicode="n" horiz-adv-x="1156" 
d="M426 765v-765h-337v1082h316l11 -126q113 146 308 146q160 0 249.5 -97.5t90.5 -318.5v-686h-339v682q0 64 -17.5 98.5t-50.5 48t-85 13.5q-99 0 -146 -77z" />
    <glyph glyph-name="o" unicode="o" horiz-adv-x="1151" 
d="M53 551q0 160 60.5 284.5t178 195.5t282.5 71q166 0 284 -71t178.5 -195.5t60.5 -284.5v-21q0 -160 -60.5 -284.5t-178 -195t-282.5 -70.5q-164 0 -281 69t-178 190.5t-64 277.5v34zM432 317.5q42 -77.5 144 -77.5q101 0 142.5 79t41.5 232q0 291 -186 291
q-100 0 -142 -80.5t-42 -231.5q0 -135 42 -212.5z" />
    <glyph glyph-name="p" unicode="p" horiz-adv-x="1153" 
d="M435 89v-505h-337v1498h314l11 -100q98 120 255 120q135 0 229.5 -67.5t143 -191t48.5 -289.5v-21q0 -159 -49 -284.5t-143.5 -197t-227.5 -71.5q-148 0 -244 109zM435 756v-427q44 -89 161 -89q91 0 128.5 80.5t37.5 233.5q0 288 -168 288q-118 0 -159 -86z" />
    <glyph glyph-name="q" unicode="q" horiz-adv-x="1151" 
d="M1056 1082v-1498h-339v506q-95 -110 -246 -110q-132 0 -226 70.5t-142.5 194.5t-49.5 282v25q0 166 48.5 290t143 192t228.5 68q167 0 267 -136l24 116h292zM557 240q117 0 160 87v429q-42 86 -158 86q-92 0 -130.5 -78t-38.5 -233q0 -291 167 -291z" />
    <glyph glyph-name="r" unicode="r" horiz-adv-x="776" 
d="M638 785q-158 0 -203 -99v-686h-337v1082h315l11 -138q86 158 238 158q55 0 93 -12l-6 -313z" />
    <glyph glyph-name="s" unicode="s" horiz-adv-x="1050" 
d="M615 374q-49 26 -170 53q-173 38 -274.5 119t-101.5 214q0 93 53 171t154.5 124.5t238.5 46.5q143 0 250 -44.5t165 -124t58 -183.5h-337q0 130 -137 130q-53 0 -89.5 -28.5t-36.5 -74.5q0 -83 180 -118q132 -25 223 -63.5t143.5 -107t52.5 -174.5q0 -95 -58 -171
t-165.5 -119.5t-249.5 -43.5q-148 0 -256.5 53.5t-165 138t-56.5 175.5h314q3 -73 49 -108.5t124 -35.5q139 0 139 101q0 43 -47 70z" />
    <glyph glyph-name="t" unicode="t" horiz-adv-x="704" 
d="M681 9q-90 -29 -190 -29q-168 0 -254.5 79.5t-86.5 251.5v537h-137v234h137v269h337v-269h178v-234h-178v-495q0 -44 10 -67t33.5 -32.5t66.5 -9.5q50 0 84 6v-241z" />
    <glyph glyph-name="u" unicode="u" horiz-adv-x="1156" 
d="M749 0l-10 116q-106 -136 -288 -136q-169 0 -265.5 98t-96.5 304v700h337v-702q0 -140 136 -140q119 0 165 85v757h338v-1082h-316z" />
    <glyph glyph-name="v" unicode="v" horiz-adv-x="1058" 
d="M1053 1082l-354 -1082h-343l-353 1082h356l168 -682l171 682h355z" />
    <glyph glyph-name="w" unicode="w" horiz-adv-x="1487" 
d="M1461 1082l-254 -1082h-286l-178 641l-181 -641h-284l-256 1082h323l107 -652l172 652h235l171 -640l108 640h323z" />
    <glyph glyph-name="x" unicode="x" horiz-adv-x="1055" 
d="M381 1082l152 -298l157 298h350l-284 -527l299 -555h-353l-169 320l-168 -320h-353l299 555l-283 527h353z" />
    <glyph glyph-name="y" unicode="y" horiz-adv-x="1061" 
d="M634 -161q-22 -68 -60 -127.5t-102 -101.5q-73 -47 -195 -47l-64 3l-76 17v241h44q77 0 112.5 22.5t51.5 71.5l28 71l-378 1093h361l172 -611l179 611h362z" />
    <glyph glyph-name="z" unicode="z" horiz-adv-x="1055" 
d="M87 822v260h888v-182l-481 -640h491v-260h-918v188l479 634h-459z" />
    <glyph glyph-name="braceleft" unicode="{" horiz-adv-x="666" 
d="M41 732q161 0 161 202v198q0 172 82.5 291.5t277.5 173.5l64 -176q-72 -29 -101.5 -103t-29.5 -186v-193q0 -228 -185 -320q185 -92 185 -320v-193q0 -112 29.5 -186t101.5 -103l-64 -177q-194 54 -277 174t-83 292v197q0 202 -161 202v227z" />
    <glyph glyph-name="bar" unicode="|" horiz-adv-x="524" 
d="M356 1456v-1726h-183v1726h183z" />
    <glyph glyph-name="braceright" unicode="}" horiz-adv-x="666" 
d="M627 505q-162 0 -162 -201v-198q0 -172 -83 -292t-277 -174l-64 177q73 29 102 102.5t29 186.5v195q0 227 187 318q-187 91 -187 318v195q0 113 -29 186.5t-102 102.5l64 176q195 -54 277.5 -173.5t82.5 -291.5v-199q0 -201 162 -201v-227z" />
    <glyph glyph-name="asciitilde" unicode="~" horiz-adv-x="1295" 
d="M1198 799q0 -132 -42.5 -230t-118.5 -150t-174 -52q-77 0 -138 30t-131 100q-76 79 -145 79q-33 0 -59.5 -23t-41.5 -62t-15 -86l-239 4q0 134 42 230t117 146.5t174 50.5q146 0 275 -132q73 -76 139 -76q33 0 59.5 23t41.5 62t15 87z" />
    <glyph glyph-name="uni00A0" unicode="&#xa0;" horiz-adv-x="510" 
 />
    <glyph glyph-name="exclamdown" unicode="&#xa1;" horiz-adv-x="616" 
d="M473.5 846.5q-23.5 -38.5 -66.5 -60.5t-97 -22t-97 22t-66.5 60.5t-23.5 86.5t23.5 86.5t66.5 60.5t97 22t97 -22t66.5 -60.5t23.5 -86.5t-23.5 -86.5zM128 -372l43 995h274l43 -995h-360z" />
    <glyph glyph-name="cent" unicode="&#xa2;" horiz-adv-x="1210" 
d="M1062 386q0 -103 -44 -186.5t-124 -137.5t-184 -73v-234h-200v232q-134 20 -226.5 94t-139 189t-46.5 259v23q0 144 46.5 259.5t139 189.5t226.5 94v223h200v-225q107 -19 186.5 -74.5t122.5 -145t43 -205.5h-317q2 76 -37 125t-113 49q-66 0 -100.5 -36t-47 -103
t-12.5 -174q0 -91 12 -153t47.5 -99t102.5 -37q151 0 148 146h317z" />
    <glyph glyph-name="sterling" unicode="&#xa3;" horiz-adv-x="1230" 
d="M106 0v270h104q28 7 41 28.5t16 50.5t3 77l-4 135h-163v261h155l-6 217q0 136 55.5 234.5t158 150t240.5 51.5q151 0 257.5 -53t161.5 -149t55 -225h-329q0 84 -37 120.5t-99 36.5q-114 0 -114 -166l10 -217h307v-261h-296l5 -112q0 -112 -59 -179h607l1 -270h-1070z" />
    <glyph glyph-name="currency" unicode="&#xa4;" horiz-adv-x="1398" 
d="M1335 118l-142 -145l-131 135q-160 -128 -362 -128t-361 126l-129 -132l-141 144l136 138q-101 158 -101 352q0 205 109 365l-144 147l141 144l142 -145q154 115 348 115t349 -117l144 148l142 -145l-147 -150q106 -160 106 -362q0 -191 -98 -349zM345 388
q55 -100 149 -157.5t206 -57.5t206 57.5t148.5 157.5t54.5 220t-54.5 219.5t-148.5 157t-206 57.5t-206 -57.5t-149 -157t-55 -219.5t55 -220z" />
    <glyph glyph-name="yen" unicode="&#xa5;" horiz-adv-x="1108" 
d="M998 263h-272v-263h-350v263h-303v189h303v100h-303v190h243l-306 714h357l188 -520l186 520h358l-306 -714h205v-190h-272v-100h272v-189z" />
    <glyph glyph-name="brokenbar" unicode="&#xa6;" horiz-adv-x="525" 
d="M411 1456v-758h-292v758h292zM411 -270h-292v795h292v-795z" />
    <glyph glyph-name="section" unicode="&#xa7;" horiz-adv-x="1302" 
d="M1113 -265.5q-65 -84.5 -184.5 -128t-280.5 -43.5q-150 0 -273 39t-200 124q-81 90 -81 249h337q0 -87 60 -119t157 -32q193 0 193 114q0 58 -60 96q-62 38 -215 78q-161 43 -263.5 95.5t-156 130t-53.5 190.5q0 177 157 270q-140 105 -140 292q0 116 66 203.5t186.5 135
t280.5 47.5q165 0 285 -49.5t183.5 -145t63.5 -230.5h-337q0 73 -50 119t-145 46q-99 0 -147 -34t-48 -90q0 -69 61 -102q59 -34 211 -73q162 -42 265 -94.5t156.5 -130.5t53.5 -192q0 -177 -154 -268q137 -104 137 -293q0 -120 -65 -204.5zM807 342q56 44 56 120
q0 65 -62 107q-61 41 -219 87l-102 32q-50 -41 -50 -120q0 -71 51 -107q49 -35 209 -85z" />
    <glyph glyph-name="dieresis" unicode="&#xa8;" horiz-adv-x="1013" 
d="M115.5 1432.5q20.5 30.5 55 48t75.5 17.5t75.5 -17.5t55 -48t20.5 -67.5t-20.5 -67.5t-55 -48t-75.5 -17.5t-75.5 17.5t-55 48t-20.5 67.5t20.5 67.5zM634.5 1432.5q20.5 30.5 55.5 48t75 17.5q41 0 75.5 -17.5t55 -48t20.5 -67.5t-20.5 -67.5t-55 -48t-75.5 -17.5
q-40 0 -75 17.5t-55.5 48t-20.5 67.5t20.5 67.5z" />
    <glyph glyph-name="copyright" unicode="&#xa9;" horiz-adv-x="1609" 
d="M180.5 1107q94.5 170 258.5 271q161 98 357 98q194 0 355.5 -97.5t258.5 -268.5q96 -169 96 -381q0 -208 -94.5 -378.5t-258.5 -271.5q-160 -99 -357 -99q-194 0 -355.5 98t-258.5 270q-96 170 -96 381q0 208 94.5 378zM286.5 413.5q78.5 -141.5 214.5 -225.5
q134 -83 295 -83q160 0 295 83t213.5 226t78.5 315q0 174 -78.5 315.5t-213.5 224.5q-133 82 -295 82q-160 0 -294 -81t-214 -223t-80 -318q0 -174 78.5 -315.5zM1117 596q0 -155 -88.5 -234.5t-246.5 -79.5q-106 0 -185 48.5t-121.5 136t-42.5 202.5v119q0 114 42.5 202
t121.5 136.5t185 48.5q157 0 246.5 -80t89.5 -234h-156q0 179 -180 179q-93 0 -143.5 -68.5t-50.5 -182.5v-120q0 -115 50 -183.5t144 -68.5q91 0 135 41.5t44 137.5h156z" />
    <glyph glyph-name="ordfeminine" unicode="&#xaa;" horiz-adv-x="905" 
d="M601 705q-11 34 -17 68q-76 -82 -201 -82q-118 0 -183.5 61.5t-65.5 166.5q0 225 324 231h119v51q0 127 -116 127q-138 0 -138 -99l-173 14q0 67 38.5 120t109.5 83t163 30q135 0 213 -71t78 -205v-314q0 -100 26 -181h-177zM506.5 853q42.5 18 70.5 44v136h-101
q-82 0 -124.5 -32t-42.5 -78q0 -88 117 -88q38 0 80.5 18z" />
    <glyph glyph-name="guillemotleft" unicode="&#xab;" horiz-adv-x="1054" 
d="M337 116l-273 390v19l273 390h206l-232 -399l232 -400h-206zM751 116l-273 390v19l273 390h206l-232 -399l232 -400h-206z" />
    <glyph glyph-name="logicalnot" unicode="&#xac;" horiz-adv-x="1125" 
d="M126 805h835v-431h-200v260h-635v171z" />
    <glyph glyph-name="uni00AD" unicode="&#xad;" horiz-adv-x="921" 
d="M753 758v-261h-601v261h601z" />
    <glyph glyph-name="registered" unicode="&#xae;" horiz-adv-x="1609" 
d="M180.5 1107q94.5 170 258.5 271q161 98 357 98q194 0 355.5 -97.5t258.5 -268.5q96 -169 96 -381q0 -208 -94.5 -378.5t-258.5 -271.5q-160 -99 -357 -99q-194 0 -355.5 98t-258.5 270q-96 170 -96 381q0 208 94.5 378zM286.5 413.5q78.5 -141.5 214.5 -225.5
q134 -83 295 -83q160 0 295 83t213.5 226t78.5 315q0 174 -78.5 315.5t-213.5 224.5q-133 82 -295 82q-160 0 -294 -81t-214 -223t-80 -318q0 -174 78.5 -315.5zM652 653v-337h-151v850h281q150 0 237.5 -68.5t87.5 -195.5q0 -108 -107 -170q56 -31 80 -86.5t24 -139.5
q0 -86 4 -117q3 -36 13 -57v-16h-155q-9 24 -11 65.5t-2 129.5q0 72 -35.5 107t-107.5 35h-158zM652 1033v-246h127q76 0 127 30.5t51 85.5q0 49 -16.5 77t-54.5 40.5t-104 12.5h-130z" />
    <glyph glyph-name="macron" unicode="&#xaf;" horiz-adv-x="1066" 
d="M875 1458v-173h-694v173h694z" />
    <glyph glyph-name="degree" unicode="&#xb0;" horiz-adv-x="814" 
d="M164 1335q38 65 102.5 103t139.5 38t138 -38t100.5 -103t37.5 -140t-37 -138.5t-100.5 -101t-138.5 -37.5t-139.5 37.5t-102.5 101t-38 138.5t38 140zM297 1132q17 -28 46 -44.5t63 -16.5q51 0 86 35t35 89q0 55 -35 91.5t-86 36.5q-34 0 -63 -17t-46 -46t-17 -65
q0 -35 17 -63z" />
    <glyph glyph-name="plusminus" unicode="&#xb1;" horiz-adv-x="1103" 
d="M1000 703h-312v-348h-293v348h-311v271h311v319h293v-319h312v-271zM980 265v-264h-879v264h879z" />
    <glyph glyph-name="uni00B2" unicode="&#xb2;" horiz-adv-x="768" 
d="M697 842v-175h-627v147l285 253q46 41 72.5 83.5t26.5 65.5q0 76 -84 76q-44 0 -68.5 -30.5t-24.5 -72.5h-225q0 76 38 140t107.5 101.5t160.5 37.5q320 0 320 -252q0 -59 -23.5 -106t-71 -91.5t-135.5 -108.5l-80 -68h329z" />
    <glyph glyph-name="uni00B3" unicode="&#xb3;" horiz-adv-x="768" 
d="M277 999v142h91q99 0 99 82q0 28 -23 48.5t-73 20.5q-37 0 -63 -13.5t-26 -37.5h-224q0 73 42.5 124t112 77t150.5 26q149 0 238.5 -59.5t89.5 -167.5q0 -60 -37 -103t-100 -66q152 -39 152 -183q0 -72 -45 -125t-123 -80.5t-175 -27.5q-79 0 -152.5 25.5t-121 82
t-47.5 144.5h226q0 -30 31.5 -53t80.5 -23q52 0 76.5 23t24.5 58q0 86 -113 86h-91z" />
    <glyph glyph-name="acute" unicode="&#xb4;" horiz-adv-x="692" 
d="M90 1222l198 314h356l-279 -314h-275z" />
    <glyph glyph-name="uni00B5" unicode="&#xb5;" horiz-adv-x="1314" 
d="M470 14v-430h-337v1498h337v-620q0 -86 19 -134t54 -66.5t91 -18.5q128 0 180 91v748h338v-1082h-318l-4 53q-89 -74 -211 -74q-84 0 -149 35z" />
    <glyph glyph-name="paragraph" unicode="&#xb6;" horiz-adv-x="1001" 
d="M886 0h-229v520h-90q-152 1 -261.5 61.5t-166.5 166t-57 240.5t57.5 241t168.5 166.5t266 60.5h312v-1456z" />
    <glyph glyph-name="periodcentered" unicode="&#xb7;" horiz-adv-x="658" 
d="M161.5 771.5q23.5 38.5 66.5 60.5t97 22t96.5 -22t66 -60.5t23.5 -86.5t-23.5 -86.5t-66 -60.5t-96.5 -22t-97 22t-66.5 60.5t-23.5 86.5t23.5 86.5z" />
    <glyph glyph-name="cedilla" unicode="&#xb8;" horiz-adv-x="570" 
d="M117 10h257l-11 -61q64 -11 107 -52.5t43 -120.5q0 -75 -43 -131t-127 -86.5t-204 -30.5l-7 186q89 0 89 77q0 65 -135 73z" />
    <glyph glyph-name="uni00B9" unicode="&#xb9;" horiz-adv-x="768" 
d="M543 1453v-786h-224v533l-176 -36v167l381 122h19z" />
    <glyph glyph-name="ordmasculine" unicode="&#xba;" horiz-adv-x="939" 
d="M118 1121q0 103 42.5 183.5t121 126t182.5 45.5q106 0 184.5 -45t120.5 -126t42 -184v-77q0 -103 -42 -183.5t-120 -125.5t-183 -45t-184 45t-121.5 125.5t-42.5 183.5v77zM293 1044q0 -93 44 -150.5t129 -57.5q83 0 126.5 57.5t43.5 150.5v77q0 92 -44 149.5t-128 57.5
q-83 0 -127 -57.5t-44 -149.5v-77z" />
    <glyph glyph-name="guillemotright" unicode="&#xbb;" horiz-adv-x="1054" 
d="M284 914l273 -390v-19l-273 -390h-206l231 399l-231 400h206zM697 914l273 -390v-19l-273 -390h-206l231 399l-231 400h206z" />
    <glyph glyph-name="onequarter" unicode="&#xbc;" horiz-adv-x="1452" 
d="M512 1450v-786h-224v533l-176 -36v167l381 122h19zM1173 1255l-711 -1138l-157 79l711 1138zM1368 157h-80v-157h-225v157h-333l-15 145l348 487h225v-454h80v-178zM926 335h137v190l-15 -22z" />
    <glyph glyph-name="onehalf" unicode="&#xbd;" horiz-adv-x="1537" 
d="M488 1458v-786h-224v533l-176 -36v167l381 122h19zM1133 1255l-711 -1138l-157 79l711 1138zM1470 175v-175h-627v147l285 253q46 41 72.5 83.5t26.5 65.5q0 76 -84 76q-44 0 -68.5 -30.5t-24.5 -72.5h-225q0 76 38 140t107.5 101.5t160.5 37.5q320 0 320 -252
q0 -59 -23.5 -106t-71 -91.5t-135.5 -108.5l-80 -68h329z" />
    <glyph glyph-name="threequarters" unicode="&#xbe;" horiz-adv-x="1689" 
d="M321 999v142h91q99 0 99 82q0 26 -23 47.5t-73 21.5q-37 0 -63 -13.5t-26 -37.5h-224q0 73 42.5 124t112 77t150.5 26q149 0 238.5 -59.5t89.5 -167.5q0 -60 -37 -103t-100 -66q152 -39 152 -183q0 -72 -45 -125t-123 -80.5t-175 -27.5q-79 0 -152.5 25.5t-121 82
t-47.5 144.5h226q0 -31 31 -53.5t81 -22.5q52 0 76.5 23t24.5 58q0 86 -113 86h-91zM1355 1255l-711 -1138l-157 79l711 1138zM1566 157h-80v-157h-225v157h-333l-15 145l348 487h225v-454h80v-178zM1124 335h137v190l-15 -22z" />
    <glyph glyph-name="questiondown" unicode="&#xbf;" horiz-adv-x="1044" 
d="M732.5 847.5q-23.5 -38.5 -66.5 -60.5t-97 -22t-97 22t-66.5 60.5t-23.5 86.5t23.5 86.5t66.5 60.5t97 22t97 -22t66.5 -60.5t23.5 -86.5t-23.5 -86.5zM704 630q0 -93 -11 -157.5t-40 -117t-83 -97.5q-57 -52 -89 -86t-51 -73.5t-19 -87.5q0 -69 32.5 -102.5t88.5 -33.5
q64 0 102.5 40t41.5 123h338q-2 -144 -63.5 -239t-167.5 -139.5t-243 -44.5q-146 0 -250.5 45.5t-160.5 134.5t-56 216q0 78 31 141.5t76.5 113t124.5 120.5l20 18q39 35 58 66.5t25.5 66.5t8.5 93h287z" />
    <glyph glyph-name="Agrave" unicode="&#xc0;" horiz-adv-x="1395" 
d="M660 1846l199 -314h-273l-282 314h356zM-4 0l535 1456h331l538 -1456h-378l-84 272h-481l-84 -272h-377zM541 543h313l-157 507z" />
    <glyph glyph-name="Aacute" unicode="&#xc1;" horiz-adv-x="1395" 
d="M545 1532l198 314h356l-279 -314h-275zM-4 0l535 1456h331l538 -1456h-378l-84 272h-481l-84 -272h-377zM541 543h313l-157 507z" />
    <glyph glyph-name="Acircumflex" unicode="&#xc2;" horiz-adv-x="1395" 
d="M796 1846l328 -281v-13h-265l-160 136l-158 -136h-260v17l322 277h193zM-4 0l535 1456h331l538 -1456h-378l-84 272h-481l-84 -272h-377zM541 543h313l-157 507z" />
    <glyph glyph-name="Atilde" unicode="&#xc3;" horiz-adv-x="1395" 
d="M1085 1837q0 -73 -29.5 -136t-82.5 -100t-119 -37q-92 0 -148 42q-55 42 -131 42t-76 -90l-188 10q0 72 29.5 134.5t82.5 100.5t119 38q77 0 142 -41q63 -42 136 -42q34 0 56.5 23t22.5 67zM-4 0l535 1456h331l538 -1456h-378l-84 272h-481l-84 -272h-377zM541 543h313
l-157 507z" />
    <glyph glyph-name="Adieresis" unicode="&#xc4;" horiz-adv-x="1395" 
d="M306.5 1742.5q20.5 30.5 55 48t75.5 17.5t75.5 -17.5t55 -48t20.5 -67.5t-20.5 -67.5t-55 -48t-75.5 -17.5t-75.5 17.5t-55 48t-20.5 67.5t20.5 67.5zM825.5 1742.5q20.5 30.5 55.5 48t75 17.5q41 0 75.5 -17.5t55 -48t20.5 -67.5t-20.5 -67.5t-55 -48t-75.5 -17.5
q-40 0 -75 17.5t-55.5 48t-20.5 67.5t20.5 67.5zM-4 0l535 1456h331l538 -1456h-378l-84 272h-481l-84 -272h-377zM541 543h313l-157 507z" />
    <glyph glyph-name="Aring" unicode="&#xc5;" horiz-adv-x="1395" 
d="M506 1829.5q29 46.5 80.5 74.5t114.5 28q64 0 115.5 -27.5t80.5 -74.5t29 -101t-29 -99.5t-80.5 -72.5t-115.5 -27q-63 0 -114.5 27t-80.5 72.5t-29 99.5t29 100.5zM626 1654.5q28 -29.5 75 -29.5q48 0 76 29.5t28 74.5q0 46 -28 76t-76 30q-47 0 -75 -30.5t-28 -75.5
t28 -74.5zM-4 0l535 1456h331l538 -1456h-378l-84 272h-481l-84 -272h-377zM541 543h313l-157 507z" />
    <glyph glyph-name="AE" unicode="&#xc6;" horiz-adv-x="1926" 
d="M1852 264v-264h-897l-14 329h-383l-152 -329h-390l735 1456h1040v-264h-549l13 -316h455v-264h-444l15 -348h571zM683 599h247l-21 488z" />
    <glyph glyph-name="Ccedilla" unicode="&#xc7;" horiz-adv-x="1344" 
d="M939 493h350q-6 -133 -65 -239t-163.5 -174t-245.5 -90l-7 -41q64 -11 107 -52.5t43 -120.5q0 -75 -43 -131t-127 -86.5t-204 -30.5l-7 186q89 0 89 77q0 65 -135 73l27 127q-152 27 -261 116.5t-167 233t-60 331.5v95q0 217 76 377.5t214 246.5t322 86q185 0 317 -66.5
t205 -184.5t87 -273h-350q-4 127 -63.5 188t-195.5 61q-87 0 -143.5 -43.5t-84.5 -137t-28 -244.5v-89q0 -157 25.5 -251t82.5 -138t153 -44q245 0 252 238z" />
    <glyph glyph-name="Egrave" unicode="&#xc8;" horiz-adv-x="1146" 
d="M605 1846l199 -314h-273l-282 314h356zM111 0v1456h1005v-271h-654v-307h551v-261h-551v-347h651v-270h-1002z" />
    <glyph glyph-name="Eacute" unicode="&#xc9;" horiz-adv-x="1146" 
d="M490 1532l198 314h356l-279 -314h-275zM111 0v1456h1005v-271h-654v-307h551v-261h-551v-347h651v-270h-1002z" />
    <glyph glyph-name="Ecircumflex" unicode="&#xca;" horiz-adv-x="1146" 
d="M741 1846l328 -281v-13h-265l-160 136l-158 -136h-260v17l322 277h193zM111 0v1456h1005v-271h-654v-307h551v-261h-551v-347h651v-270h-1002z" />
    <glyph glyph-name="Edieresis" unicode="&#xcb;" horiz-adv-x="1146" 
d="M251.5 1742.5q20.5 30.5 55 48t75.5 17.5t75.5 -17.5t55 -48t20.5 -67.5t-20.5 -67.5t-55 -48t-75.5 -17.5t-75.5 17.5t-55 48t-20.5 67.5t20.5 67.5zM770.5 1742.5q20.5 30.5 55.5 48t75 17.5q41 0 75.5 -17.5t55 -48t20.5 -67.5t-20.5 -67.5t-55 -48t-75.5 -17.5
q-40 0 -75 17.5t-55.5 48t-20.5 67.5t20.5 67.5zM111 0v1456h1005v-271h-654v-307h551v-261h-551v-347h651v-270h-1002z" />
    <glyph glyph-name="Igrave" unicode="&#xcc;" horiz-adv-x="619" 
d="M269 1846l199 -314h-273l-282 314h356zM484 1456v-1456h-350v1456h350z" />
    <glyph glyph-name="Iacute" unicode="&#xcd;" horiz-adv-x="619" 
d="M154 1532l198 314h356l-279 -314h-275zM484 1456v-1456h-350v1456h350z" />
    <glyph glyph-name="Icircumflex" unicode="&#xce;" horiz-adv-x="619" 
d="M405 1846l328 -281v-13h-265l-160 136l-158 -136h-260v17l322 277h193zM484 1456v-1456h-350v1456h350z" />
    <glyph glyph-name="Idieresis" unicode="&#xcf;" horiz-adv-x="619" 
d="M-84.5 1742.5q20.5 30.5 55 48t75.5 17.5t75.5 -17.5t55 -48t20.5 -67.5t-20.5 -67.5t-55 -48t-75.5 -17.5t-75.5 17.5t-55 48t-20.5 67.5t20.5 67.5zM434.5 1742.5q20.5 30.5 55.5 48t75 17.5q41 0 75.5 -17.5t55 -48t20.5 -67.5t-20.5 -67.5t-55 -48t-75.5 -17.5
q-40 0 -75 17.5t-55.5 48t-20.5 67.5t20.5 67.5zM484 1456v-1456h-350v1456h350z" />
    <glyph glyph-name="Eth" unicode="&#xd0;" horiz-adv-x="1355" 
d="M-1 826h142v630h468q196 0 348.5 -87.5t240.5 -246.5q86 -158 86 -364v-61q0 -202 -85.5 -360.5t-237.5 -247.5t-345 -89h-475v635h-142v191zM730 635h-238v-365h135q292 9 299 405v85q0 416 -304 425h-130v-359h238v-191z" />
    <glyph glyph-name="Ntilde" unicode="&#xd1;" horiz-adv-x="1438" 
d="M1112 1837q0 -73 -29.5 -136t-82.5 -100t-119 -37q-93 0 -148 42q-56 42 -131 42q-76 0 -76 -90l-188 10q0 72 29.5 134.5t82.5 100.5t119 38q77 0 142 -41q63 -42 136 -42q34 0 56.5 23t22.5 67zM1327 1456v-1456h-350l-515 906v-906h-351v1456h351l515 -906v906h350z
" />
    <glyph glyph-name="Ograve" unicode="&#xd2;" horiz-adv-x="1414" 
d="M665 1846l199 -314h-273l-282 314h356zM1343 698q0 -219 -80.5 -381.5t-224.5 -249.5t-330 -87q-187 0 -332 87t-225.5 249.5t-80.5 381.5v59q0 219 80.5 381.5t224.5 250t331 87.5q186 0 330.5 -87.5t225.5 -250t81 -381.5v-59zM987 759q0 442 -281 442
q-261 0 -278 -390l-1 -113q0 -216 71 -330t210 -114q133 0 205.5 114t73.5 324v67z" />
    <glyph glyph-name="Oacute" unicode="&#xd3;" horiz-adv-x="1414" 
d="M550 1532l198 314h356l-279 -314h-275zM1343 698q0 -219 -80.5 -381.5t-224.5 -249.5t-330 -87q-187 0 -332 87t-225.5 249.5t-80.5 381.5v59q0 219 80.5 381.5t224.5 250t331 87.5q186 0 330.5 -87.5t225.5 -250t81 -381.5v-59zM987 759q0 442 -281 442
q-261 0 -278 -390l-1 -113q0 -216 71 -330t210 -114q133 0 205.5 114t73.5 324v67z" />
    <glyph glyph-name="Ocircumflex" unicode="&#xd4;" horiz-adv-x="1414" 
d="M801 1846l328 -281v-13h-265l-160 136l-158 -136h-260v17l322 277h193zM1343 698q0 -219 -80.5 -381.5t-224.5 -249.5t-330 -87q-187 0 -332 87t-225.5 249.5t-80.5 381.5v59q0 219 80.5 381.5t224.5 250t331 87.5q186 0 330.5 -87.5t225.5 -250t81 -381.5v-59zM987 759
q0 442 -281 442q-261 0 -278 -390l-1 -113q0 -216 71 -330t210 -114q133 0 205.5 114t73.5 324v67z" />
    <glyph glyph-name="Otilde" unicode="&#xd5;" horiz-adv-x="1414" 
d="M1090 1837q0 -73 -29.5 -136t-82.5 -100t-119 -37q-92 0 -148 42q-55 42 -131 42t-76 -90l-188 10q0 72 29.5 134.5t82.5 100.5t119 38q77 0 142 -41q63 -42 136 -42q34 0 56.5 23t22.5 67zM1343 698q0 -219 -80.5 -381.5t-224.5 -249.5t-330 -87q-187 0 -332 87
t-225.5 249.5t-80.5 381.5v59q0 219 80.5 381.5t224.5 250t331 87.5q186 0 330.5 -87.5t225.5 -250t81 -381.5v-59zM987 759q0 442 -281 442q-261 0 -278 -390l-1 -113q0 -216 71 -330t210 -114q133 0 205.5 114t73.5 324v67z" />
    <glyph glyph-name="Odieresis" unicode="&#xd6;" horiz-adv-x="1414" 
d="M311.5 1742.5q20.5 30.5 55 48t75.5 17.5t75.5 -17.5t55 -48t20.5 -67.5t-20.5 -67.5t-55 -48t-75.5 -17.5t-75.5 17.5t-55 48t-20.5 67.5t20.5 67.5zM830.5 1742.5q20.5 30.5 55.5 48t75 17.5q41 0 75.5 -17.5t55 -48t20.5 -67.5t-20.5 -67.5t-55 -48t-75.5 -17.5
q-40 0 -75 17.5t-55.5 48t-20.5 67.5t20.5 67.5zM1343 698q0 -219 -80.5 -381.5t-224.5 -249.5t-330 -87q-187 0 -332 87t-225.5 249.5t-80.5 381.5v59q0 219 80.5 381.5t224.5 250t331 87.5q186 0 330.5 -87.5t225.5 -250t81 -381.5v-59zM987 759q0 442 -281 442
q-261 0 -278 -390l-1 -113q0 -216 71 -330t210 -114q133 0 205.5 114t73.5 324v67z" />
    <glyph glyph-name="multiply" unicode="&#xd7;" horiz-adv-x="1084" 
d="M1025 381l-193 -183l-293 299l-293 -299l-193 183l300 305l-300 306l193 183l293 -299l293 299l193 -183l-300 -306z" />
    <glyph glyph-name="Oslash" unicode="&#xd8;" horiz-adv-x="1410" 
d="M427 45l-80 -140h-208l141 245q-199 199 -199 557v50q0 219 80.5 381.5t224.5 250t331 87.5q159 0 288 -64l61 106h207l-121 -210q203 -200 203 -561v-49q0 -219 -81 -381.5t-225 -249.5t-330 -87q-160 0 -292 65zM438 698q0 -131 27 -226l394 686q-59 43 -142 43
q-261 0 -278 -390zM998 759q0 132 -29 230l-396 -691q61 -44 146 -44q133 0 205.5 114t73.5 324v67z" />
    <glyph glyph-name="Ugrave" unicode="&#xd9;" horiz-adv-x="1361" 
d="M635 1846l199 -314h-273l-282 314h356zM901 1456h351v-951q0 -168 -70 -286t-199 -178.5t-302 -60.5t-302.5 60.5t-201 179t-71.5 285.5v951h352v-967q6 -239 223 -239q110 0 165 61t55 194v951z" />
    <glyph glyph-name="Uacute" unicode="&#xda;" horiz-adv-x="1361" 
d="M520 1532l198 314h356l-279 -314h-275zM901 1456h351v-951q0 -168 -70 -286t-199 -178.5t-302 -60.5t-302.5 60.5t-201 179t-71.5 285.5v951h352v-967q6 -239 223 -239q110 0 165 61t55 194v951z" />
    <glyph glyph-name="Ucircumflex" unicode="&#xdb;" horiz-adv-x="1361" 
d="M771 1846l328 -281v-13h-265l-160 136l-158 -136h-260v17l322 277h193zM901 1456h351v-951q0 -168 -70 -286t-199 -178.5t-302 -60.5t-302.5 60.5t-201 179t-71.5 285.5v951h352v-967q6 -239 223 -239q110 0 165 61t55 194v951z" />
    <glyph glyph-name="Udieresis" unicode="&#xdc;" horiz-adv-x="1361" 
d="M281.5 1742.5q20.5 30.5 55 48t75.5 17.5t75.5 -17.5t55 -48t20.5 -67.5t-20.5 -67.5t-55 -48t-75.5 -17.5t-75.5 17.5t-55 48t-20.5 67.5t20.5 67.5zM800.5 1742.5q20.5 30.5 55.5 48t75 17.5q41 0 75.5 -17.5t55 -48t20.5 -67.5t-20.5 -67.5t-55 -48t-75.5 -17.5
q-40 0 -75 17.5t-55.5 48t-20.5 67.5t20.5 67.5zM901 1456h351v-951q0 -168 -70 -286t-199 -178.5t-302 -60.5t-302.5 60.5t-201 179t-71.5 285.5v951h352v-967q6 -239 223 -239q110 0 165 61t55 194v951z" />
    <glyph glyph-name="Yacute" unicode="&#xdd;" horiz-adv-x="1286" 
d="M490 1532l198 314h356l-279 -314h-275zM375 1456l268 -632l269 632h378l-468 -933v-523h-357v523l-469 933h379z" />
    <glyph glyph-name="Thorn" unicode="&#xde;" horiz-adv-x="1266" 
d="M455 278v-278h-338v1456h338v-258h211q174 -2 297.5 -60.5t187 -161.5t63.5 -238t-65 -239t-191.5 -162.5t-303.5 -58.5h-199zM455 938v-400h199q112 0 167 56.5t55 141.5q0 88 -55 145t-167 57h-199z" />
    <glyph glyph-name="germandbls" unicode="&#xdf;" horiz-adv-x="1330" 
d="M472 0h-337v1099q0 226 135 344t378 118q122 0 223 -44t160.5 -130t59.5 -206q0 -52 -8.5 -89t-20 -60.5t-31.5 -56.5l-11 -18q-24 -40 -24 -122q0 -27 17.5 -54.5t41.5 -52.5t79 -77q64 -62 101 -130t37 -153q0 -121 -54 -208t-161 -133.5t-262 -46.5q-77 0 -152.5 14
t-116.5 37l60 253q83 -44 210 -44q62 0 101 33.5t39 91.5q0 35 -17 65.5t-44 56.5t-77 67q-68 55 -104 116t-36 147q0 72 15 116t44 94l12 20q23 43 23 120q0 59 -40 97t-101 38q-67 0 -103 -47.5t-36 -161.5v-1093z" />
    <glyph glyph-name="agrave" unicode="&#xe0;" horiz-adv-x="1088" 
d="M496 1536l199 -314h-273l-282 314h356zM704 0q-19 38 -31 97q-93 -117 -260 -117q-100 0 -184 41.5t-133.5 115.5t-49.5 168q0 169 123 261.5t373 94.5h115v57q0 149 -129 149q-120 0 -120 -118h-337q0 100 59 180.5t166.5 126.5t249.5 46q131 0 232.5 -43.5
t159.5 -130.5t58 -212v-471q1 -145 46 -228v-17h-338zM594 245q43 25 63 61v175h-106q-88 0 -128 -45t-40 -113q0 -45 31 -74t79 -29q58 0 101 25z" />
    <glyph glyph-name="aacute" unicode="&#xe1;" horiz-adv-x="1088" 
d="M381 1222l198 314h356l-279 -314h-275zM704 0q-19 38 -31 97q-93 -117 -260 -117q-100 0 -184 41.5t-133.5 115.5t-49.5 168q0 169 123 261.5t373 94.5h115v57q0 149 -129 149q-120 0 -120 -118h-337q0 100 59 180.5t166.5 126.5t249.5 46q131 0 232.5 -43.5
t159.5 -130.5t58 -212v-471q1 -145 46 -228v-17h-338zM594 245q43 25 63 61v175h-106q-88 0 -128 -45t-40 -113q0 -45 31 -74t79 -29q58 0 101 25z" />
    <glyph glyph-name="acircumflex" unicode="&#xe2;" horiz-adv-x="1088" 
d="M632 1536l328 -281v-13h-265l-160 136l-158 -136h-260v17l322 277h193zM704 0q-19 38 -31 97q-93 -117 -260 -117q-100 0 -184 41.5t-133.5 115.5t-49.5 168q0 169 123 261.5t373 94.5h115v57q0 149 -129 149q-120 0 -120 -118h-337q0 100 59 180.5t166.5 126.5t249.5 46
q131 0 232.5 -43.5t159.5 -130.5t58 -212v-471q1 -145 46 -228v-17h-338zM594 245q43 25 63 61v175h-106q-88 0 -128 -45t-40 -113q0 -45 31 -74t79 -29q58 0 101 25z" />
    <glyph glyph-name="atilde" unicode="&#xe3;" horiz-adv-x="1088" 
d="M921 1527q0 -73 -29.5 -136t-82.5 -100t-119 -37q-93 0 -148 42q-56 42 -131 42q-76 0 -76 -90l-188 10q0 72 29.5 134.5t82.5 100.5t119 38q77 0 142 -41q63 -42 136 -42q34 0 56.5 23t22.5 67zM704 0q-19 38 -31 97q-93 -117 -260 -117q-100 0 -184 41.5t-133.5 115.5
t-49.5 168q0 169 123 261.5t373 94.5h115v57q0 149 -129 149q-120 0 -120 -118h-337q0 100 59 180.5t166.5 126.5t249.5 46q131 0 232.5 -43.5t159.5 -130.5t58 -212v-471q1 -145 46 -228v-17h-338zM594 245q43 25 63 61v175h-106q-88 0 -128 -45t-40 -113q0 -45 31 -74
t79 -29q58 0 101 25z" />
    <glyph glyph-name="adieresis" unicode="&#xe4;" horiz-adv-x="1088" 
d="M142.5 1432.5q20.5 30.5 55 48t75.5 17.5t75.5 -17.5t55 -48t20.5 -67.5t-20.5 -67.5t-55 -48t-75.5 -17.5t-75.5 17.5t-55 48t-20.5 67.5t20.5 67.5zM661.5 1432.5q20.5 30.5 55.5 48t75 17.5q41 0 75.5 -17.5t55 -48t20.5 -67.5t-20.5 -67.5t-55 -48t-75.5 -17.5
q-40 0 -75 17.5t-55.5 48t-20.5 67.5t20.5 67.5zM704 0q-19 38 -31 97q-93 -117 -260 -117q-100 0 -184 41.5t-133.5 115.5t-49.5 168q0 169 123 261.5t373 94.5h115v57q0 149 -129 149q-120 0 -120 -118h-337q0 100 59 180.5t166.5 126.5t249.5 46q131 0 232.5 -43.5
t159.5 -130.5t58 -212v-471q1 -145 46 -228v-17h-338zM594 245q43 25 63 61v175h-106q-88 0 -128 -45t-40 -113q0 -45 31 -74t79 -29q58 0 101 25z" />
    <glyph glyph-name="aring" unicode="&#xe5;" horiz-adv-x="1088" 
d="M342 1519.5q29 46.5 80.5 74.5t114.5 28q64 0 115.5 -27.5t80.5 -74.5t29 -101t-29 -99.5t-80.5 -72.5t-115.5 -27q-63 0 -114.5 27t-80.5 72.5t-29 99.5t29 100.5zM462 1344.5q28 -29.5 75 -29.5q48 0 76 29.5t28 74.5q0 46 -28 76t-76 30q-47 0 -75 -30.5t-28 -75.5
t28 -74.5zM704 0q-19 38 -31 97q-93 -117 -260 -117q-100 0 -184 41.5t-133.5 115.5t-49.5 168q0 169 123 261.5t373 94.5h115v57q0 149 -129 149q-120 0 -120 -118h-337q0 100 59 180.5t166.5 126.5t249.5 46q131 0 232.5 -43.5t159.5 -130.5t58 -212v-471q1 -145 46 -228
v-17h-338zM594 245q43 25 63 61v175h-106q-88 0 -128 -45t-40 -113q0 -45 31 -74t79 -29q58 0 101 25z" />
    <glyph glyph-name="ae" unicode="&#xe6;" horiz-adv-x="1730" 
d="M1651 101q-67 -51 -179 -86t-234 -35q-239 0 -379 134q-61 -59 -155.5 -96.5t-218.5 -37.5q-134 0 -229.5 42t-145 119.5t-49.5 182.5q0 158 131.5 244t382.5 87h142v46q0 141 -133 141q-70 0 -108.5 -28.5t-38.5 -73.5l-338 19q0 99 60.5 177t171.5 122t258 44
q201 0 319 -91q60 44 141.5 68t168.5 24q100 0 190.5 -33t153.5 -100q124 -131 124 -358v-177h-639q12 -91 70 -143t168 -52q89 0 150 16.5t134 50.5zM1100 791q-42 -51 -52 -145h308v26q0 170 -129 170q-85 0 -127 -51zM717 275v176h-134q-58 0 -99.5 -18t-63 -48
t-21.5 -65q0 -108 150 -108q89 0 168 63z" />
    <glyph glyph-name="ccedilla" unicode="&#xe7;" horiz-adv-x="1065" 
d="M1017 386q0 -98 -40 -178t-113 -134.5t-169 -77.5l-8 -47q64 -11 107 -52.5t43 -120.5q0 -75 -43 -131t-127 -86.5t-204 -30.5l-7 186q89 0 89 77q0 65 -135 73l27 127q-126 25 -212 100t-129 187t-43 251v23q0 159 57 283.5t171 195.5t277 71q135 0 239 -51.5
t162 -149.5t58 -233h-317q2 76 -37 125t-113 49q-66 0 -100.5 -36t-47 -103t-12.5 -174q0 -91 12 -153t47.5 -99t102.5 -37q151 0 148 146h317z" />
    <glyph glyph-name="egrave" unicode="&#xe8;" horiz-adv-x="1116" 
d="M495 1537l199 -314h-273l-282 314h356zM1045 170q-35 -50 -96.5 -93.5t-146 -70t-183.5 -26.5q-171 0 -297 70t-193 189.5t-68 262.5v41q0 161 59 287.5t177 199t286 72.5q152 0 262.5 -64.5t169.5 -184t59 -281.5v-137h-669q18 -91 79.5 -143t156.5 -52q161 0 251 112z
M458 790.5q-41 -51.5 -53 -144.5h340v26q2 170 -165 170q-81 0 -122 -51.5z" />
    <glyph glyph-name="eacute" unicode="&#xe9;" horiz-adv-x="1116" 
d="M380 1223l198 314h356l-279 -314h-275zM1045 170q-35 -50 -96.5 -93.5t-146 -70t-183.5 -26.5q-171 0 -297 70t-193 189.5t-68 262.5v41q0 161 59 287.5t177 199t286 72.5q152 0 262.5 -64.5t169.5 -184t59 -281.5v-137h-669q18 -91 79.5 -143t156.5 -52q161 0 251 112z
M458 790.5q-41 -51.5 -53 -144.5h340v26q2 170 -165 170q-81 0 -122 -51.5z" />
    <glyph glyph-name="ecircumflex" unicode="&#xea;" horiz-adv-x="1116" 
d="M631 1537l328 -281v-13h-265l-160 136l-158 -136h-260v17l322 277h193zM1045 170q-35 -50 -96.5 -93.5t-146 -70t-183.5 -26.5q-171 0 -297 70t-193 189.5t-68 262.5v41q0 161 59 287.5t177 199t286 72.5q152 0 262.5 -64.5t169.5 -184t59 -281.5v-137h-669
q18 -91 79.5 -143t156.5 -52q161 0 251 112zM458 790.5q-41 -51.5 -53 -144.5h340v26q2 170 -165 170q-81 0 -122 -51.5z" />
    <glyph glyph-name="edieresis" unicode="&#xeb;" horiz-adv-x="1116" 
d="M141.5 1433.5q20.5 30.5 55 48t75.5 17.5t75.5 -17.5t55 -48t20.5 -67.5t-20.5 -67.5t-55 -48t-75.5 -17.5t-75.5 17.5t-55 48t-20.5 67.5t20.5 67.5zM660.5 1433.5q20.5 30.5 55.5 48t75 17.5q41 0 75.5 -17.5t55 -48t20.5 -67.5t-20.5 -67.5t-55 -48t-75.5 -17.5
q-40 0 -75 17.5t-55.5 48t-20.5 67.5t20.5 67.5zM1045 170q-35 -50 -96.5 -93.5t-146 -70t-183.5 -26.5q-171 0 -297 70t-193 189.5t-68 262.5v41q0 161 59 287.5t177 199t286 72.5q152 0 262.5 -64.5t169.5 -184t59 -281.5v-137h-669q18 -91 79.5 -143t156.5 -52
q161 0 251 112zM458 790.5q-41 -51.5 -53 -144.5h340v26q2 170 -165 170q-81 0 -122 -51.5z" />
    <glyph glyph-name="igrave" unicode="&#xec;" horiz-adv-x="584" 
d="M254 1515l199 -314h-273l-282 314h356zM462 1082v-1082h-338v1082h338z" />
    <glyph glyph-name="iacute" unicode="&#xed;" horiz-adv-x="584" 
d="M139 1201l198 314h356l-279 -314h-275zM462 1082v-1082h-338v1082h338z" />
    <glyph glyph-name="icircumflex" unicode="&#xee;" horiz-adv-x="584" 
d="M390 1515l328 -281v-13h-265l-160 136l-158 -136h-260v17l322 277h193zM462 1082v-1082h-338v1082h338z" />
    <glyph glyph-name="idieresis" unicode="&#xef;" horiz-adv-x="584" 
d="M-99.5 1411.5q20.5 30.5 55 48t75.5 17.5t75.5 -17.5t55 -48t20.5 -67.5t-20.5 -67.5t-55 -48t-75.5 -17.5t-75.5 17.5t-55 48t-20.5 67.5t20.5 67.5zM419.5 1411.5q20.5 30.5 55.5 48t75 17.5q41 0 75.5 -17.5t55 -48t20.5 -67.5t-20.5 -67.5t-55 -48t-75.5 -17.5
q-40 0 -75 17.5t-55.5 48t-20.5 67.5t20.5 67.5zM462 1082v-1082h-338v1082h338z" />
    <glyph glyph-name="eth" unicode="&#xf0;" horiz-adv-x="1166" 
d="M1124 593q0 -179 -70.5 -318.5t-194 -217t-278.5 -77.5q-152 0 -269.5 64.5t-182 176t-64.5 247.5q0 149 51.5 260t153 172t248.5 61q128 0 229 -62q-49 139 -156 241l-178 -110l-78 118l136 84q-107 65 -244 103l107 244q236 -46 416 -175l162 100l77 -118l-126 -78
q125 -123 193 -289t68 -363v-63zM451 303.5q49 -63.5 134 -63.5q99 0 149.5 86t50.5 227v102q-65 65 -193 65q-96 0 -143 -66t-47 -186q0 -101 49 -164.5z" />
    <glyph glyph-name="ntilde" unicode="&#xf1;" horiz-adv-x="1156" 
d="M964 1527q0 -73 -29.5 -136t-82.5 -100t-119 -37q-92 0 -148 42q-55 42 -131 42t-76 -90l-188 10q0 72 29.5 134.5t82.5 100.5t119 38q77 0 142 -41q63 -42 136 -42q34 0 56.5 23t22.5 67zM426 765v-765h-337v1082h316l11 -126q113 146 308 146q160 0 249.5 -97.5
t90.5 -318.5v-686h-339v682q0 64 -17.5 98.5t-50.5 48t-85 13.5q-99 0 -146 -77z" />
    <glyph glyph-name="ograve" unicode="&#xf2;" horiz-adv-x="1151" 
d="M537 1536l199 -314h-273l-282 314h356zM53 551q0 160 60.5 284.5t178 195.5t282.5 71q166 0 284 -71t178.5 -195.5t60.5 -284.5v-21q0 -160 -60.5 -284.5t-178 -195t-282.5 -70.5q-164 0 -281 69t-178 190.5t-64 277.5v34zM432 317.5q42 -77.5 144 -77.5q101 0 142.5 79
t41.5 232q0 291 -186 291q-100 0 -142 -80.5t-42 -231.5q0 -135 42 -212.5z" />
    <glyph glyph-name="oacute" unicode="&#xf3;" horiz-adv-x="1151" 
d="M422 1222l198 314h356l-279 -314h-275zM53 551q0 160 60.5 284.5t178 195.5t282.5 71q166 0 284 -71t178.5 -195.5t60.5 -284.5v-21q0 -160 -60.5 -284.5t-178 -195t-282.5 -70.5q-164 0 -281 69t-178 190.5t-64 277.5v34zM432 317.5q42 -77.5 144 -77.5q101 0 142.5 79
t41.5 232q0 291 -186 291q-100 0 -142 -80.5t-42 -231.5q0 -135 42 -212.5z" />
    <glyph glyph-name="ocircumflex" unicode="&#xf4;" horiz-adv-x="1151" 
d="M673 1536l328 -281v-13h-265l-160 136l-158 -136h-260v17l322 277h193zM53 551q0 160 60.5 284.5t178 195.5t282.5 71q166 0 284 -71t178.5 -195.5t60.5 -284.5v-21q0 -160 -60.5 -284.5t-178 -195t-282.5 -70.5q-164 0 -281 69t-178 190.5t-64 277.5v34zM432 317.5
q42 -77.5 144 -77.5q101 0 142.5 79t41.5 232q0 291 -186 291q-100 0 -142 -80.5t-42 -231.5q0 -135 42 -212.5z" />
    <glyph glyph-name="otilde" unicode="&#xf5;" horiz-adv-x="1151" 
d="M962 1527q0 -73 -29.5 -136t-82.5 -100t-119 -37q-93 0 -148 42q-56 42 -131 42q-76 0 -76 -90l-188 10q0 72 29.5 134.5t82.5 100.5t119 38q77 0 142 -41q63 -42 136 -42q34 0 56.5 23t22.5 67zM53 551q0 160 60.5 284.5t178 195.5t282.5 71q166 0 284 -71t178.5 -195.5
t60.5 -284.5v-21q0 -160 -60.5 -284.5t-178 -195t-282.5 -70.5q-164 0 -281 69t-178 190.5t-64 277.5v34zM432 317.5q42 -77.5 144 -77.5q101 0 142.5 79t41.5 232q0 291 -186 291q-100 0 -142 -80.5t-42 -231.5q0 -135 42 -212.5z" />
    <glyph glyph-name="odieresis" unicode="&#xf6;" horiz-adv-x="1151" 
d="M183.5 1432.5q20.5 30.5 55 48t75.5 17.5t75.5 -17.5t55 -48t20.5 -67.5t-20.5 -67.5t-55 -48t-75.5 -17.5t-75.5 17.5t-55 48t-20.5 67.5t20.5 67.5zM702.5 1432.5q20.5 30.5 55.5 48t75 17.5q41 0 75.5 -17.5t55 -48t20.5 -67.5t-20.5 -67.5t-55 -48t-75.5 -17.5
q-40 0 -75 17.5t-55.5 48t-20.5 67.5t20.5 67.5zM53 551q0 160 60.5 284.5t178 195.5t282.5 71q166 0 284 -71t178.5 -195.5t60.5 -284.5v-21q0 -160 -60.5 -284.5t-178 -195t-282.5 -70.5q-164 0 -281 69t-178 190.5t-64 277.5v34zM432 317.5q42 -77.5 144 -77.5
q101 0 142.5 79t41.5 232q0 291 -186 291q-100 0 -142 -80.5t-42 -231.5q0 -135 42 -212.5z" />
    <glyph glyph-name="divide" unicode="&#xf7;" horiz-adv-x="1167" 
d="M417.5 1171q23.5 37 66 58t97.5 21t97 -21t65.5 -58t23.5 -85t-23.5 -85t-65.5 -58t-97 -21t-97.5 21t-66 58t-23.5 85t23.5 85zM1104 807v-244h-1044v244h1044zM417.5 362q23.5 37 66 58t97.5 21t97 -21t65.5 -58t23.5 -85t-23.5 -85t-65.5 -58t-97 -21t-97.5 21t-66 58
t-23.5 85t23.5 85z" />
    <glyph glyph-name="oslash" unicode="&#xf8;" horiz-adv-x="1152" 
d="M406 2l-72 -147h-177l105 215q-209 149 -209 481q0 160 60.5 284.5t178 195.5t282.5 71q98 0 177 -25l69 142h177l-103 -212q203 -149 203 -477q0 -160 -60.5 -284.5t-178 -195t-282.5 -70.5q-94 0 -170 22zM409 373l224 460q-27 9 -59 9q-100 0 -142 -80.5t-42 -231.5
q0 -97 19 -157zM744 698l-220 -452q24 -6 52 -6q101 0 142.5 79t41.5 232q0 87 -16 147z" />
    <glyph glyph-name="ugrave" unicode="&#xf9;" horiz-adv-x="1156" 
d="M537 1536l199 -314h-273l-282 314h356zM749 0l-10 116q-106 -136 -288 -136q-169 0 -265.5 98t-96.5 304v700h337v-702q0 -140 136 -140q119 0 165 85v757h338v-1082h-316z" />
    <glyph glyph-name="uacute" unicode="&#xfa;" horiz-adv-x="1156" 
d="M422 1222l198 314h356l-279 -314h-275zM749 0l-10 116q-106 -136 -288 -136q-169 0 -265.5 98t-96.5 304v700h337v-702q0 -140 136 -140q119 0 165 85v757h338v-1082h-316z" />
    <glyph glyph-name="ucircumflex" unicode="&#xfb;" horiz-adv-x="1156" 
d="M673 1536l328 -281v-13h-265l-160 136l-158 -136h-260v17l322 277h193zM749 0l-10 116q-106 -136 -288 -136q-169 0 -265.5 98t-96.5 304v700h337v-702q0 -140 136 -140q119 0 165 85v757h338v-1082h-316z" />
    <glyph glyph-name="udieresis" unicode="&#xfc;" horiz-adv-x="1156" 
d="M183.5 1432.5q20.5 30.5 55 48t75.5 17.5t75.5 -17.5t55 -48t20.5 -67.5t-20.5 -67.5t-55 -48t-75.5 -17.5t-75.5 17.5t-55 48t-20.5 67.5t20.5 67.5zM702.5 1432.5q20.5 30.5 55.5 48t75 17.5q41 0 75.5 -17.5t55 -48t20.5 -67.5t-20.5 -67.5t-55 -48t-75.5 -17.5
q-40 0 -75 17.5t-55.5 48t-20.5 67.5t20.5 67.5zM749 0l-10 116q-106 -136 -288 -136q-169 0 -265.5 98t-96.5 304v700h337v-702q0 -140 136 -140q119 0 165 85v757h338v-1082h-316z" />
    <glyph glyph-name="yacute" unicode="&#xfd;" horiz-adv-x="1061" 
d="M374 1222l198 314h356l-279 -314h-275zM634 -161q-22 -68 -60 -127.5t-102 -101.5q-73 -47 -195 -47l-64 3l-76 17v241h44q77 0 112.5 22.5t51.5 71.5l28 71l-378 1093h361l172 -611l179 611h362z" />
    <glyph glyph-name="thorn" unicode="&#xfe;" horiz-adv-x="1149" 
d="M434 87v-503h-339v1952h339v-538q95 104 241 104q135 0 230 -67.5t143.5 -191t48.5 -289.5v-21q0 -159 -49 -284.5t-143.5 -197t-227.5 -71.5q-147 0 -243 107zM434 759v-433q45 -86 160 -86q91 0 128.5 80.5t37.5 233.5q0 288 -168 288q-116 0 -158 -83z" />
    <glyph glyph-name="ydieresis" unicode="&#xff;" horiz-adv-x="1061" 
d="M135.5 1432.5q20.5 30.5 55 48t75.5 17.5t75.5 -17.5t55 -48t20.5 -67.5t-20.5 -67.5t-55 -48t-75.5 -17.5t-75.5 17.5t-55 48t-20.5 67.5t20.5 67.5zM654.5 1432.5q20.5 30.5 55.5 48t75 17.5q41 0 75.5 -17.5t55 -48t20.5 -67.5t-20.5 -67.5t-55 -48t-75.5 -17.5
q-40 0 -75 17.5t-55.5 48t-20.5 67.5t20.5 67.5zM634 -161q-22 -68 -60 -127.5t-102 -101.5q-73 -47 -195 -47l-64 3l-76 17v241h44q77 0 112.5 22.5t51.5 71.5l28 71l-378 1093h361l172 -611l179 611h362z" />
    <glyph glyph-name="dotlessi" unicode="&#x131;" horiz-adv-x="584" 
d="M462 1082v-1082h-338v1082h338z" />
    <glyph glyph-name="OE" unicode="&#x152;" horiz-adv-x="1995" 
d="M1918 270v-270h-908q-171 -20 -288 -20q-184 0 -327 75.5t-222.5 210.5t-79.5 310v304q0 175 79 310.5t221.5 210.5t326.5 75q119 0 290 -20h911v-271h-654v-307h551v-261h-551v-347h651zM430 576q0 -165 77.5 -250.5t214.5 -85.5q95 0 194 12v951q-97 13 -196 13
q-137 0 -213.5 -84.5t-76.5 -249.5v-306z" />
    <glyph glyph-name="oe" unicode="&#x153;" horiz-adv-x="1845" 
d="M1744 101q-69 -52 -182 -86.5t-243 -34.5q-216 0 -359 128q-137 -128 -360 -128q-166 0 -284 70.5t-179 195t-61 284.5v21q0 160 60.5 284.5t178.5 195.5t283 71q220 0 357 -124q130 126 340 124q146 0 252 -59.5t162 -170t56 -260.5v-177h-626q17 -87 74.5 -141
t151.5 -54q68 0 117.5 8t86.5 21t95 38zM455.5 317.5q42.5 -77.5 144.5 -77.5q101 0 143 79t42 232q0 291 -187 291q-100 0 -142.5 -80.5t-42.5 -231.5q0 -135 42.5 -212.5zM1185 790q-37 -52 -48 -144h298v26q0 170 -140 170q-73 0 -110 -52z" />
    <glyph glyph-name="circumflex" unicode="&#x2c6;" horiz-adv-x="1034" 
d="M613 1536l328 -281v-13h-265l-160 136l-158 -136h-260v17l322 277h193z" />
    <glyph glyph-name="ring" unicode="&#x2da;" horiz-adv-x="675" 
d="M148 1394.5q29 46.5 80.5 74.5t114.5 28q64 0 115.5 -27.5t80.5 -74.5t29 -101t-29 -99.5t-80.5 -72.5t-115.5 -27q-63 0 -114.5 27t-80.5 72.5t-29 99.5t29 100.5zM268 1219.5q28 -29.5 75 -29.5q48 0 76 29.5t28 74.5q0 46 -28 76t-76 30q-47 0 -75 -30.5t-28 -75.5
t28 -74.5z" />
    <glyph glyph-name="tilde" unicode="&#x2dc;" horiz-adv-x="988" 
d="M886 1532q0 -73 -29.5 -136t-82.5 -100t-119 -37q-93 0 -148 42q-56 42 -131 42q-76 0 -76 -90l-188 10q0 72 29.5 134.5t82.5 100.5t119 38q77 0 142 -41q63 -42 136 -42q34 0 56.5 23t22.5 67z" />
    <glyph glyph-name="uni0531" unicode="&#x531;" horiz-adv-x="1571" 
d="M116 1536h352v-1047q6 -239 223 -239q110 0 165 61t55 194v1031h351v-980l225 -178v-411l-303 240q-70 -111 -196.5 -169t-296.5 -58q-173 0 -302.5 60.5t-201 179t-71.5 285.5v1031z" />
    <glyph glyph-name="uni0532" unicode="&#x532;" horiz-adv-x="1364" 
d="M116 1031q0 167 71.5 285.5t201 179t302.5 60.5t302 -60.5t199 -178.5t70 -286v-145h-351v145q0 133 -55 194t-165 61q-217 0 -223 -239v-422h848v-261h-848v-364h-352v1031z" />
    <glyph glyph-name="uni0533" unicode="&#x533;" horiz-adv-x="1529" 
d="M46 1012q0 165 76.5 288.5t213 189.5t313.5 66q172 0 306.5 -63t211.5 -180.5t83 -276.5v-320h289v-261h-289v-455h-351v484q-122 -62 -250 -62q-177 0 -314 66t-213 189t-76 289v46zM427 825.5q30 -61.5 87.5 -95t135.5 -33.5q118 0 183.5 65t65.5 176v98
q0 75 -31 130.5t-87.5 85t-130.5 29.5q-123 0 -188 -72.5t-65 -201.5v-38q0 -82 30 -143.5z" />
    <glyph glyph-name="uni0534" unicode="&#x534;" horiz-adv-x="1530" 
d="M106 1031q0 168 70 286t199 178.5t302 60.5t302.5 -60.5t201 -179t71.5 -285.5v-315h288v-261h-288v-455h-352v1047q-6 239 -223 239q-110 0 -165 -61t-55 -194v-375h-351v375z" />
    <glyph glyph-name="uni0535" unicode="&#x535;" horiz-adv-x="1364" 
d="M116 1536h352v-364h848v-261h-848v-422q6 -239 223 -239q110 0 165 61t55 194v145h351v-145q0 -168 -70 -286t-199 -178.5t-302 -60.5t-302.5 60.5t-201 179t-71.5 285.5v1031z" />
    <glyph glyph-name="uni0536" unicode="&#x536;" horiz-adv-x="1437" 
d="M110 599h351v-169h34q97 32 197 85t194 177.5t94 319.5q0 135 -63 204.5t-180 69.5q-119 0 -179.5 -62t-60.5 -195v-123h-351v125q0 167 73 285.5t206 179t312 60.5q177 0 311.5 -66t209 -192.5t74.5 -303.5q0 -249 -118.5 -376.5t-239.5 -187.5h15q126 0 218 -53.5
t141 -150t49 -224.5v-2h-351q0 78 -43 123.5t-110 45.5h-432v-169h-351v599z" />
    <glyph glyph-name="uni0537" unicode="&#x537;" horiz-adv-x="1269" 
d="M130 1536h351v-364h740v-261h-740v-650h131q150 0 268.5 -56.5t185 -157t66.5 -226.5h-351q0 52 -28.5 92.5t-83.5 63.5t-132 23h-407v1536z" />
    <glyph glyph-name="uni0538" unicode="&#x538;" horiz-adv-x="1364" 
d="M116 1031q0 167 71.5 285.5t201 179t302.5 60.5t302 -60.5t199 -178.5t70 -286v-375h-351v375q0 133 -55 194t-165 61q-217 0 -223 -239v-786h848v-261h-1200v1031z" />
    <glyph glyph-name="uni0539" unicode="&#x539;" horiz-adv-x="1897" 
d="M116 961q0 166 84 301t258 214.5t431 79.5q249 0 423.5 -80t262 -215t87.5 -300v-32h187v-270h-187v-218q0 -232 -121 -346.5t-372 -114.5q-164 0 -278.5 63t-172 171t-57.5 242v26q0 219 130 333t378 114h141v32q0 93 -57 167t-153.5 116t-210.5 42q-123 0 -218.5 -40.5
t-149 -111t-53.5 -157.5v-977h-352v961zM1053.5 313q40.5 -51 115.5 -51t108 41.5t33 137.5v218h-141q-76 0 -116 -50.5t-40 -148.5q0 -96 40.5 -147z" />
    <glyph glyph-name="uni053A" unicode="&#x53a;" horiz-adv-x="1526" 
d="M1478 911h-287v-368q0 -285 -137 -424t-429 -139q-176 0 -311 72t-209.5 203t-74.5 304v33q0 173 74.5 304.5t209.5 203.5t311 72h213v364h353v-364h287v-261zM838 911h-213q-238 0 -238 -331q0 -171 55 -250.5t183 -79.5q82 0 128 29t65.5 92t19.5 172v368z" />
    <glyph glyph-name="uni053B" unicode="&#x53b;" horiz-adv-x="1366" 
d="M130 1536h351v-363q108 53 220 53q173 0 302.5 -60.5t201 -179t71.5 -285.5v-337h-352v353q-6 239 -223 239q-106 0 -163 -79t-57 -216v-661h-351v1536z" />
    <glyph glyph-name="uni053C" unicode="&#x53c;" horiz-adv-x="1082" 
d="M920.5 204.5q118.5 -56.5 185 -157t66.5 -226.5h-351q0 52 -28.5 92.5t-83.5 63.5t-132 23h-447v1536h351v-1275h171q150 0 268.5 -56.5z" />
    <glyph glyph-name="uni053D" unicode="&#x53d;" horiz-adv-x="1912" 
d="M1796 1172v-668q0 -166 -66.5 -284.5t-185 -179t-271.5 -60.5q-152 0 -271.5 61t-187.5 179t-68 284v407h-264v-911h-352v1536h352v-364h617v-684q3 -124 42.5 -181.5t131.5 -57.5q63 0 100.5 26t54 81.5t16.5 147.5v668h352z" />
    <glyph glyph-name="uni053E" unicode="&#x53e;" horiz-adv-x="1642" 
d="M1652 1096h-260q111 -166 111 -400v-55q0 -201 -80.5 -350.5t-224 -230t-327.5 -80.5q-187 0 -331 80.5t-224 230t-80 350.5v55q0 123 31 229t90 188q-105 26 -181 86t-116 146.5t-40 190.5h351q0 -83 51 -131t163 -48h244q13 1 40 1t40 -1h743v-261zM1145 692
q0 368 -281 368q-132 0 -204.5 -82t-73.5 -241l-1 -96q-2 -179 70 -274t211 -95q133 0 206 95t73 270v55z" />
    <glyph glyph-name="uni053F" unicode="&#x53f;" horiz-adv-x="1368" 
d="M1262 1080v-1080h-351v362q-106 -52 -220 -52q-173 0 -302.5 60.5t-201 179t-71.5 285.5v701h352v-717q6 -239 223 -239q107 0 163.5 74.5t56.5 210.5v215h351z" />
    <glyph glyph-name="uni0540" unicode="&#x540;" horiz-adv-x="1297" 
d="M86 1536h511q175 0 301.5 -51.5t194.5 -151t68 -239.5q0 -115 -46 -189t-156 -115q123 -31 182.5 -118.5t59.5 -204.5v-467h-358v447q0 101 -61.5 156t-184.5 55h-461v271h461q108 0 158.5 42t50.5 126t-50.5 126t-158.5 42h-511v271z" />
    <glyph glyph-name="uni0541" unicode="&#x541;" horiz-adv-x="1459" 
d="M1372 277q27 -25 64 -56l-203 -265q-113 119 -196 196q-100 -81 -223 -126.5t-269 -45.5q-137 0 -247 38.5t-176 122.5t-66 214q0 131 66 217t176.5 126t246.5 40q186 0 410 -137q66 138 66 286v29q0 99 -28.5 182.5t-92.5 135.5t-164 52q-91 0 -153 -34t-92.5 -92
t-30.5 -131v-43h-350v45q0 158 78.5 277t221.5 183.5t329 64.5q200 0 344.5 -89.5t219 -238t74.5 -322.5v-29q0 -112 -35 -240t-104 -245q59 -50 134 -115zM659 284q62 29 121 82q-143 97 -235 97q-72 0 -107.5 -27t-35.5 -76q0 -50 35.5 -77.5t107.5 -27.5q52 0 114 29z
" />
    <glyph glyph-name="uni0542" unicode="&#x542;" horiz-adv-x="1540" 
d="M1540 261v-261h-640v1047q-6 239 -223 239q-110 0 -165 -61t-55 -194v-375h-351v375q0 168 70 286t199 178.5t302 60.5t302.5 -60.5t201 -179t71.5 -285.5v-770h288z" />
    <glyph glyph-name="uni0543" unicode="&#x543;" horiz-adv-x="1514" 
d="M1135 1004.5q137 -77.5 215 -212.5t78 -300v-492h-1238v575q0 137 16 246h-216v261h280q92 241 277 357.5t436 116.5q102 0 195.5 -10t159 -21.5t65.5 -12.5l-20 -277q0 1 -50.5 12.5t-131.5 21.5t-181 10q-128 0 -223 -46.5t-155 -150.5h186q170 0 307 -77.5zM1076 261
v152q0 147 -39 235.5t-127.5 130.5t-241.5 42h-109q-17 -113 -17 -251v-309h534z" />
    <glyph glyph-name="uni0544" unicode="&#x544;" horiz-adv-x="1570" 
d="M1550 1275h-288v-770q0 -168 -70 -286t-199 -178.5t-302 -60.5t-302.5 60.5t-201 179t-71.5 285.5v1031h352v-1047q6 -239 223 -239q110 0 165 61t55 194v770h-1v261h640v-261z" />
    <glyph glyph-name="uni0545" unicode="&#x545;" horiz-adv-x="1405" 
d="M90 659v270h656q89 0 146 47t57 131q0 85 -60.5 132t-163.5 47q-67 0 -117.5 -20t-78 -56t-27.5 -81h-350q0 128 73 225t203.5 149.5t296.5 52.5q165 0 295.5 -53.5t205 -153.5t74.5 -235q0 -114 -54 -196.5t-156 -118.5q116 -37 182.5 -130t66.5 -225q0 -153 -77.5 -257
t-215.5 -155.5t-321 -51.5q-173 0 -312.5 57t-220.5 166t-81 257h352q0 -60 31.5 -108t91 -75.5t139.5 -27.5q262 0 262 201q0 64 -34 111.5t-91.5 72.5t-125.5 25h-646z" />
    <glyph glyph-name="uni0546" unicode="&#x546;" horiz-adv-x="1560" 
d="M1454 880v-375q0 -168 -70 -286t-199 -178.5t-302 -60.5t-302.5 60.5t-201 179t-71.5 285.5v770h-288v261h640v-1047q6 -239 223 -239q110 0 165 61t55 194v375h351z" />
    <glyph glyph-name="uni0547" unicode="&#x547;" horiz-adv-x="1328" 
d="M1262 551v-46q0 -167 -73 -285.5t-206 -179t-312 -60.5q-177 0 -314.5 71.5t-214 204t-76.5 309.5v53q0 193 109 317.5t266 195.5l-238 105v320l1049 -463v-320l-524 231q-133 -44 -218 -142t-91 -265l-1 -50q0 -90 31 -156t88 -101.5t134 -35.5q119 0 179.5 60t60.5 193
v44h351z" />
    <glyph glyph-name="uni0548" unicode="&#x548;" horiz-adv-x="1378" 
d="M856 1225q-55 61 -165 61q-217 0 -223 -239v-1047h-352v1031q0 167 71.5 285.5t201 179t302.5 60.5t302 -60.5t199 -178.5t70 -286v-1031h-351v1031q0 133 -55 194z" />
    <glyph glyph-name="uni0549" unicode="&#x549;" horiz-adv-x="1328" 
d="M1139.5 605.5q-122.5 -148.5 -276.5 -221.5l249 -111v-321l-1036 461v321l465 -207q158 49 263.5 167t105.5 335q0 132 -66 194.5t-187 62.5q-119 0 -179.5 -62t-60.5 -195v-23h-351v25q0 167 73 285.5t206 179t312 60.5t315.5 -62t213 -184.5t76.5 -298.5
q0 -257 -122.5 -405.5z" />
    <glyph glyph-name="uni054A" unicode="&#x54a;" horiz-adv-x="1768" 
d="M1303 1479q174 -77 261.5 -212t87.5 -306v-961h-352v977q0 101 -67 175t-178 108v-807h-352v808q-114 -35 -179.5 -112.5t-65.5 -187.5v-203h-352v203q0 173 83.5 307t257 211t432.5 77q250 0 424 -77z" />
    <glyph glyph-name="uni054B" unicode="&#x54b;" horiz-adv-x="1437" 
d="M1230.5 362q80.5 -56 123.5 -148.5t43 -211.5l-351 -2q0 78 -43 123.5t-110 45.5h-432v-169h-351v579h351v-149h21q6 2 45 12t90 31h-1q4 2 10 11.5t6 22.5q0 31 -45 70t-160 83q-73 28 -139 81t-108 130t-42 170q0 163 73 279t206 176t311 60q179 0 317 -64.5
t215.5 -189.5t77.5 -301q0 -173 -60 -295.5t-121 -180.5t-119 -97q112 -10 192.5 -66zM545 926q56 -50 150 -87q74 -29 121 -59t80 -86q90 141 90 335q0 80 -31.5 138t-90 88.5t-135.5 30.5q-75 0 -129.5 -29t-82.5 -80.5t-28 -117.5q0 -83 56 -133z" />
    <glyph glyph-name="uni054C" unicode="&#x54c;" horiz-adv-x="1540" 
d="M1550 455h-288v-455h-351v455h-1v261h1v315q0 133 -55 194t-165 61q-217 0 -223 -239v-1047h-352v1031q0 167 71.5 285.5t201 179t302.5 60.5t302 -60.5t199 -178.5t70 -286v-315h288v-261z" />
    <glyph glyph-name="uni054D" unicode="&#x54d;" horiz-adv-x="1378" 
d="M911 1536h351v-1031q0 -168 -70 -286t-199 -178.5t-302 -60.5t-302.5 60.5t-201 179t-71.5 285.5v1031h352v-1047q6 -239 223 -239q110 0 165 61t55 194v1031z" />
    <glyph glyph-name="uni054E" unicode="&#x54e;" horiz-adv-x="1504" 
d="M1504 261v-261h-640v261h1v101q-106 -52 -220 -52q-173 0 -302.5 60.5t-201 179t-71.5 285.5v317h352v-333q6 -239 223 -239q107 0 163.5 74.5t56.5 210.5v671h351v-1275h288z" />
    <glyph glyph-name="uni054F" unicode="&#x54f;" horiz-adv-x="1326" 
d="M426 492q0 -120 64 -184t174 -64q227 0 227 183q0 52 -22 91t-75.5 71t-148.5 61q-186 58 -295.5 115t-166.5 143t-57 219q0 136 72.5 233t197.5 146.5t282 49.5q156 0 281.5 -55.5t198 -162t72.5 -253.5h-349q0 99 -51 152.5t-155 53.5q-92 0 -145.5 -45.5t-53.5 -118.5
q0 -56 35 -93t93.5 -61t160.5 -53q163 -47 266.5 -108t157 -154t53.5 -229q0 -139 -72 -240.5t-202.5 -155t-303.5 -53.5q-174 0 -307.5 60.5t-208 176t-74.5 275.5h352z" />
    <glyph glyph-name="uni0550" unicode="&#x550;" horiz-adv-x="1368" 
d="M856 1225q-55 61 -165 61q-217 0 -223 -239v-1047h-352v1031q0 167 71.5 285.5t201 179t302.5 60.5t302 -60.5t199 -178.5t70 -286v-375h-351v375q0 133 -55 194z" />
    <glyph glyph-name="uni0551" unicode="&#x551;" horiz-adv-x="1405" 
d="M90 929h238q-48 34 -73.5 90.5t-25.5 129.5q0 195 126 301t368 106q244 0 369 -109.5t125 -317.5q0 -103 -46 -186t-121 -129q80 -24 146.5 -80.5t104.5 -133.5t38 -160q0 -153 -76.5 -256t-214.5 -153.5t-325 -50.5q-184 0 -323 57t-216 165t-77 258h352q0 -99 68 -155
t196 -56q133 0 198.5 48.5t65.5 152.5q0 99 -70 154t-194 55h-633v270zM723 924q92 0 133.5 48t41.5 138q0 190 -175 190q-92 0 -133.5 -49t-41.5 -141q0 -186 175 -186z" />
    <glyph glyph-name="uni0552" unicode="&#x552;" horiz-adv-x="730" 
d="M740 638h-288v-638h-352v1536h352v-637h288v-261z" />
    <glyph glyph-name="uni0553" unicode="&#x553;" horiz-adv-x="1705" 
d="M1031 184v-184h-352v184h-9q-187 0 -329.5 68.5t-221.5 198t-79 306.5q0 184 79.5 318.5t222.5 205.5t331 71h6v184h352v-184q201 0 343.5 -70t216.5 -203.5t74 -319.5q0 -177 -78 -307t-218.5 -199t-324.5 -69h-13zM679 1070h-6q-143 0 -222.5 -75t-79.5 -238
q0 -153 78.5 -222t229.5 -69v604zM1031 1070v-604h8q138 0 216.5 71.5t78.5 221.5q0 162 -78 236.5t-217 74.5h-8z" />
    <glyph glyph-name="uni0554" unicode="&#x554;" horiz-adv-x="1456" 
d="M1408 154h-883v-154h-351v154h-194v261h194v645q0 151 76 263.5t212 172.5t313 60t313.5 -60.5t213 -172.5t76.5 -263v-41q0 -151 -76 -263t-213 -172.5t-314 -60.5q-131 0 -250 57v-165h883v-261zM524 1036h1v-39q8 -93 70.5 -146t178.5 -53q78 0 135.5 28t87.5 79
t30 118v32q0 106 -65 166t-188 60q-118 0 -184 -60.5t-66 -165.5v-19z" />
    <glyph glyph-name="uni0555" unicode="&#x555;" horiz-adv-x="1413" 
d="M1343 737q0 -230 -80.5 -401.5t-224.5 -263.5t-330 -92q-187 0 -332 92t-225.5 263t-80.5 402v61q0 231 80.5 402.5t224.5 263.5t331 92q186 0 330.5 -92t225.5 -264t81 -402v-61zM987 802q0 479 -281 479q-132 0 -203 -121t-75 -358l-1 -70q-2 -232 69.5 -354.5
t211.5 -122.5q133 0 206 123.5t73 353.5v70z" />
    <glyph glyph-name="uni0556" unicode="&#x556;" horiz-adv-x="1640" 
d="M1320.5 928.5q140.5 -60.5 219 -171t78.5 -255.5v-35q0 -148 -91.5 -257.5t-268 -169.5t-426.5 -60q-255 0 -432 64.5t-267.5 182.5t-90.5 279h355v-8q0 -83 39.5 -135.5t100 -75.5t125.5 -23v454q-169 0 -291.5 49.5t-187.5 141.5t-65 218t65 218t187.5 141.5
t291.5 49.5h338v-547h2q178 0 318.5 -60.5zM517.5 1022.5q44.5 -33.5 144.5 -33.5v276q-100 0 -144.5 -33.5t-44.5 -104.5t44.5 -104.5zM1263 503q0 107 -69.5 161t-191.5 54h-2v-454h2q122 0 191.5 54t69.5 161v24z" />
    <glyph glyph-name="uni0559" unicode="&#x559;" horiz-adv-x="600" 
d="M350 1608q0 -87 22.5 -154.5t62.5 -138.5l-148 -80q-48 43 -90 105.5t-67.5 132.5t-25.5 134v164h246v-163z" />
    <glyph glyph-name="uni055A" unicode="&#x55a;" horiz-adv-x="498" 
d="M397 1772v-164q0 -64 -25.5 -134t-67.5 -132.5t-90 -105.5l-148 80q40 71 62.5 138.5t22.5 154.5v163h246z" />
    <glyph glyph-name="uni055B" unicode="&#x55b;" horiz-adv-x="174" 
d="M74 1772l-312 -497h-277l232 497h357z" />
    <glyph glyph-name="uni055C" unicode="&#x55c;" horiz-adv-x="185" 
d="M-515 1311q0 48 19 109t58.5 113t97.5 71q75 25 100 68.5t25 113.5v9h300v-25q0 -77 -8 -130.5t-40 -99.5t-100 -67q-56 -17 -92.5 -52.5t-53 -77t-16.5 -80.5v-9h-290v57z" />
    <glyph glyph-name="uni055D" unicode="&#x55d;" horiz-adv-x="359" 
d="M359 1275h-277l-312 497h357z" />
    <glyph glyph-name="uni055E" unicode="&#x55e;" horiz-adv-x="371" 
d="M-38 1547.5q29 27.5 29 70.5t-23.5 68t-74.5 25q-34 0 -66.5 -23.5t-53.5 -71.5t-21 -118v-243h-267v256q0 140 58.5 238t152 147.5t197.5 49.5q103 0 189 -35t137.5 -105t51.5 -170q0 -87 -40 -164t-129 -126t-226 -49v223q57 0 86 27.5z" />
    <glyph glyph-name="uni055F" unicode="&#x55f;" horiz-adv-x="805" 
d="M193.5 1352q-97.5 53 -135.5 126.5t-38 142.5q0 74 36.5 147.5t117 123t204.5 49.5h78v-234h-21q-50 0 -80.5 -22t-30.5 -57q0 -44 35.5 -70.5t96.5 -26.5h339v-232h-339q-165 0 -262.5 53z" />
    <glyph glyph-name="uni0561" unicode="&#x561;" horiz-adv-x="1775" 
d="M1330 329v753h337v-1082h-316l-12 127q-112 -147 -308 -147q-202 0 -277 163q-109 -163 -317 -163q-337 0 -338 416v686h338v-681q0 -65 15 -100t42.5 -48t71.5 -13q100 0 150 89l-1 753h337v-679q0 -66 15 -101.5t43 -48.5t73 -13q94 0 147 89z" />
    <glyph glyph-name="uni0562" unicode="&#x562;" horiz-adv-x="1182" 
d="M1152 0h-707v-416h-337v1498h316l11 -126q113 146 308 146q160 0 249.5 -97.5t90.5 -318.5v-235h-339v231q0 64 -17.5 98.5t-50.5 48t-85 13.5q-99 0 -146 -77v-531h707v-234z" />
    <glyph glyph-name="uni0563" unicode="&#x563;" horiz-adv-x="1300" 
d="M1290 0h-224v-416h-339v506q-95 -110 -246 -110q-132 0 -226.5 70.5t-143 194.5t-48.5 282v25q0 166 48.5 290t143 192t228.5 68q167 0 267 -136l24 116h292v-848h224v-234zM727 327v429q-42 86 -158 86q-92 0 -130.5 -78t-38.5 -233q0 -291 167 -291q117 0 160 87z" />
    <glyph glyph-name="uni0564" unicode="&#x564;" horiz-adv-x="1317" 
d="M1307 0h-224v-416h-339v1098q0 64 -17.5 98.5t-50.5 48t-85 13.5q-99 0 -146 -77v-765h-337v1082h316l11 -126q113 146 308 146q160 0 249.5 -97.5t90.5 -318.5v-452h224v-234z" />
    <glyph glyph-name="uni0565" unicode="&#x565;" horiz-adv-x="1173" 
d="M436 848v-468q0 -140 136 -140q119 0 165 85v306h338v-631h-316l-10 116q-106 -136 -288 -136q-169 0 -265.5 98t-96.5 304v1154h337v-454h707v-234h-707z" />
    <glyph glyph-name="uni0566" unicode="&#x566;" horiz-adv-x="1200" 
d="M1290 -182v-234h-563v506q-95 -110 -246 -110q-132 0 -226.5 70.5t-143 194.5t-48.5 282v25q0 166 48.5 290t143 192t228.5 68q167 0 267 -136l24 116h292v-1264h224zM727 327v429q-42 86 -158 86q-92 0 -130.5 -78t-38.5 -233q0 -291 167 -291q117 0 160 87z" />
    <glyph glyph-name="uni0567" unicode="&#x567;" horiz-adv-x="1052" 
d="M445 848v-614h34q181 0 286 -77t105 -237q0 -158 -114 -234.5t-331 -76.5v234q51 0 79.5 20.5t28.5 58.5t-28 58t-80 20h-317v1536h337v-454h577v-234h-577z" />
    <glyph glyph-name="uni0568" unicode="&#x568;" horiz-adv-x="1182" 
d="M1152 -182v-234h-1044v1498h316l11 -126q113 146 308 146q160 0 249.5 -97.5t90.5 -318.5v-686h-339v682q0 64 -17.5 98.5t-50.5 48t-85 13.5q-99 0 -146 -77v-947h707z" />
    <glyph glyph-name="uni0569" unicode="&#x569;" horiz-adv-x="1547" 
d="M1517 478h-134v-133q0 -186 -104 -275.5t-310 -89.5q-135 0 -233 44t-149.5 123t-51.5 182v24q0 105 49 186.5t144.5 127.5t229.5 46h78q-22 79 -95.5 114t-172.5 35q-76 0 -144.5 -13.5t-115.5 -35.5t-63 -48v-1181h-337v1498h316l11 -126q67 78 175.5 112t259.5 34
q123 0 234 -46.5t185.5 -134.5t89.5 -208h4v-1h134v-234zM1027 233.5q16 32.5 16 105.5v139h-49v1h-30q-91 0 -91 -144q0 -134 95 -134q43 0 59 32.5z" />
    <glyph glyph-name="uni056A" unicode="&#x56a;" horiz-adv-x="1296" 
d="M1286 848h-229v-328q0 -278 -126 -409t-381 -131q-157 0 -274 67t-180 186.5t-63 273.5v34q0 159 62.5 281.5t181.5 191t283 68.5h160v454h337v-454h229v-234zM720 848h-160q-98 0 -144 -89t-46 -239q0 -130 44 -205t136 -75q66 0 103 31t51.5 91.5t15.5 157.5v328z" />
    <glyph glyph-name="uni056B" unicode="&#x56b;" horiz-adv-x="1183" 
d="M445 777v-1193h-337v1952h337v-569q110 135 276 135q170 0 266 -101.5t97 -323.5v-677h-339v674q0 94 -38 131t-116 37q-102 0 -146 -65z" />
    <glyph glyph-name="uni056C" unicode="&#x56c;" horiz-adv-x="581" 
d="M671 -182v-234h-563v1498h337v-1264h226z" />
    <glyph glyph-name="uni056D" unicode="&#x56d;" horiz-adv-x="1781" 
d="M1673 1082v-1082h-316l-10 116q-106 -136 -288 -136q-169 0 -265.5 98t-96.5 304v466h-252v-1264h-337v1952h337v-454h589v-702q0 -140 136 -140q119 0 165 85v757h338z" />
    <glyph glyph-name="uni056E" unicode="&#x56e;" horiz-adv-x="1198" 
d="M1001 848q75 -131 76 -304v-14q0 -266 -134 -408t-387 -142q-164 0 -282 69t-179.5 190.5t-61.5 277.5v34q0 195 89 328.5t257 180.5q-68 68 -105 135t-37 146q0 52 6 95.5t12 68.5t8 31h337q-2 -5 -9 -26.5t-13 -60.5t-6 -89q0 -57 27 -103t64.5 -80t115.5 -95h359v-234
h-137zM703.5 705q-35.5 74 -99.5 143h-49h-1q-100 0 -142 -83t-42 -235q0 -135 42 -212.5t144 -77.5q70 0 109.5 29t56.5 93.5t18 178.5q-1 90 -36.5 164z" />
    <glyph glyph-name="uni056F" unicode="&#x56f;" horiz-adv-x="1183" 
d="M737 -416v532q-44 -68 -114 -102t-162 -34q-169 0 -265.5 98t-96.5 304v1154h337v-1156q0 -140 136 -140q119 0 165 85v757h338v-1498h-338z" />
    <glyph glyph-name="uni0570" unicode="&#x570;" horiz-adv-x="1183" 
d="M445 777v-777h-337v1536h337v-569q110 135 276 135q170 0 266 -101.5t97 -323.5v-677h-339v674q0 94 -38 131t-116 37q-102 0 -146 -65z" />
    <glyph glyph-name="uni0571" unicode="&#x571;" horiz-adv-x="1145" 
d="M915 894q66 -78 102.5 -176.5t37.5 -205.5v-512h-324l-12 126v1q-39 -52 -73.5 -82.5t-83 -47.5t-120.5 -17q-108 0 -200 59t-147 164.5t-55 239.5q0 26 1 38q3 115 36 207t118.5 187.5t241.5 202.5l140 91h-122q-146 0 -223 77t-77 223v64h337q0 -63 33.5 -96.5
t96.5 -33.5h202q42 0 74 -19t49 -49t17 -62v-9q0 -102 -97 -169q-16 -12 -24 -17q-15 -11 -36 -25.5t-47 -34.5q89 -46 155 -124zM719 472q-3 110 -52.5 208t-132.5 141q-79 -86 -115 -167t-41 -173q-1 -13 -1 -40q0 -60 22 -105.5t60 -70t84 -24.5q71 0 112 23.5t64 69.5
v138z" />
    <glyph glyph-name="uni0572" unicode="&#x572;" horiz-adv-x="1217" 
d="M1307 -182v-234h-563v1098q0 64 -17.5 98.5t-50.5 48t-85 13.5q-99 0 -146 -77v-765h-337v1082h316l11 -126q113 146 308 146q160 0 249.5 -97.5t90.5 -318.5v-868h224z" />
    <glyph glyph-name="uni0573" unicode="&#x573;" horiz-adv-x="1241" 
d="M931 1016.5q116 -65.5 178 -181.5t62 -263v-572h-325l-12 126q-48 -68 -127 -107t-170 -39q-112 0 -206.5 45t-151.5 138t-57 229q0 261 32 456h-124v234h182q82 238 246 356.5t424 118.5q69 0 125.5 -8t92.5 -17t36 -10l-20 -244q0 1 -30 8.5t-80.5 13.5t-115.5 6
q-119 0 -202.5 -47.5t-137.5 -176.5h111q154 0 270 -65.5zM834 532q0 91 -36 163t-103 112.5t-157 40.5h-50q-29 -183 -29 -458q0 -45 25 -79t66.5 -52.5t87.5 -18.5q67 0 120 27.5t76 73.5v191z" />
    <glyph glyph-name="uni0574" unicode="&#x574;" horiz-adv-x="1210" 
d="M1300 1302h-225v-1302h-316l-10 116q-106 -136 -288 -136q-169 0 -265.5 98t-96.5 304v700h337v-702q0 -140 136 -140q119 0 165 85v1211h563v-234z" />
    <glyph glyph-name="uni0575" unicode="&#x575;" horiz-adv-x="610" 
d="M177 1082h338v-1117q0 -128 -50 -218.5t-143 -137t-222 -46.5q-81 0 -160 17v255q55 -9 96 -9q141 0 141 139v1117z" />
    <glyph glyph-name="uni0576" unicode="&#x576;" horiz-adv-x="1230" 
d="M1122 1082v-1082h-316l-10 116q-106 -136 -288 -136q-169 0 -265.5 98t-96.5 304v920h-226v234h563v-1156q0 -140 136 -140q119 0 165 85v757h338z" />
    <glyph glyph-name="uni0577" unicode="&#x577;" horiz-adv-x="1164" 
d="M437.5 -157q35.5 -26 89.5 -26h570v-233h-570q-199 0 -333 71.5t-134 261.5q0 114 46 191.5t113.5 124.5t182.5 108q59 31 70 37l55 29q79 41 126.5 72.5t80.5 78t33 108.5q0 85 -43.5 130.5t-112.5 45.5q-68 0 -110.5 -45t-42.5 -130l1 -34h-337v55q0 117 62.5 211.5
t174 148.5t252.5 54q153 0 265 -55.5t170 -150t58 -208.5q0 -150 -56.5 -249.5t-134.5 -156.5t-201 -121l-62 -33q-16 -9 -52 -27q-64 -33 -102.5 -57t-66 -56t-27.5 -71q0 -48 35.5 -74z" />
    <glyph glyph-name="uni0578" unicode="&#x578;" horiz-adv-x="1182" 
d="M445 765v-765h-337v1082h316l11 -126q113 146 308 146q160 0 249.5 -97.5t90.5 -318.5v-686h-339v682q0 64 -17.5 98.5t-50.5 48t-85 13.5q-99 0 -146 -77z" />
    <glyph glyph-name="uni0579" unicode="&#x579;" horiz-adv-x="937" 
d="M89.5 57q44.5 73 108 136.5t169.5 155.5l82 73q15 14 15 32q0 17 -14 31q-30 28 -83 71q-67 56 -103.5 92t-60 80t-23.5 98q0 65 40 135.5t101 120.5h338l-31 -36q-47 -52 -71 -88t-24 -71q0 -37 16.5 -66.5t43 -53t77.5 -62.5q7 -5 38 -29t60 -50q36 -32 54 -70.5
t18 -80.5q0 -46 -21.5 -91.5t-61.5 -85.5q-67 -66 -167 -158q-115 -107 -162 -158t-47 -82q0 -42 31 -62.5t85 -20.5h410v-233h-463q-164 0 -288 69.5t-115 252.5q4 78 48.5 151z" />
    <glyph glyph-name="uni057A" unicode="&#x57a;" horiz-adv-x="1775" 
d="M1330 329v753h337v-1498h-337v543q-49 -73 -124.5 -110t-174.5 -37q-202 0 -277 163q-109 -163 -317 -163q-337 0 -338 416v686h338v-681q0 -65 15 -100t42.5 -48t71.5 -13q100 0 150 89l-1 753h337v-679q0 -66 15 -101.5t43 -48.5t73 -13q94 0 147 89z" />
    <glyph glyph-name="uni057B" unicode="&#x57b;" horiz-adv-x="1152" 
d="M113.5 68.5q53.5 72.5 143.5 129.5q50 29 50 56q0 18 -15.5 37t-49.5 50q-46 43 -78 80.5t-56 93t-24 125.5q0 134 56.5 238t170.5 164t281 60t281.5 -60t171.5 -164t57 -238q0 -172 -63.5 -283t-150 -170.5t-217.5 -119.5l-19 -9l-37 -17q-102 -47 -155.5 -81t-53.5 -70
q0 -43 28 -58t85 -15h580v-233h-633q-163 0 -284.5 67t-121.5 251q0 94 53.5 166.5zM434.5 566.5q12.5 -32.5 30 -55t47.5 -55.5q33 -35 48.5 -59t16.5 -54q188 88 188 297q0 97 -47 149.5t-126 52.5q-77 0 -123.5 -52.5t-46.5 -149.5q0 -41 12.5 -73.5z" />
    <glyph glyph-name="uni057C" unicode="&#x57c;" horiz-adv-x="1180" 
d="M1170 234v-234h-563v234q0 -9 38 55.5t68.5 164.5t30.5 228q0 64 -17.5 98.5t-50.5 48t-85 13.5q-99 0 -146 -77v-765h-337v1082h316l11 -126q113 146 308 146q160 0 249.5 -97.5t90.5 -318.5q0 -137 -30.5 -237.5t-68.5 -162t-38 -52.5h224z" />
    <glyph glyph-name="uni057D" unicode="&#x57d;" horiz-adv-x="1183" 
d="M759 0l-10 116q-106 -136 -288 -136q-169 0 -265.5 98t-96.5 304v700h337v-702q0 -140 136 -140q119 0 165 85v757h338v-1082h-316z" />
    <glyph glyph-name="uni057E" unicode="&#x57e;" horiz-adv-x="1210" 
d="M1300 -182v-234h-563v532q-44 -68 -114 -102t-162 -34q-169 0 -265.5 98t-96.5 304v700h337v-702q0 -140 136 -140q119 0 165 85v1211h338v-1718h225z" />
    <glyph glyph-name="uni057F" unicode="&#x57f;" horiz-adv-x="1767" 
d="M1668 686v-686h-338v681q0 65 -15 100t-42.5 48t-71.5 13q-47 0 -82.5 -20.5t-66.5 -65.5v-756h-337v116q-113 -136 -278 -136q-337 0 -338 416v686h338v-681q0 -65 15 -100t42.5 -48t71.5 -13q47 0 82.5 20.5t66.5 65.5v756h337v-116q113 136 278 136q337 0 338 -416z
" />
    <glyph glyph-name="uni0580" unicode="&#x580;" horiz-adv-x="1182" 
d="M445 765v-1181h-337v1498h316l11 -126q113 146 308 146q160 0 249.5 -97.5t90.5 -318.5v-686h-339v682q0 64 -17.5 98.5t-50.5 48t-85 13.5q-99 0 -146 -77z" />
    <glyph glyph-name="uni0581" unicode="&#x581;" horiz-adv-x="1196" 
d="M311.5 -383.5q-111.5 42.5 -175.5 119.5l141 198q98 -111 249 -111q111 0 167.5 54t56.5 161v50q-94 -108 -246 -108q-134 0 -234 70.5t-153.5 195t-53.5 282.5v21q0 164 53.5 289.5t154 194.5t235.5 69q169 0 264 -113l12 93h306v-1040q0 -147 -68.5 -252.5
t-192.5 -160.5t-289 -55q-115 0 -226.5 42.5zM449 320q49 -80 141 -80q110 0 160 74v454q-48 74 -158 74q-94 0 -143 -82t-49 -232q0 -128 49 -208z" />
    <glyph glyph-name="uni0582" unicode="&#x582;" horiz-adv-x="672" 
d="M662 234v-234h-563v1082h337v-848h226z" />
    <glyph glyph-name="uni0583" unicode="&#x583;" horiz-adv-x="1767" 
d="M1668 686v-686h-338v681q0 65 -15 100t-42.5 48t-71.5 13q-47 0 -82.5 -20.5t-66.5 -65.5v-1172h-337v532q-113 -136 -278 -136q-337 0 -338 416v686h338v-681q0 -65 15 -100t42.5 -48t71.5 -13q47 0 82.5 20.5t66.5 65.5v1210h337v-570q113 136 278 136q337 0 338 -416z
" />
    <glyph glyph-name="uni0584" unicode="&#x584;" horiz-adv-x="1236" 
d="M1206 -234h-724v-182h-337v182h-105v234h105v1082h314l11 -100q98 120 255 120q133 0 228 -65t144 -176.5t49 -248.5v-21q0 -136 -49 -243t-143.5 -167.5t-227.5 -60.5q-148 0 -244 109v-229h724v-234zM482 469q44 -89 161 -89q92 0 129 60.5t37 176.5q0 110 -39.5 167.5
t-128.5 57.5q-118 0 -159 -86v-287z" />
    <glyph glyph-name="uni0585" unicode="&#x585;" horiz-adv-x="1170" 
d="M63 551q0 160 60.5 284.5t178 195.5t282.5 71q166 0 284 -71t178.5 -195.5t60.5 -284.5v-21q0 -160 -60.5 -284.5t-178 -195t-282.5 -70.5q-164 0 -282 69t-179.5 190.5t-61.5 277.5v34zM442 317.5q42 -77.5 144 -77.5q101 0 142.5 79t41.5 232q0 291 -186 291
q-100 0 -142 -80.5t-42 -231.5q0 -135 42 -212.5z" />
    <glyph glyph-name="uni0586" unicode="&#x586;" horiz-adv-x="1629" 
d="M1322 929.5q137 -60.5 212 -171t75 -256.5v-34q0 -131 -68.5 -232.5t-204.5 -165t-336 -82.5v-404h-338v404q-304 30 -458 165.5t-154 352.5h338v-8q0 -85 40.5 -149.5t104 -99.5t129.5 -35v542q-168 0 -289 48.5t-184 137t-63 204.5t63 204.5t184 137t289 48.5h338v-546
h2q183 0 320 -60.5zM511.5 1026q47.5 -36 150.5 -36v312q-103 0 -150.5 -36t-47.5 -120t47.5 -120zM1271 497q0 74 -32.5 133t-93.5 92.5t-143 33.5h-2v-542h2q78 0 139 34t95.5 93t34.5 132v24z" />
    <glyph glyph-name="uni0587" unicode="&#x587;" horiz-adv-x="1332" 
d="M1322 234v-234h-563l-10 116q-106 -136 -288 -136q-169 0 -265.5 98t-96.5 304v1154h337v-1156q0 -140 136 -140q119 0 165 85v757h338v-848h247z" />
    <glyph glyph-name="uni0589" unicode="&#x589;" horiz-adv-x="620" 
d="M151.5 1042.5q23.5 38.5 66 60.5t96.5 22t96.5 -22t66 -60.5t23.5 -86.5t-23.5 -86.5t-66 -60.5t-96.5 -22t-96.5 22t-66 60.5t-23.5 86.5t23.5 86.5zM151.5 244.5q23.5 38.5 66 60.5t96.5 22t96.5 -22t66 -60.5t23.5 -86.5t-23.5 -86.5t-66 -60.5t-96.5 -22t-96.5 22
t-66 60.5t-23.5 86.5t23.5 86.5z" />
    <glyph glyph-name="uni058A" unicode="&#x58a;" horiz-adv-x="828" 
d="M646 474q-115 -26 -240 -26q-225 0 -379 92l31 287q7 -2 16.5 -7t14.5 -8q79 -39 180 -60t207 -21q95 0 183 16.5t159 50.5v-266q-57 -32 -172 -58z" />
    <glyph glyph-name="uni058F" unicode="&#x58f;" horiz-adv-x="1530" 
d="M1252 545v-99h288v-261h-288v-185h-352v185h-288v261h288v99h-288v261h288v241q-6 239 -223 239q-110 0 -165 -61t-55 -194v-375h-351v375q0 168 70 286t199 178.5t302 60.5t302.5 -60.5t201 -179t71.5 -285.5v-225h288v-261h-288z" />
    <glyph glyph-name="endash" unicode="&#x2013;" horiz-adv-x="1266" 
d="M1201 842v-264h-1055v264h1055z" />
    <glyph glyph-name="emdash" unicode="&#x2014;" horiz-adv-x="1541" 
d="M1492 842v-264h-1406v264h1406z" />
    <glyph glyph-name="quoteleft" unicode="&#x2018;" horiz-adv-x="511" 
d="M108 1042v162q0 64 26 134t68 132.5t90 105.5l147 -80q-40 -74 -62 -140t-22 -153v-161h-247z" />
    <glyph glyph-name="quoteright" unicode="&#x2019;" horiz-adv-x="498" 
d="M397 1536v-164q0 -64 -25.5 -134t-67.5 -132.5t-90 -105.5l-148 80q40 71 62.5 138.5t22.5 154.5v163h246z" />
    <glyph glyph-name="quotesinglbase" unicode="&#x201a;" horiz-adv-x="556" 
d="M416 249l-2 -191q-1 -94 -55 -197.5t-128 -170.5l-148 80q71 131 74 273v206h259z" />
    <glyph glyph-name="quotedblleft" unicode="&#x201c;" horiz-adv-x="875" 
d="M115 1042v162q0 64 26 134t68 132.5t90 105.5l147 -80q-40 -74 -62 -140t-22 -153v-161h-247zM466 1042v162q0 64 26 134t68 132.5t90 105.5l147 -80q-40 -74 -62 -140t-22 -153v-161h-247z" />
    <glyph glyph-name="quotedblright" unicode="&#x201d;" horiz-adv-x="881" 
d="M411 1536v-164q0 -64 -25.5 -134t-67.5 -132.5t-90 -105.5l-148 80q40 71 62.5 138.5t22.5 154.5v163h246zM773 1536v-164q0 -64 -25.5 -134t-67.5 -132.5t-90 -105.5l-148 80q40 71 62.5 138.5t22.5 154.5v163h246z" />
    <glyph glyph-name="quotedblbase" unicode="&#x201e;" horiz-adv-x="876" 
d="M416 269l-2 -211q-1 -102 -50.5 -211t-120.5 -177l-160 80q71 141 74 291v228h259zM777 269l-1 -207q0 -68 -26 -141.5t-68 -139.5t-89 -111l-159 80q40 76 62.5 147.5t22.5 165.5v206h258z" />
    <glyph glyph-name="bullet" unicode="&#x2022;" horiz-adv-x="758" 
d="M135 763q0 70 31 125t88.5 85.5t132.5 30.5q78 0 135.5 -30.5t88.5 -85t31 -125.5v-37q0 -70 -30.5 -124t-88 -84t-134.5 -30q-76 0 -133.5 30t-89 84t-31.5 124v37z" />
    <glyph glyph-name="ellipsis" unicode="&#x2026;" horiz-adv-x="1587" 
d="M151.5 244.5q23.5 38.5 66 60.5t96.5 22t96.5 -22t66 -60.5t23.5 -86.5t-23.5 -86.5t-66 -60.5t-96.5 -22t-96.5 22t-66 60.5t-23.5 86.5t23.5 86.5zM640.5 244.5q23.5 38.5 66 60.5t96.5 22t96.5 -22t66 -60.5t23.5 -86.5t-23.5 -86.5t-66 -60.5t-96.5 -22t-96.5 22
t-66 60.5t-23.5 86.5t23.5 86.5zM1128.5 244.5q23.5 38.5 66 60.5t96.5 22t96.5 -22t66 -60.5t23.5 -86.5t-23.5 -86.5t-66 -60.5t-96.5 -22t-96.5 22t-66 60.5t-23.5 86.5t23.5 86.5z" />
    <glyph glyph-name="guilsinglleft" unicode="&#x2039;" horiz-adv-x="651" 
d="M381 116l-273 390v19l273 390h206l-232 -399l232 -400h-206z" />
    <glyph glyph-name="guilsinglright" unicode="&#x203a;" horiz-adv-x="621" 
d="M283 914l273 -390v-19l-273 -390h-206l231 399l-231 400h206z" />
    <glyph glyph-name="fraction" unicode="&#x2044;" horiz-adv-x="903" 
d="M883 1247l-711 -1138l-157 79l711 1138z" />
    <glyph glyph-name="uni2074" unicode="&#x2074;" horiz-adv-x="768" 
d="M707 824h-80v-157h-225v157h-333l-15 145l348 487h225v-454h80v-178zM265 1002h137v190l-15 -22z" />
    <glyph glyph-name="Euro" unicode="&#x20ac;" 
d="M1112 11q-127 -30 -263 -30q-172 0 -305 60t-210 178.5t-83 288.5h-165v160h165v122h-165v159h168q14 169 95.5 287t218 178.5t313.5 60.5q108 0 231 -31l-43 -270q-80 31 -166 31q-134 0 -208.5 -60.5t-88.5 -195.5h308v-159h-311v-122h311v-160h-311
q4 -100 40.5 -156.5t98.5 -79t152 -22.5q99 0 175 30z" />
    <glyph glyph-name="minus" unicode="&#x2212;" horiz-adv-x="1120" 
d="M1014 842v-264h-879v264h879z" />
    </font>
</defs>
</svg>
