<?xml version="1.0" standalone="no"?>
<!DOCTYPE svg PUBLIC "-//W3C//DTD SVG 1.1//EN" "http://www.w3.org/Graphics/SVG/1.1/DTD/svg11.dtd" >
<svg xmlns="http://www.w3.org/2000/svg" xmlns:xlink="http://www.w3.org/1999/xlink" version="1.1">
<metadata>
Created by FontForge 20170731 at Thu Jul 27 19:06:51 2017
 By Aleksey,,,
Copyright 2017 The Mardoto Project Authors (https://github.com/vahanhovh/mardoto)
</metadata>
<defs>
<font id="Mardoto-Bold" horiz-adv-x="1175" >
  <font-face 
    font-family="Mardoto"
    font-weight="700"
    font-stretch="normal"
    units-per-em="2048"
    panose-1="0 0 8 0 0 0 0 0 0 0"
    ascent="1536"
    descent="-512"
    x-height="1082"
    cap-height="1456"
    bbox="-515 -555 3193 2146"
    underline-thickness="100"
    underline-position="-300"
    unicode-range="U+000D-2212"
  />
<missing-glyph horiz-adv-x="1351" 
d="M1107 -555h-856v2701h856v-2701zM454 1965v-89h175v-100h-178v-89h448v89h-178v100h178v89h-445zM451 1617v-281h448v92h-178v189h-270zM629 1428h-89v97h89v-97zM451 1263v-89h178v-100h-178v-89h270v189h178v89h-448zM810 1101v-179h-359v-91h448v270h-89zM629 771
v-151h92v62h89v-127h-270v216h-89v-305h448v305h-270zM451 304v-305h448v305h-448zM810 88h-270v127h270v-127zM451 -63v-90h189l-189 -126v-90h448v90h-275l189 126h86v90h-448z" />
    <glyph glyph-name="uni0535054E.liga" unicode="&#x535;&#x54e;" horiz-adv-x="2893" 
d="M2883 243v-243h-600v392q-122 -66 -258 -66q-165 0 -291.5 59t-197 175t-70.5 282v78h-1039v-424q0 -140 66.5 -207t191.5 -67q126 0 191.5 65.5t65.5 195.5v167h301v-154q0 -165 -71 -281.5t-197 -175.5t-290 -59q-165 0 -291.5 59t-197 175t-70.5 282v1040h301v-373
h1340v-321q0 -140 66.5 -207t191.5 -67q82 0 139.5 38.5t87.5 106.5t30 156v667h301v-654q0 -18 -1 -28l1 -611h300z" />
    <glyph glyph-name="uni05390545.liga" unicode="&#x539;&#x545;" horiz-adv-x="3279" 
d="M3119 650.5q74 -90.5 74 -220.5q0 -143 -74.5 -244.5t-208.5 -153.5t-309 -52q-171 0 -305.5 54t-210.5 157t-76 244h301q0 -109 80 -161.5t212 -52.5t211 52.5t79 161.5q0 116 -74.5 173.5t-199.5 57.5h-985v-235q0 -214 -121 -332.5t-367 -118.5q-154 0 -267 56.5
t-173.5 160.5t-60.5 244v27q0 211 130 322t371 111h187v92q0 88 -55 161.5t-157.5 116.5t-239.5 43q-134 0 -237 -43t-159.5 -119t-56.5 -172v-980h-301v980q0 171 86.5 301t256 202.5t411.5 72.5q240 0 409.5 -72.5t256.5 -202.5t87 -301v-79h985q115 0 178.5 57.5
t63.5 154.5q0 92 -70.5 147t-197.5 55q-125 0 -188.5 -53t-63.5 -141h-300q0 132 74 231t200 151.5t278 52.5q166 0 294.5 -50t201 -148.5t72.5 -237.5q0 -108 -64 -191.5t-180 -139.5q129 -48 203 -138.5zM1332 666h-187q-99 0 -149.5 -64t-50.5 -162q0 -61 23.5 -110.5
t68.5 -78.5t108 -29q88 0 137.5 58t49.5 151v235z" />
    <glyph glyph-name="uni0544053E.liga" unicode="&#x544;&#x53e;" horiz-adv-x="3223" 
d="M3183 1115h-250q58 -82 88.5 -187t30.5 -229v-60q0 -201 -78 -350t-218.5 -229t-322.5 -80t-323 80t-220 229t-79 350v60q0 129 37.5 239t106.5 195q-89 19 -158 60t-115 100h-439v-797q0 -165 -71 -281.5t-197 -175.5t-290 -59q-165 0 -291.5 59t-197 175t-70.5 282
v1040h301v-1040q0 -140 66.5 -207t191.5 -67q251 0 257 261v1053h960q0 -51 33.5 -91.5t93.5 -63.5t138 -23h1016v-243zM2748 699q0 200 -82.5 306t-234.5 106t-234 -105t-82 -303v-64q0 -198 82.5 -305t235.5 -107q151 0 233 105.5t82 302.5v64z" />
    <glyph glyph-name="uni05440546.liga" unicode="&#x544;&#x546;" horiz-adv-x="3134" 
d="M3018 880v-384q0 -166 -70.5 -282t-197 -175t-291.5 -59q-164 0 -290 59t-197 175.5t-71 281.5v701l-34 -1q-51 0 -91 5.5t-101 16.5q-71 13 -126 20t-132 7q-20 0 -72 -2q-45 -2 -73.5 -30t-28.5 -72v-645q0 -165 -71 -281.5t-197 -175.5t-290 -59q-165 0 -291.5 59
t-197 175t-70.5 282v1040h301v-1040q0 -140 66.5 -207t191.5 -67q126 0 191.5 65.5t65.5 195.5v818q0 67 30.5 120.5t84 84t120.5 30.5q120 0 207 -9.5t199 -28.5q88 -15 152 -22.5t141 -7.5q138 0 327 32v-259h-1v-758q0 -130 65.5 -195.5t191.5 -65.5q125 0 191.5 67
t66.5 207v384h301z" />
    <glyph glyph-name="uni05440576.liga" unicode="&#x544;&#x576;" horiz-adv-x="2754" 
d="M2636 1082v-1082h-272l-8 111q-107 -131 -296 -131q-167 0 -263 97t-96 301v829q-39 4 -111 20q-70 14 -122.5 21t-122.5 5q-45 -2 -73.5 -30t-28.5 -72v-655q0 -165 -71 -281.5t-197 -175.5t-290 -59q-165 0 -291.5 59t-197 175t-70.5 282v1040h301v-1040
q0 -140 66.5 -207t191.5 -67q126 0 191.5 65.5t65.5 195.5v818q0 67 30.5 120.5t84 84t120.5 30.5q85 0 156 -8.5t169 -24.5q90 -14 146 -21t119 -7q107 0 224 25v-259h-1v-861q0 -86 41 -125.5t112 -39.5q148 0 203 103v764h290z" />
    <glyph glyph-name="uni0574056F.liga" unicode="&#x574;&#x56f;" horiz-adv-x="2348" 
d="M2230 1082v-1498h-290v527q-46 -65 -118 -98t-168 -33q-167 0 -263 97t-96 301v840l-23 9q-40 16 -67 24t-62 8q-44 0 -73 -29t-29 -73v-1157h-272l-8 111q-107 -131 -296 -131q-167 0 -263 97t-96 301v704h289v-702q0 -86 41 -125.5t112 -39.5q148 0 203 103v963
q0 73 33 131t91 91t131 33q49 0 88 -6t102 -20q72 -16 125.5 -24t126.5 -8q65 0 136 7v-1105q0 -86 41 -125.5t112 -39.5q148 0 203 103v764h290z" />
    <glyph glyph-name="uni0578055B0582.liga" unicode="&#x578;&#x55b;&#x582;" horiz-adv-x="1715" 
d="M1450 1772l-312 -497h-237l232 497h317zM961.5 1006q89.5 -96 90.5 -312v-694h-290v690q0 100 -42 139t-130 39q-123 0 -183 -104v-764h-289v1082h271l10 -124q116 144 311 144q162 0 251.5 -96zM1741 233v-233h-518v1082h289v-849h229z" />
    <glyph glyph-name="uni0578055C0582.liga" unicode="&#x578;&#x55c;&#x582;" horiz-adv-x="1715" 
d="M1433 1639.5q-8 -53.5 -40 -99.5t-100 -67q-56 -17 -92.5 -52.5t-53 -77t-16.5 -80.5v-9h-260v57q0 102 43.5 183t131.5 110q75 25 100 68.5t25 113.5v9h270v-25q0 -77 -8 -130.5zM961.5 1006q89.5 -96 90.5 -312v-694h-290v690q0 100 -42 139t-130 39q-123 0 -183 -104
v-764h-289v1082h271l10 -124q116 144 311 144q162 0 251.5 -96zM1741 233v-233h-518v1082h289v-849h229z" />
    <glyph glyph-name="uni0578055E0582.liga" unicode="&#x578;&#x55e;&#x582;" horiz-adv-x="1715" 
d="M1292 1529.5q36 28.5 36 86.5q0 52 -32.5 78.5t-93.5 26.5q-44 0 -83 -26t-63 -76.5t-24 -120.5v-243h-240v256q0 139 58.5 235t152.5 143t199 47q104 0 186.5 -32.5t131 -99.5t48.5 -168q0 -152 -86 -245.5t-289 -93.5v204q63 0 99 28.5zM961.5 1006q89.5 -96 90.5 -312
v-694h-290v690q0 100 -42 139t-130 39q-123 0 -183 -104v-764h-289v1082h271l10 -124q116 144 311 144q162 0 251.5 -96zM1741 233v-233h-518v1082h289v-849h229z" />
    <glyph glyph-name="uniFB13.liga" unicode="&#x574;&#x576;" horiz-adv-x="2401" 
d="M2283 1082v-1082h-272l-8 111q-107 -131 -296 -131q-167 0 -263 97t-96 301v833q-15 4 -28 8.5t-24 7.5q-50 16 -83.5 24t-69.5 8q-44 0 -73 -29t-29 -73v-1157h-272l-8 111q-107 -131 -296 -131q-167 0 -263 97t-96 301v704h289v-702q0 -86 41 -125.5t112 -39.5
q148 0 203 103v963q0 73 33 131t91 91t131 33q46 0 88 -7.5t115 -24.5q82 -19 137.5 -28.5t120.5 -9.5q78 0 169 19v-215h1v-890q0 -86 41 -125.5t112 -39.5q148 0 203 103v764h290z" />
    <glyph glyph-name="uniFB14.liga" unicode="&#x574;&#x565;" horiz-adv-x="2379" 
d="M1604 849v-469q0 -86 41 -125.5t112 -39.5q148 0 203 103v324h290v-642h-272l-8 111q-107 -131 -296 -131q-167 0 -263 97t-96 301v839l-26 9q-48 17 -79 25t-67 8q-44 0 -73 -29t-29 -73v-1157h-272l-8 111q-107 -131 -296 -131q-167 0 -263 97t-96 301v704h289v-702
q0 -86 41 -125.5t112 -39.5q148 0 203 103v963q0 73 33 131t91 91t131 33q48 0 90.5 -8t105.5 -25q73 -18 124.5 -27.5t113.5 -9.5q73 0 164 19v-403h719v-233h-719z" />
    <glyph glyph-name=".notdef" horiz-adv-x="1351" 
d="M1107 -555h-856v2701h856v-2701zM454 1965v-89h175v-100h-178v-89h448v89h-178v100h178v89h-445zM451 1617v-281h448v92h-178v189h-270zM629 1428h-89v97h89v-97zM451 1263v-89h178v-100h-178v-89h270v189h178v89h-448zM810 1101v-179h-359v-91h448v270h-89zM629 771
v-151h92v62h89v-127h-270v216h-89v-305h448v305h-270zM451 304v-305h448v305h-448zM810 88h-270v127h270v-127zM451 -63v-90h189l-189 -126v-90h448v90h-275l189 126h86v90h-448z" />
    <glyph glyph-name=".null" horiz-adv-x="0" 
 />
    <glyph glyph-name="nonmarkingreturn" unicode="&#xd;" horiz-adv-x="510" 
 />
    <glyph glyph-name="NULL" horiz-adv-x="0" 
 />
    <glyph glyph-name="NULL" horiz-adv-x="0" 
 />
    <glyph glyph-name="space" unicode=" " horiz-adv-x="510" 
 />
    <glyph glyph-name="exclam" unicode="!" horiz-adv-x="557" 
d="M439 1456l-33 -1008h-241l-33 1008h307zM168.5 246.5q44.5 43.5 117.5 43.5t117.5 -43.5t44.5 -110.5q0 -43 -20 -77.5t-57 -54.5t-85 -20t-85 20t-57 54.5t-20 77.5q0 67 44.5 110.5z" />
    <glyph glyph-name="quotedbl" unicode="&#x22;" horiz-adv-x="657" 
d="M266 1399l-39 -412h-163v550h202v-138zM591 1399l-39 -412h-162v550h201v-138z" />
    <glyph glyph-name="numbersign" unicode="#" horiz-adv-x="1221" 
d="M595 0l72 410h-193l-72 -410h-183l72 410h-227v173h258l49 284h-232v173h263l73 416h182l-73 -416h194l73 416h183l-73 -416h219v-173h-250l-49 -284h223v-173h-254l-72 -410h-183zM504 583h194l49 284h-193z" />
    <glyph glyph-name="dollar" unicode="$" 
d="M1031 185q-49 -86 -138.5 -137t-210.5 -65v-198h-159v198q-119 13 -215.5 65.5t-156 154t-59.5 254.5h289q0 -131 62.5 -188.5t156.5 -57.5q92 0 141.5 47.5t49.5 125.5q0 55 -20.5 93.5t-65.5 69t-122 59.5q-147 56 -239 112.5t-144.5 141.5t-52.5 210q0 112 49 199
t138.5 140t208.5 65v214h159v-217q116 -17 201 -76.5t131 -158.5t46 -230h-289q0 117 -49 178t-134 61q-86 0 -129 -48t-43 -127q0 -51 19 -87t63.5 -66.5t125.5 -62.5q147 -58 239 -115.5t144.5 -142.5t52.5 -210q0 -115 -49 -201z" />
    <glyph glyph-name="percent" unicode="%" horiz-adv-x="1512" 
d="M95 1176q0 84 37 152.5t108.5 108.5t170.5 40q101 0 172.5 -40t107.5 -108.5t36 -152.5v-77q0 -83 -36 -151t-107 -108t-171 -40t-172 40t-109 108t-37 151v77zM1181 1247l-711 -1138l-141 76l711 1138zM288 1099q0 -56 32.5 -94t92.5 -38q59 0 90.5 38t31.5 94v77
q0 57 -32 95.5t-92 38.5q-59 0 -91 -38.5t-32 -95.5v-77zM791 357q0 83 37 151.5t109 108.5t171 40q101 0 172 -40t107.5 -108t36.5 -152v-77q0 -84 -36.5 -152t-107.5 -108t-170 -40q-100 0 -172 40t-109.5 108.5t-37.5 151.5v77zM984 280q0 -35 15.5 -65.5t44.5 -49
t66 -18.5q66 0 94 37t28 96v77q0 57 -32.5 95t-91.5 38q-60 0 -92 -38t-32 -95v-77z" />
    <glyph glyph-name="ampersand" unicode="&#x26;" horiz-adv-x="1344" 
d="M992 0l-75 86q-163 -107 -371 -107q-144 0 -251.5 52.5t-165.5 146.5t-58 214q0 81 32 145t87.5 117.5t143.5 116.5q-70 94 -104.5 169.5t-34.5 152.5q0 114 49 201.5t139.5 135t209.5 47.5q110 0 194.5 -46t130.5 -124t46 -170q0 -180 -194 -320l-94 -67l251 -292
q60 116 60 256h246q0 -285 -131 -460l218 -254h-328zM543 909l99 65q82 61 82 146q0 31 -16 59.5t-46 46.5t-70 18q-66 0 -102 -41.5t-36 -104.5q0 -73 89 -189zM385 308q25 -45 71 -70.5t105 -25.5q103 0 197 58l-288 333l-21 -15q-52 -45 -70.5 -88t-18.5 -91
q0 -56 25 -101z" />
    <glyph glyph-name="quotesingle" unicode="'" horiz-adv-x="332" 
d="M275 1389l-29 -403h-182v550h211v-147z" />
    <glyph glyph-name="parenleft" unicode="(" horiz-adv-x="719" 
d="M125 592q0 268 73.5 481.5t196.5 358.5q116 134 228 185l56 -156q-81 -61 -150.5 -172.5t-114 -283t-45.5 -395.5v-43q0 -230 44 -405t113.5 -288t152.5 -176l-56 -153q-120 53 -233 190.5t-187 340.5q-78 212 -78 493v23z" />
    <glyph glyph-name="parenright" unicode=")" horiz-adv-x="722" 
d="M610 569q0 -260 -76 -474t-203 -361q-118 -139 -235 -189l-56 153q81 61 150.5 173t114 284t45.5 396v43q0 230 -45 405.5t-115 289t-150 174.5l56 154q122 -54 239.5 -195t194.5 -345q80 -214 80 -486v-22z" />
    <glyph glyph-name="asterisk" unicode="*" horiz-adv-x="929" 
d="M125 691l217 272l-315 89l60 181l310 -125l-19 348h195l-20 -355l304 122l59 -183l-320 -89l209 -265l-158 -113l-182 291l-181 -282z" />
    <glyph glyph-name="plus" unicode="+" horiz-adv-x="1118" 
d="M1055 555h-361v-409h-274v409h-363v261h363v390h274v-390h361v-261z" />
    <glyph glyph-name="comma" unicode="," horiz-adv-x="501" 
d="M384 246l-1 -200q-1 -112 -55.5 -224.5t-141.5 -187.5l-150 79l12 22q31 56 49 95.5t30.5 89t12.5 108.5v218h244z" />
    <glyph glyph-name="hyphen" unicode="-" horiz-adv-x="795" 
d="M673 741v-234h-562v234h562z" />
    <glyph glyph-name="period" unicode="." horiz-adv-x="596" 
d="M171 254q45 44 119 44t118.5 -44t44.5 -111t-44.5 -110.5t-118.5 -43.5t-119 44t-45 110q0 67 45 111z" />
    <glyph glyph-name="slash" unicode="/" horiz-adv-x="766" 
d="M738 1456l-536 -1581h-215l536 1581h215z" />
    <glyph glyph-name="zero" unicode="0" 
d="M1079 603q0 -317 -130 -470t-360 -153t-361.5 153t-131.5 470v253q0 316 130.5 468t360.5 152q229 0 360 -151t132 -464v-258zM790 896q0 187 -51 267t-152 80q-100 0 -150.5 -78.5t-51.5 -260.5v-340q0 -188 51.5 -269.5t152.5 -81.5q99 0 149.5 80t51.5 263v340z" />
    <glyph glyph-name="one" unicode="1" 
d="M801 1458v-1458h-289v1115l-344 -107v234l602 216h31z" />
    <glyph glyph-name="two" unicode="2" 
d="M1097 233v-233h-997v198l471 502q104 115 146.5 191.5t42.5 143.5q0 98 -49 153.5t-139 55.5q-67 0 -115 -31.5t-72.5 -87.5t-24.5 -127h-289q0 132 62 241.5t177 173.5t267 64q151 0 257 -49.5t161 -142.5t55 -221q0 -92 -37 -180t-105 -175.5t-177 -202.5l-260 -273
h626z" />
    <glyph glyph-name="three" unicode="3" 
d="M394 630v227h154q106 0 161 53.5t55 147.5q0 84 -50.5 135t-146.5 51q-53 0 -98 -20t-71.5 -57.5t-26.5 -87.5h-289q0 117 63.5 207.5t172.5 140.5t241 50q149 0 260 -47.5t172.5 -141t61.5 -226.5q0 -95 -59 -180.5t-163 -133.5q120 -42 182 -130t62 -209
q0 -133 -66.5 -230t-183.5 -148t-266 -51q-128 0 -240 46.5t-182 136.5q-73 92 -73 236h290q0 -53 27.5 -95.5t76 -66.5t109.5 -24q102 0 160.5 54.5t58.5 145.5q0 217 -240 217h-152z" />
    <glyph glyph-name="four" unicode="4" 
d="M56 497l607 959h292v-908h165v-233h-165v-315h-289v315h-597zM343 548h323v517l-20 -35z" />
    <glyph glyph-name="five" unicode="5" 
d="M143 716l83 740h816v-240h-578l-36 -314q100 55 218 55q141 0 240.5 -58t151.5 -168t52 -263q0 -134 -54.5 -245t-165 -177t-271.5 -66q-128 0 -240 51.5t-181 148t-72 226.5h286q19 -193 205 -193q103 0 153.5 74.5t50.5 196.5q0 119 -59 187.5t-175 68.5
q-71 0 -114 -21.5t-80 -58.5z" />
    <glyph glyph-name="six" unicode="6" 
d="M1043 225q-61 -114 -172.5 -179.5t-257.5 -65.5q-153 0 -269 73.5t-179.5 205t-63.5 301.5v111q0 236 88.5 417t256 282t397.5 101h41v-238h-29q-197 -3 -316 -102t-143 -275q117 119 294 119q133 0 226.5 -66t140.5 -178.5t47 -250.5q0 -141 -61 -255zM390 522
q0 -150 59 -229t159 -79q61 0 108 34t73 93.5t26 135.5q0 78 -25.5 138t-74 94t-113.5 34q-74 0 -130 -38t-82 -96v-87z" />
    <glyph glyph-name="seven" unicode="7" 
d="M1090 1456v-161l-563 -1295h-305l563 1223h-724v233h1029z" />
    <glyph glyph-name="eight" unicode="8" 
d="M1015 170.5q-63 -94.5 -174 -142.5t-253 -48q-143 0 -254.5 48t-175.5 142.5t-64 228.5q0 118 61.5 209.5t168.5 142.5q-93 49 -145.5 131.5t-52.5 186.5q0 129 58.5 221t162.5 139.5t239 47.5q137 0 241 -47.5t162.5 -139.5t58.5 -221q0 -104 -52.5 -186.5
t-146.5 -132.5q107 -51 168 -142t61 -209q0 -134 -63 -228.5zM713 1192.5q-46 51.5 -127 51.5q-80 0 -125.5 -50.5t-45.5 -138.5q0 -87 46 -139.5t127 -52.5t126 52t45 140q0 86 -46 137.5zM733.5 573.5q-55.5 56.5 -147.5 56.5t-147 -56.5t-55 -153.5q0 -96 55 -151.5
t149 -55.5q93 0 147 55.5t54 151.5q0 97 -55.5 153.5z" />
    <glyph glyph-name="nine" unicode="9" 
d="M1069 782q0 -240 -81.5 -418t-245 -277.5t-402.5 -101.5h-36v242h24q213 1 322 91t127 265q-115 -112 -266 -112q-133 0 -229 63.5t-145.5 175t-49.5 252.5q0 142 60.5 259.5t171.5 186.5t256 69q148 0 260 -74t173 -209t61 -312v-100zM398 826.5q23 -61.5 69.5 -97.5
t114.5 -36t120 35t78 90v117q0 100 -26.5 169.5t-73 104t-106.5 34.5q-61 0 -106 -39t-69 -102.5t-24 -136.5q0 -77 23 -138.5z" />
    <glyph glyph-name="colon" unicode=":" horiz-adv-x="578" 
d="M169 1073q45 44 119 44t118.5 -44t44.5 -111t-44.5 -110.5t-118.5 -43.5t-119 44t-45 110q0 67 45 111zM169 254q45 44 119 44t118.5 -44t44.5 -111t-44.5 -110.5t-118.5 -43.5t-119 44t-45 110q0 67 45 111z" />
    <glyph glyph-name="semicolon" unicode=";" horiz-adv-x="537" 
d="M152 1073q45 44 119 44t118.5 -44t44.5 -111t-44.5 -110.5t-118.5 -43.5t-119 44t-45 110q0 67 45 111zM406 246l-1 -200q-1 -112 -55.5 -224.5t-141.5 -187.5l-150 79l12 22q31 56 49 95.5t30.5 89t12.5 108.5v218h244z" />
    <glyph glyph-name="less" unicode="&#x3c;" horiz-adv-x="1043" 
d="M915 137l-860 366v235l860 365v-279l-568 -205l568 -201v-281z" />
    <glyph glyph-name="equal" unicode="=" horiz-adv-x="1172" 
d="M1031 982v-236h-894v236h894zM1031 549v-235h-894v235h894z" />
    <glyph glyph-name="greater" unicode="&#x3e;" horiz-adv-x="1058" 
d="M120 1103l872 -365v-236l-872 -365v278l581 208l-581 202v278z" />
    <glyph glyph-name="question" unicode="?" horiz-adv-x="1020" 
d="M347 448q1 93 15.5 159t47.5 119t91 104q60 53 93 90.5t48 73t15 77.5q0 169 -157 169q-68 0 -115 -42.5t-49 -127.5h-290q2 134 61.5 225.5t161 136t231.5 44.5q140 0 240 -45.5t153 -133.5t53 -213q0 -79 -29.5 -143t-74.5 -114t-126 -127l-15 -14q-54 -48 -75 -102.5
t-23 -135.5h-256zM363 251q44 43 117 43t117.5 -43.5t44.5 -109.5t-44.5 -109.5t-117.5 -43.5t-117 43t-44 110t44 110z" />
    <glyph glyph-name="at" unicode="@" horiz-adv-x="1833" 
d="M1263 -364q-66 -43 -170 -66t-203 -23q-255 0 -436.5 99t-276.5 291t-95 468q0 39 1 58q12 273 123 489t304 340t453 124q247 0 423.5 -101.5t268.5 -286t92 -432.5q0 -39 -1 -59q-6 -146 -53 -271t-137 -204q-95 -83 -247 -83q-175 0 -243 144q-100 -141 -261 -141
q-88 0 -153.5 46.5t-101 132t-35.5 199.5q0 35 3 71q18 168 83.5 294.5t165 195.5t216.5 69q73 0 126.5 -14.5t90.5 -35.5t91 -59l-52 -577q-2 -24 -2 -35q0 -71 30.5 -99.5t77.5 -28.5q64 0 113 50.5t77 139t32 198.5q2 44 2 64q0 204 -66.5 352t-203 228t-340.5 80
q-200 0 -350 -101t-235 -283q-44 -93 -71 -219.5t-27 -256.5q0 -143 36 -268t113 -215q162 -189 469 -189q86 0 176.5 19t154.5 50zM737 367q0 -205 136 -205q45 0 90.5 39t76.5 131l42 469q-38 13 -80 13q-224 0 -262 -383q-3 -34 -3 -64z" />
    <glyph glyph-name="A" unicode="A" horiz-adv-x="1379" 
d="M8 0l542 1456h278l545 -1456h-320l-100 300h-527l-100 -300h-318zM507 543h365l-182 547z" />
    <glyph glyph-name="B" unicode="B" horiz-adv-x="1307" 
d="M1079 111q-133 -109 -383 -111h-566v1456h511q259 0 399 -99t140 -299q0 -104 -52 -185.5t-156 -122.5q121 -30 180.5 -118.5t59.5 -202.5q0 -209 -133 -318zM431 1213v-366h210q238 0 238 180q0 182 -228 186h-220zM714 635h-283v-393h256q111 0 168 52t57 138
q0 196 -198 203z" />
    <glyph glyph-name="C" unicode="C" horiz-adv-x="1341" 
d="M1274 485q-10 -149 -82 -263t-200.5 -178t-303.5 -64q-185 0 -321 85t-208.5 243t-72.5 372v95q0 213 74.5 372t211.5 244.5t319 85.5q177 0 303.5 -65t196.5 -181t84 -269h-300q-10 136 -75 202.5t-209 66.5q-292 0 -300 -431v-120q0 -231 70 -342.5t227 -111.5
q139 0 207 63.5t79 195.5h300z" />
    <glyph glyph-name="D" unicode="D" horiz-adv-x="1332" 
d="M130 0v1456h449q194 0 345 -87.5t235.5 -245.5t84.5 -363v-65q0 -206 -84.5 -363.5t-236 -244.5t-348.5 -87h-445zM431 1213v-971h144q176 0 269 114.5t95 329.5v76q0 445 -351 451h-157z" />
    <glyph glyph-name="E" unicode="E" horiz-adv-x="1152" 
d="M130 0v1456h974v-243h-673v-347h575v-235h-575v-389h676v-242h-977z" />
    <glyph glyph-name="F" unicode="F" horiz-adv-x="1123" 
d="M130 0v1456h949v-243h-648v-376h576v-242h-576v-595h-301z" />
    <glyph glyph-name="G" unicode="G" horiz-adv-x="1395" 
d="M1283 765v-581q-67 -80 -204.5 -142t-352.5 -62q-189 0 -332 83t-221.5 241.5t-78.5 379.5v87q0 221 75.5 380t213 242.5t322.5 83.5q270 0 411 -129.5t166 -354.5h-292q-18 118 -83 180t-194 62q-295 0 -313 -408l-1 -143q0 -462 343 -462q109 0 162 25q53 24 78 47v251
h-272v220h573z" />
    <glyph glyph-name="H" unicode="H" horiz-adv-x="1448" 
d="M1016 0v624h-585v-624h-301v1456h301v-590h585v590h300v-1456h-300z" />
    <glyph glyph-name="I" unicode="I" horiz-adv-x="598" 
d="M449 1456v-1456h-300v1456h300z" />
    <glyph glyph-name="J" unicode="J" horiz-adv-x="1144" 
d="M718 1456h300v-1008q0 -142 -63.5 -248t-174.5 -163t-250 -57q-146 0 -256 49t-171.5 150t-61.5 251h301q0 -112 48.5 -160t139.5 -48q87 0 137.5 59.5t50.5 166.5v1008z" />
    <glyph glyph-name="K" unicode="K" horiz-adv-x="1301" 
d="M961 0l-374 585l-156 -168v-417h-301v1456h301v-659l131 180l371 479h369l-516 -646l532 -810h-357z" />
    <glyph glyph-name="L" unicode="L" horiz-adv-x="1109" 
d="M1067 242v-242h-937v1456h301v-1214h636z" />
    <glyph glyph-name="M" unicode="M" horiz-adv-x="1794" 
d="M896 400l373 1056h393v-1456h-301v398l30 684l-392 -1082h-206l-392 1082l30 -684v-398h-301v1456h393z" />
    <glyph glyph-name="N" unicode="N" horiz-adv-x="1447" 
d="M1315 1456v-1456h-300l-584 959v-959h-301v1456h301l584 -960v960h300z" />
    <glyph glyph-name="O" unicode="O" horiz-adv-x="1414" 
d="M1327 695q0 -218 -78 -380t-218.5 -248.5t-322.5 -86.5t-323 86.5t-220 248.5t-79 380v65q0 218 78.5 380t219 249t322.5 87t323 -87t219.5 -249t78.5 -380v-65zM1023 762q0 226 -82.5 346t-234.5 120t-233.5 -118t-82.5 -343v-72q0 -226 82.5 -347t235.5 -121
q151 0 232.5 119.5t82.5 343.5v72z" />
    <glyph glyph-name="P" unicode="P" horiz-adv-x="1322" 
d="M431 514v-514h-301v1456h569q168 0 292 -61.5t189.5 -170.5t65.5 -249t-65 -244t-188.5 -160.5t-293.5 -56.5h-268zM431 1213v-457h268q124 0 183.5 58.5t59.5 158.5q0 67 -26 121t-80.5 86.5t-136.5 32.5h-268z" />
    <glyph glyph-name="Q" unicode="Q" horiz-adv-x="1414" 
d="M1317 -91l-190 -169l-309 249q-54 -9 -112 -9q-182 0 -323 86.5t-220 248.5t-79 380v65q0 218 78.5 380t219 249t322.5 87q183 0 324 -87t219 -249t78 -380v-65q0 -199 -65 -352t-183 -244zM1021 762q0 226 -82.5 346t-234.5 120q-151 0 -233 -118.5t-83 -342.5v-72
q0 -226 83 -347t235 -121q151 0 232.5 119.5t82.5 343.5v72z" />
    <glyph glyph-name="R" unicode="R" horiz-adv-x="1307" 
d="M942 0l-272 534h-239v-534h-301v1456h542q168 0 288.5 -50.5t185 -149t64.5 -240.5q0 -152 -67 -250.5t-193 -155.5l315 -596v-14h-323zM431 1213v-437h241q115 0 176 58t61 159q0 104 -59.5 162t-177.5 58h-241z" />
    <glyph glyph-name="S" unicode="S" horiz-adv-x="1259" 
d="M836 504q-49 48 -242 111q-145 47 -249 104.5t-167.5 143.5t-63.5 206t68.5 212.5t191 143.5t278.5 51q159 0 280 -57.5t187.5 -159.5t66.5 -232h-300q0 96 -61 153t-178 57q-76 0 -128.5 -22.5t-78.5 -60.5t-26 -86q0 -69 70 -117.5t219 -93.5q247 -75 365.5 -186.5
t118.5 -286.5q0 -126 -65 -217t-184 -139t-279 -48q-151 0 -284.5 53t-217.5 155q-87 107 -87 271h301q0 -241 288 -241q112 0 169.5 45.5t57.5 118.5q0 72 -50 122z" />
    <glyph glyph-name="T" unicode="T" horiz-adv-x="1267" 
d="M41 1213v243h1185v-243h-445v-1213h-300v1213h-440z" />
    <glyph glyph-name="U" unicode="U" horiz-adv-x="1348" 
d="M932 1456h301v-960q0 -165 -71 -281.5t-197 -175.5t-290 -59q-165 0 -291.5 59t-197 175t-70.5 282v960h301v-960q0 -140 66.5 -207t191.5 -67q251 0 257 261v973z" />
    <glyph glyph-name="V" unicode="V" horiz-adv-x="1339" 
d="M1333 1456l-508 -1456h-312l-505 1456h332l329 -1094l330 1094h334z" />
    <glyph glyph-name="W" unicode="W" horiz-adv-x="1792" 
d="M1759 1456l-322 -1456h-302l-237 974l-237 -974h-302l-324 1456h299l197 -1033l240 1033h254l240 -1033l196 1033h298z" />
    <glyph glyph-name="X" unicode="X" horiz-adv-x="1302" 
d="M379 1456l273 -501l272 501h345l-423 -722l434 -734h-349l-279 510l-280 -510h-349l435 734l-424 722h345z" />
    <glyph glyph-name="Y" unicode="Y" horiz-adv-x="1267" 
d="M331 1456l302 -656l302 656h329l-479 -928v-528h-304v528l-479 928h329z" />
    <glyph glyph-name="Z" unicode="Z" horiz-adv-x="1242" 
d="M74 1213v243h1092v-172l-717 -1042h733v-242h-1108v176l720 1037h-720z" />
    <glyph glyph-name="bracketleft" unicode="[" horiz-adv-x="570" 
d="M553 1695v-223h-143v-1589h143v-222h-433v2034h433z" />
    <glyph glyph-name="backslash" unicode="\" horiz-adv-x="865" 
d="M608 -125l-608 1581h295l608 -1581h-295z" />
    <glyph glyph-name="bracketright" unicode="]" horiz-adv-x="570" 
d="M13 1472v223h433v-2034h-433v222h144v1589h-144z" />
    <glyph glyph-name="asciicircum" unicode="^" horiz-adv-x="896" 
d="M45 729l299 727h210l298 -727h-229l-174 456l-175 -456h-229z" />
    <glyph glyph-name="underscore" unicode="_" horiz-adv-x="915" 
d="M912 0v-226h-911v226h911z" />
    <glyph glyph-name="grave" unicode="`" horiz-adv-x="678" 
d="M368 1536l197 -309h-237l-276 309h316z" />
    <glyph glyph-name="a" unicode="a" horiz-adv-x="1098" 
d="M738 0q-19 39 -29 97q-105 -117 -273 -117q-102 0 -186 42t-132.5 116t-48.5 166q0 172 127 264.5t372 92.5h129v63q0 78 -39.5 121t-120.5 43q-155 0 -155 -130h-289q0 94 57 173t162 125t241 46q127 0 225 -43t153.5 -128.5t55.5 -208.5v-482q1 -141 43 -223v-17h-292z
M620 231.5q53 30.5 77 73.5v188h-118q-110 0 -165.5 -46.5t-55.5 -121.5q0 -55 38 -89.5t103 -34.5q68 0 121 30.5z" />
    <glyph glyph-name="b" unicode="b" horiz-adv-x="1153" 
d="M1086 531q0 -165 -47 -289t-141.5 -193t-231.5 -69q-176 0 -281 135l-13 -115h-261v1536h290v-550q101 116 263 116q138 0 233 -69.5t142 -193.5t47 -287v-21zM401 755v-428q53 -113 192 -113q78 0 123 38.5t63 112t18 187.5q0 145 -46 230.5t-160 85.5q-137 0 -190 -113
z" />
    <glyph glyph-name="c" unicode="c" horiz-adv-x="1069" 
d="M691.5 257q50.5 44 51.5 117h272q-1 -113 -61 -202.5t-162 -140.5t-226 -51q-162 0 -274.5 71.5t-169 195t-56.5 280.5v28q0 156 56 280t168.5 195.5t274.5 71.5q132 0 233.5 -51.5t158.5 -147.5t58 -224h-272q-1 53 -22.5 96.5t-62.5 68.5t-98 25q-81 0 -125.5 -41.5
t-61.5 -115.5t-17 -185q0 -146 43.5 -230t161.5 -84q80 0 130.5 44z" />
    <glyph glyph-name="d" unicode="d" horiz-adv-x="1155" 
d="M780 0l-14 115q-106 -135 -277 -135q-131 0 -226.5 70.5t-146 195t-50.5 282.5v21q0 165 50 290t146 194t229 69q158 0 260 -117v551h290v-1536h-261zM405.5 301q49.5 -86 156.5 -86q132 0 189 112v429q-55 112 -187 112q-109 0 -158.5 -88t-49.5 -252q0 -141 49.5 -227z
" />
    <glyph glyph-name="e" unicode="e" horiz-adv-x="1107" 
d="M1032 176q-58 -83 -166.5 -139.5t-255.5 -56.5q-163 0 -285 69t-186.5 188t-65.5 264v42q0 163 62 290t176.5 198t266.5 71q153 0 260 -65.5t162 -185.5t55 -281v-123h-689q15 -107 84 -170.5t178 -63.5q165 0 261 121zM436 809.5q-51 -59.5 -67 -164.5h402v22
q-2 92 -50.5 147t-144.5 55q-89 0 -140 -59.5z" />
    <glyph glyph-name="f" unicode="f" horiz-adv-x="734" 
d="M695 871h-215v-871h-290v871h-161v211h161v94q0 122 48 207.5t137.5 129.5t211.5 44q68 0 148 -20l-3 -224q-37 9 -89 9q-160 0 -163 -141v-99h215v-211z" />
    <glyph glyph-name="g" unicode="g" horiz-adv-x="1170" 
d="M393 -407q-76 19 -145 57t-113 93l128 176q107 -120 263 -120q115 0 179 62t64 175v58q-102 -114 -263 -114q-131 0 -229.5 70t-152 192.5t-55.5 277.5v29q0 164 53 289t152.5 194.5t233.5 69.5q179 0 278 -122l11 102h262v-1045q0 -146 -65 -250t-183 -158.5t-273 -54.5
q-69 0 -145 19zM358 528q0 -138 56 -225.5t165 -87.5q132 0 190 100v454q-57 99 -188 99q-109 0 -166 -89t-57 -230v-21z" />
    <glyph glyph-name="h" unicode="h" horiz-adv-x="1147" 
d="M394 771v-771h-289v1536h289v-571q113 137 289 137q168 0 262 -99t95 -316v-687h-290v684q0 101 -43 142.5t-130 41.5q-126 0 -183 -97z" />
    <glyph glyph-name="i" unicode="i" horiz-adv-x="543" 
d="M153.5 1470q44.5 42 117.5 42t117.5 -42t44.5 -108q0 -65 -44.5 -107t-117.5 -42t-117.5 42t-44.5 107q0 66 44.5 108zM417 1082v-1082h-290v1082h290z" />
    <glyph glyph-name="j" unicode="j" horiz-adv-x="533" 
d="M149 1470q44 42 117 42t117.5 -42t44.5 -108q0 -65 -44.5 -107t-117.5 -42t-117 42t-44 107q0 66 44 108zM127 1082h290v-1142q0 -182 -96 -279.5t-272 -97.5q-74 0 -145 17v229q46 -9 92 -9q131 0 131 140v1142z" />
    <glyph glyph-name="k" unicode="k" horiz-adv-x="1094" 
d="M782 0l-278 434l-103 -103v-331h-289v1537h289v-851l56 72l276 324h347l-390 -450l425 -632h-333z" />
    <glyph glyph-name="l" unicode="l" horiz-adv-x="543" 
d="M417 1536v-1536h-290v1536h290z" />
    <glyph glyph-name="m" unicode="m" horiz-adv-x="1773" 
d="M401 766v-766h-290v1082h272l10 -119q112 139 310 139q209 0 287 -165q111 165 325 165q165 0 255.5 -96.5t91.5 -311.5v-694h-290v690q0 102 -40 140t-122 38q-128 0 -179 -121v-747h-289v688q0 101 -41 140.5t-123 39.5q-120 0 -177 -102z" />
    <glyph glyph-name="n" unicode="n" horiz-adv-x="1147" 
d="M395 764v-764h-289v1082h271l10 -124q116 144 311 144q162 0 251.5 -96t90.5 -312v-694h-290v690q0 100 -42 139t-130 39q-123 0 -183 -104z" />
    <glyph glyph-name="o" unicode="o" horiz-adv-x="1158" 
d="M66 551q0 159 61 284t176.5 196t274.5 71q160 0 276 -71t176.5 -196t60.5 -284v-21q0 -159 -60.5 -283.5t-175.5 -195.5t-275 -71q-158 0 -273.5 69t-176.5 191t-64 277v34zM410 300q54 -87 170 -87q222 0 222 338q0 141 -54 229.5t-170 88.5q-222 0 -222 -339
q0 -143 54 -230z" />
    <glyph glyph-name="p" unicode="p" horiz-adv-x="1153" 
d="M401 95v-511h-290v1498h269l11 -105q104 125 272 125q135 0 230 -68t144 -191.5t49 -289.5v-21q0 -159 -49 -284t-144 -196.5t-227 -71.5q-162 0 -265 115zM401 763v-443q54 -107 189 -107q207 0 207 340q0 143 -51.5 229t-157.5 86q-134 0 -187 -105z" />
    <glyph glyph-name="q" unicode="q" horiz-adv-x="1157" 
d="M1041 1082v-1498h-290v508q-102 -112 -261 -112q-132 0 -228 71t-146 195.5t-50 283.5v21q0 165 49.5 289.5t145.5 193t231 68.5q173 0 277 -131l18 111h254zM406 300.5q50 -87.5 157 -87.5q133 0 188 106v448q-54 102 -186 102q-109 0 -159 -87.5t-50 -251.5
q0 -142 50 -229.5z" />
    <glyph glyph-name="r" unicode="r" horiz-adv-x="748" 
d="M615 820q-163 0 -214 -111v-709h-290v1082h273l9 -129q86 149 241 149q56 0 89 -13l-3 -277z" />
    <glyph glyph-name="s" unicode="s" horiz-adv-x="1054" 
d="M655 378q-43 31 -183 61q-180 39 -280.5 117.5t-100.5 209.5q0 91 52.5 168t150.5 122.5t228 45.5q138 0 240.5 -45t157.5 -124t55 -180h-289q0 65 -41.5 104.5t-123.5 39.5q-71 0 -112 -33t-41 -84q0 -46 43 -76q45 -31 159 -53q130 -26 218 -64.5t139 -105.5t51 -170
q0 -95 -56 -170.5t-159 -118t-240 -42.5q-144 0 -250.5 53t-161.5 137t-55 175h275q4 -80 59 -119.5t139 -39.5q168 0 168 114q0 47 -42 78z" />
    <glyph glyph-name="t" unicode="t" horiz-adv-x="692" 
d="M653 7q-81 -27 -174 -27q-148 0 -229 77t-81 243v571h-159v211h159v267h289v-267h184v-211h-184v-541q0 -65 26.5 -88.5t84.5 -23.5q41 0 84 8v-219z" />
    <glyph glyph-name="u" unicode="u" horiz-adv-x="1147" 
d="M768 0l-8 111q-107 -131 -296 -131q-167 0 -262.5 97t-96.5 301v704h289v-702q0 -86 41 -125.5t112 -39.5q148 0 203 103v764h290v-1082h-272z" />
    <glyph glyph-name="v" unicode="v" horiz-adv-x="1036" 
d="M1019 1082l-365 -1082h-275l-366 1082h303l201 -727l200 727h302z" />
    <glyph glyph-name="w" unicode="w" horiz-adv-x="1505" 
d="M1473 1082l-275 -1082h-242l-206 681l-205 -681h-241l-276 1082h279l143 -688l196 688h209l198 -687l141 687h279z" />
    <glyph glyph-name="x" unicode="x" horiz-adv-x="1043" 
d="M346 1082l177 -322l182 322h309l-308 -529l321 -553h-309l-194 341l-191 -341h-311l321 553l-308 529h311z" />
    <glyph glyph-name="y" unicode="y" horiz-adv-x="1029" 
d="M118 -418v219l45 -1q83 0 124.5 26.5t63.5 88.5l32 83l-379 1084h311l201 -674l200 674h309l-433 -1244q-55 -158 -162 -229q-70 -46 -184 -46q-58 0 -128 19z" />
    <glyph glyph-name="z" unicode="z" horiz-adv-x="1043" 
d="M90 849v233h867v-170l-514 -679h529v-233h-898v176l511 673h-495z" />
    <glyph glyph-name="braceleft" unicode="{" horiz-adv-x="677" 
d="M48 722q178 0 178 212v198q0 172 82.5 291.5t277.5 173.5l56 -161q-85 -30 -120.5 -108.5t-35.5 -195.5v-194q0 -229 -178 -319q178 -90 178 -319v-194q0 -117 35.5 -195.5t120.5 -108.5l-56 -162q-194 54 -277 174t-83 292v198q0 211 -178 211v207z" />
    <glyph glyph-name="bar" unicode="|" horiz-adv-x="519" 
d="M349 1456v-1726h-175v1726h175z" />
    <glyph glyph-name="braceright" unicode="}" horiz-adv-x="677" 
d="M628 515q-178 0 -178 -211v-198q0 -172 -83 -292t-277 -174l-56 162q86 30 121 108t35 196v196q0 227 184 317q-184 88 -184 318v195q0 118 -35 196t-121 108l56 161q195 -54 277.5 -173.5t82.5 -291.5v-198q0 -212 178 -212v-207z" />
    <glyph glyph-name="asciitilde" unicode="~" horiz-adv-x="1329" 
d="M1221 794q0 -125 -42.5 -219.5t-118 -146.5t-172.5 -52q-78 0 -140 30t-144 108q-83 77 -152 77q-59 0 -95 -50t-36 -128l-215 3q0 126 42 219t117.5 143t171.5 50q79 0 143.5 -30.5t145.5 -107.5q82 -77 148 -77q39 0 69.5 23.5t47.5 65t17 92.5h213z" />
    <glyph glyph-name="uni00A0" unicode="&#xa0;" horiz-adv-x="510" 
 />
    <glyph glyph-name="exclamdown" unicode="&#xa1;" horiz-adv-x="579" 
d="M407.5 839.5q-44.5 -43.5 -116.5 -43.5q-73 0 -117.5 43.5t-44.5 109.5t44.5 109.5t117.5 43.5q72 0 116.5 -43.5t44.5 -109.5t-44.5 -109.5zM137 -369l34 1008h240l34 -1008h-308z" />
    <glyph glyph-name="cent" unicode="&#xa2;" horiz-adv-x="1179" 
d="M1048 374q0 -97 -45 -178t-124.5 -135t-179.5 -72v-234h-200v233q-131 21 -220.5 96t-134 189t-44.5 255v27q0 139 45 253.5t134.5 189.5t219.5 96v224h200v-224q105 -18 184 -74t122 -143t43 -198h-271q-2 83 -50 136.5t-134 53.5q-80 0 -125 -41.5t-62 -115.5t-17 -185
q0 -146 44 -230t162 -84q79 0 129.5 43.5t52.5 117.5h271z" />
    <glyph glyph-name="sterling" unicode="&#xa3;" horiz-adv-x="1218" 
d="M102 0v242h93q42 10 56.5 58t14.5 121l-5 156h-162v235h154l-7 227q0 136 57 234t159.5 150t237.5 52q143 0 245.5 -51.5t155.5 -145.5t53 -219h-286q0 91 -46.5 132.5t-121.5 41.5q-69 0 -111.5 -50t-42.5 -144l9 -227h310v-235h-300l6 -139q0 -123 -61 -196h652
l-1 -242h-1059z" />
    <glyph glyph-name="currency" unicode="&#xa4;" horiz-adv-x="1418" 
d="M1347 118l-142 -145l-131 135q-160 -128 -362 -128t-361 126l-129 -132l-141 144l136 138q-101 158 -101 352q0 205 109 365l-144 147l141 144l142 -145q154 115 348 115q195 0 349 -117l144 148l142 -145l-147 -150q106 -160 106 -362q0 -191 -98 -349zM357 387.5
q55 -100.5 149 -159t206 -58.5t205.5 58.5t148.5 159t55 220.5t-54.5 220.5t-148.5 158.5t-206 58t-206 -58t-149 -158.5t-55 -220.5t55 -220.5z" />
    <glyph glyph-name="yen" unicode="&#xa5;" horiz-adv-x="1098" 
d="M983 279h-288v-279h-299v279h-306v173h306v116h-306v174h244l-323 714h314l225 -564l225 564h312l-322 -714h218v-174h-288v-116h288v-173z" />
    <glyph glyph-name="brokenbar" unicode="&#xa6;" horiz-adv-x="517" 
d="M388 1456v-758h-260v758h260zM388 -270h-260v795h260v-795z" />
    <glyph glyph-name="section" unicode="&#xa7;" horiz-adv-x="1287" 
d="M1089.5 -282q-63.5 -84 -179.5 -127.5t-273 -43.5q-145 0 -267 40t-198 126q-80 92 -80 251l289 1q0 -102 73 -143t183 -41q227 0 227 139q0 69 -69 110q-71 42 -235 86q-160 43 -260 95t-153 130t-53 193q0 182 163 273q-136 103 -136 288q0 114 64 200.5t181.5 133.5
t273.5 47q162 0 278.5 -49.5t178.5 -145t62 -231.5h-289q0 55 -26.5 98.5t-78 69t-125.5 25.5q-115 0 -172 -40.5t-57 -105.5q0 -74 58 -111q55 -36 235 -83q163 -42 266 -94.5t156.5 -131.5t53.5 -196q0 -181 -161 -271q134 -102 134 -289q0 -119 -63.5 -203zM812 312
q83 47 83 141q0 73 -68 118q-71 45 -242 94l-126 40q-76 -42 -76 -141q0 -77 56 -118q53 -39 233 -92q82 -22 140 -42z" />
    <glyph glyph-name="dieresis" unicode="&#xa8;" horiz-adv-x="956" 
d="M133.5 1456.5q39.5 36.5 99.5 36.5t99 -36.5t39 -90.5t-39 -90.5t-99 -36.5t-99.5 36.5t-39.5 90.5t39.5 90.5zM621 1455.5q39 36.5 99 36.5t99.5 -36.5t39.5 -90.5t-39.5 -90.5t-99.5 -36.5t-99 36.5t-39 90.5t39 90.5z" />
    <glyph glyph-name="copyright" unicode="&#xa9;" horiz-adv-x="1607" 
d="M181.5 1107q94.5 170 258.5 271q161 98 357 98q193 0 354.5 -97.5t258.5 -268.5q96 -169 96 -381q0 -208 -94.5 -378.5t-258.5 -271.5q-160 -99 -356 -99q-194 0 -355.5 98t-258.5 270q-96 170 -96 381q0 208 94.5 378zM287.5 414q78.5 -143 213.5 -226t296 -83
q160 0 294 82t214 224q79 140 79 318q0 174 -77.5 315.5t-213.5 224.5q-133 82 -296 82q-162 0 -296.5 -83t-213 -225.5t-78.5 -313.5q0 -172 78.5 -315zM1118 596q0 -155 -88 -234.5t-247 -79.5q-106 0 -185 48.5t-121.5 136t-42.5 202.5v119q0 114 42.5 202t121.5 136.5
t185 48.5q158 0 247 -80t89 -234h-156q0 179 -180 179q-94 0 -144.5 -68.5t-50.5 -182.5v-120q0 -115 50.5 -183.5t144.5 -68.5q92 0 135.5 41.5t43.5 137.5h156z" />
    <glyph glyph-name="ordfeminine" unicode="&#xaa;" horiz-adv-x="909" 
d="M605 705q-11 34 -17 68q-76 -82 -201 -82q-118 0 -183.5 61.5t-65.5 166.5q0 225 324 231h119v51q0 127 -116 127q-138 0 -138 -99l-173 14q0 67 38.5 120t109.5 83t163 30q135 0 213 -71t78 -205v-314q0 -100 26 -181h-177zM510.5 853q42.5 18 70.5 44v136h-101
q-82 0 -124.5 -32t-42.5 -78q0 -88 117 -88q38 0 80.5 18z" />
    <glyph glyph-name="guillemotleft" unicode="&#xab;" horiz-adv-x="1023" 
d="M356 125l-280 390v19l280 390h187l-239 -400l239 -399h-187zM742 125l-280 390v19l280 390h187l-239 -400l239 -399h-187z" />
    <glyph glyph-name="logicalnot" unicode="&#xac;" horiz-adv-x="1129" 
d="M127 805h835v-431h-200v260h-635v171z" />
    <glyph glyph-name="uni00AD" unicode="&#xad;" horiz-adv-x="795" 
d="M673 741v-234h-562v234h562z" />
    <glyph glyph-name="registered" unicode="&#xae;" horiz-adv-x="1607" 
d="M181.5 1107q94.5 170 258.5 271q161 98 357 98q193 0 354.5 -97.5t258.5 -268.5q96 -169 96 -381q0 -208 -94.5 -378.5t-258.5 -271.5q-160 -99 -356 -99q-194 0 -355.5 98t-258.5 270q-96 170 -96 381q0 208 94.5 378zM287.5 414q78.5 -143 213.5 -226t296 -83
q160 0 294 82t214 224q79 140 79 318q0 174 -77.5 315.5t-213.5 224.5q-133 82 -296 82q-162 0 -296.5 -83t-213 -225.5t-78.5 -313.5q0 -172 78.5 -315zM653 653v-337h-151v850h281q152 0 238.5 -67.5t86.5 -194.5q0 -113 -112 -174q58 -30 83.5 -85t25.5 -141
q0 -87 4 -116q3 -35 13 -56v-16h-155q-9 24 -11 65.5t-2 129.5q0 72 -35.5 107t-107.5 35h-158zM653 1033v-246h135q72 1 121 31.5t49 84.5q0 49 -17 77t-54.5 40.5t-103.5 12.5h-130z" />
    <glyph glyph-name="macron" unicode="&#xaf;" horiz-adv-x="1026" 
d="M858 1455v-167h-690v167h690z" />
    <glyph glyph-name="degree" unicode="&#xb0;" horiz-adv-x="796" 
d="M164 1337.5q37 63.5 99.5 101t135.5 37.5q72 0 133.5 -37.5t97.5 -101t36 -137.5t-36 -136.5t-97.5 -98.5t-133.5 -36q-73 0 -135.5 36t-99.5 98.5t-37 136.5t37 137.5zM290 1137q17 -28 46 -44.5t63 -16.5q51 0 86 35.5t35 88.5q0 55 -35 91.5t-86 36.5q-34 0 -63 -17
t-46 -46t-17 -65q0 -35 17 -63z" />
    <glyph glyph-name="plusminus" unicode="&#xb1;" horiz-adv-x="1101" 
d="M1006 702h-328v-365h-254v365h-334v241h334v343h254v-343h328v-241zM977 237v-236h-863v236h863z" />
    <glyph glyph-name="uni00B2" unicode="&#xb2;" horiz-adv-x="763" 
d="M694 831v-164h-620v138l287 257q55 49 80 92q25 41 25 65q0 84 -96 84q-52 0 -80.5 -32t-28.5 -78h-205q0 76 37.5 138.5t107 99.5t160.5 37q148 0 229 -65t81 -183q0 -57 -23 -103.5t-68 -91t-127 -108.5l-110 -86h351z" />
    <glyph glyph-name="uni00B3" unicode="&#xb3;" horiz-adv-x="763" 
d="M273 1001v137h89q112 0 112 88q0 31 -26.5 54t-79.5 23q-44 0 -72.5 -16.5t-28.5 -44.5h-205q0 71 41 122.5t109.5 77.5t149.5 26q144 0 230.5 -59t86.5 -168q0 -120 -136 -169q150 -40 150 -183q0 -72 -43 -125t-118 -80.5t-170 -27.5q-80 0 -151 25.5t-116.5 81
t-45.5 140.5h206q0 -33 33.5 -57.5t86.5 -24.5q56 0 84.5 25t28.5 63q0 91 -123 92h-92z" />
    <glyph glyph-name="acute" unicode="&#xb4;" horiz-adv-x="680" 
d="M102 1227l196 309h315l-277 -309h-234z" />
    <glyph glyph-name="uni00B5" unicode="&#xb5;" horiz-adv-x="1261" 
d="M429 24v-440h-289v1498h289v-627q0 -95 22 -147.5t60.5 -72.5t97.5 -20q148 0 204 104v763h290v-1082h-270l-5 68q-91 -89 -226 -89q-102 0 -173 45z" />
    <glyph glyph-name="paragraph" unicode="&#xb6;" horiz-adv-x="1004" 
d="M870 0h-219v520h-90q-152 1 -261.5 61.5t-166.5 166t-57 240.5t57.5 241t168.5 166.5t266 60.5h302v-1456z" />
    <glyph glyph-name="periodcentered" unicode="&#xb7;" horiz-adv-x="617" 
d="M185 808q45 44 119 44q73 0 118 -44t45 -111q0 -43 -20 -78.5t-57.5 -55.5t-85.5 -20q-74 0 -119 44t-45 110q0 67 45 111z" />
    <glyph glyph-name="cedilla" unicode="&#xb8;" horiz-adv-x="549" 
d="M129 7h217l-11 -58q64 -11 107 -52.5t43 -120.5q0 -110 -90 -174t-260 -64l-7 166q113 0 113 82q0 40 -32 56.5t-111 21.5z" />
    <glyph glyph-name="uni00B9" unicode="&#xb9;" horiz-adv-x="763" 
d="M528 1454v-787h-203v549l-189 -41v158l373 121h19z" />
    <glyph glyph-name="ordmasculine" unicode="&#xba;" horiz-adv-x="937" 
d="M119 1121q0 103 42.5 183.5t121 126t182.5 45.5q106 0 184.5 -45t120.5 -126t42 -184v-77q0 -103 -42 -183.5t-120 -125.5t-183 -45q-106 0 -184.5 45t-121 125.5t-42.5 183.5v77zM294 1044q0 -93 44 -150.5t129 -57.5q82 0 126 57.5t44 150.5v77q0 92 -44 149.5
t-128 57.5q-83 0 -127 -57.5t-44 -149.5v-77z" />
    <glyph glyph-name="guillemotright" unicode="&#xbb;" horiz-adv-x="1023" 
d="M272 924l281 -390v-19l-281 -390h-186l239 399l-239 400h186zM665 924l281 -390v-19l-281 -390h-186l239 399l-239 400h186z" />
    <glyph glyph-name="onequarter" unicode="&#xbc;" horiz-adv-x="1470" 
d="M493 1451v-787h-203v549l-189 -41v158l373 121h19zM1169 1255l-711 -1138l-140 76l711 1138zM1391 160h-88v-160h-206v160h-345l-12 135l357 494h206v-462h88v-167zM935 327h162v211l-14 -22z" />
    <glyph glyph-name="onehalf" unicode="&#xbd;" horiz-adv-x="1559" 
d="M476 1457v-787h-203v549l-189 -41v158l373 121h19zM1127 1255l-711 -1138l-140 76l711 1138zM1478 164v-164h-620v138l287 257q55 49 80 92q25 41 25 65q0 84 -96 84q-52 0 -80.5 -31.5t-28.5 -78.5h-205q0 75 37.5 138t107 100t160.5 37q148 0 229 -65t81 -183
q0 -57 -21 -101.5t-65.5 -89t-126.5 -108.5l-115 -90h351z" />
    <glyph glyph-name="threequarters" unicode="&#xbe;" horiz-adv-x="1655" 
d="M319 1001v137h89q112 0 112 88q0 31 -26.5 54t-79.5 23q-44 0 -72.5 -16.5t-28.5 -44.5h-205q0 71 41 122.5t109.5 77.5t149.5 26q144 0 230.5 -59t86.5 -168q0 -120 -136 -169q150 -40 150 -183q0 -72 -43 -125t-118 -80.5t-170 -27.5q-80 0 -151 25.5t-116.5 81
t-45.5 140.5h206q0 -33 33.5 -57.5t86.5 -24.5q56 0 84.5 25t28.5 63q0 91 -123 92h-92zM1330 1255l-711 -1138l-140 76l711 1138zM1549 160h-88v-160h-206v160h-345l-12 135l357 494h206v-462h88v-167zM1093 327h162v211l-14 -22z" />
    <glyph glyph-name="questiondown" unicode="&#xbf;" horiz-adv-x="1020" 
d="M657.5 840.5q-44.5 -43.5 -116.5 -43.5q-73 0 -117.5 43.5t-44.5 109.5q0 43 20 77.5t57 55t85 20.5q47 0 84 -20.5t57 -55.5t20 -77q0 -66 -44.5 -109.5zM666 643q0 -92 -13.5 -156t-45 -116t-88.5 -105q-59 -57 -89 -90t-50 -75t-20 -93q0 -157 154 -157q73 0 120.5 43
t48.5 128h290q-2 -134 -61 -225.5t-160.5 -136.5t-232.5 -45q-213 0 -331 101.5t-118 290.5q0 82 33.5 150t81 120.5t139.5 138.5q51 47 67.5 96t18.5 131h256z" />
    <glyph glyph-name="Agrave" unicode="&#xc0;" horiz-adv-x="1379" 
d="M638 1846l197 -309h-237l-276 309h316zM8 0l542 1456h278l545 -1456h-320l-100 300h-527l-100 -300h-318zM507 543h365l-182 547z" />
    <glyph glyph-name="Aacute" unicode="&#xc1;" horiz-adv-x="1379" 
d="M554 1537l196 309h315l-277 -309h-234zM8 0l542 1456h278l545 -1456h-320l-100 300h-527l-100 -300h-318zM507 543h365l-182 547z" />
    <glyph glyph-name="Acircumflex" unicode="&#xc2;" horiz-adv-x="1379" 
d="M776 1847l300 -280v-12h-229l-155 144l-154 -144h-225v15l296 277h167zM8 0l542 1456h278l545 -1456h-320l-100 300h-527l-100 -300h-318zM507 543h365l-182 547z" />
    <glyph glyph-name="Atilde" unicode="&#xc3;" horiz-adv-x="1379" 
d="M1068 1831q0 -73 -29.5 -134t-81 -96.5t-116.5 -35.5q-39 0 -70.5 9.5t-50 19.5t-63.5 36q-37 21 -90 21q-84 0 -84 -95l-167 9q0 72 29.5 133.5t81 98t115.5 36.5q81 0 140 -43q58 -43 134 -43q37 0 61 26t24 70zM8 0l542 1456h278l545 -1456h-320l-100 300h-527
l-100 -300h-318zM507 543h365l-182 547z" />
    <glyph glyph-name="Adieresis" unicode="&#xc4;" horiz-adv-x="1379" 
d="M348.5 1766.5q39.5 36.5 99.5 36.5t99 -36.5t39 -90.5t-39 -90.5t-99 -36.5t-99.5 36.5t-39.5 90.5t39.5 90.5zM836 1765.5q39 36.5 99 36.5t99.5 -36.5t39.5 -90.5t-39.5 -90.5t-99.5 -36.5t-99 36.5t-39 90.5t39 90.5zM8 0l542 1456h278l545 -1456h-320l-100 300h-527
l-100 -300h-318zM507 543h365l-182 547z" />
    <glyph glyph-name="Aring" unicode="&#xc5;" horiz-adv-x="1379" 
d="M500 1832q29 47 80 75t114 28t114 -28t80 -75t29 -102q0 -56 -29 -102t-80 -73t-114 -27t-114 27t-80 73t-29 102q0 55 29 102zM616 1654q30 -31 78 -31t78 31t30 76t-30 77t-78 32t-78 -32t-30 -77t30 -76zM8 0l542 1456h278l545 -1456h-320l-100 300h-527l-100 -300
h-318zM507 543h365l-182 547z" />
    <glyph glyph-name="AE" unicode="&#xc6;" horiz-adv-x="1926" 
d="M1866 236v-236h-898l-14 334h-444l-168 -334h-339l786 1456h1015v-236h-597l15 -354h501v-236h-491l16 -394h618zM634 581h310l-24 569z" />
    <glyph glyph-name="Ccedilla" unicode="&#xc7;" horiz-adv-x="1341" 
d="M895 289.5q68 63.5 79 195.5h300q-9 -133 -68 -239t-164 -173.5t-248 -85.5l-8 -41q64 -11 107 -52.5t43 -120.5q0 -110 -90 -174t-260 -64l-7 166q113 0 113 82q0 40 -32 56.5t-111 21.5l28 128q-153 24 -263.5 114.5t-169 237.5t-58.5 339v95q0 213 74.5 372
t211.5 244.5t319 85.5q177 0 303.5 -65t196.5 -181t84 -269h-300q-10 136 -75 202.5t-209 66.5q-292 0 -300 -431v-120q0 -231 70 -342.5t227 -111.5q139 0 207 63.5z" />
    <glyph glyph-name="Egrave" unicode="&#xc8;" horiz-adv-x="1152" 
d="M581 1849l197 -309h-237l-276 309h316zM130 0v1456h974v-243h-673v-347h575v-235h-575v-389h676v-242h-977z" />
    <glyph glyph-name="Eacute" unicode="&#xc9;" horiz-adv-x="1152" 
d="M497 1540l196 309h315l-277 -309h-234zM130 0v1456h974v-243h-673v-347h575v-235h-575v-389h676v-242h-977z" />
    <glyph glyph-name="Ecircumflex" unicode="&#xca;" horiz-adv-x="1152" 
d="M719 1850l300 -280v-12h-229l-155 144l-154 -144h-225v15l296 277h167zM130 0v1456h974v-243h-673v-347h575v-235h-575v-389h676v-242h-977z" />
    <glyph glyph-name="Edieresis" unicode="&#xcb;" horiz-adv-x="1152" 
d="M291.5 1769.5q39.5 36.5 99.5 36.5t99 -36.5t39 -90.5t-39 -90.5t-99 -36.5t-99.5 36.5t-39.5 90.5t39.5 90.5zM779 1768.5q39 36.5 99 36.5t99.5 -36.5t39.5 -90.5t-39.5 -90.5t-99.5 -36.5t-99 36.5t-39 90.5t39 90.5zM130 0v1456h974v-243h-673v-347h575v-235h-575
v-389h676v-242h-977z" />
    <glyph glyph-name="Igrave" unicode="&#xcc;" horiz-adv-x="598" 
d="M244 1849l197 -309h-237l-276 309h316zM449 1456v-1456h-300v1456h300z" />
    <glyph glyph-name="Iacute" unicode="&#xcd;" horiz-adv-x="598" 
d="M160 1540l196 309h315l-277 -309h-234zM449 1456v-1456h-300v1456h300z" />
    <glyph glyph-name="Icircumflex" unicode="&#xce;" horiz-adv-x="598" 
d="M382 1850l300 -280v-12h-229l-155 144l-154 -144h-225v15l296 277h167zM449 1456v-1456h-300v1456h300z" />
    <glyph glyph-name="Idieresis" unicode="&#xcf;" horiz-adv-x="598" 
d="M-45.5 1769.5q39.5 36.5 99.5 36.5t99 -36.5t39 -90.5t-39 -90.5t-99 -36.5t-99.5 36.5t-39.5 90.5t39.5 90.5zM442 1768.5q39 36.5 99 36.5t99.5 -36.5t39.5 -90.5t-39.5 -90.5t-99.5 -36.5t-99 36.5t-39 90.5t39 90.5zM449 1456v-1456h-300v1456h300z" />
    <glyph glyph-name="Eth" unicode="&#xd0;" horiz-adv-x="1362" 
d="M11 824h149v632h449q194 0 345 -87.5t235.5 -245.5t84.5 -363v-65q0 -206 -84.5 -363.5t-236 -244.5t-348.5 -87h-445v641h-149v183zM711 641h-250v-399h144q178 0 271 117t93 336v67q0 445 -351 451h-157v-389h250v-183z" />
    <glyph glyph-name="Ntilde" unicode="&#xd1;" horiz-adv-x="1447" 
d="M1102 1831q0 -73 -29.5 -134t-81 -96.5t-116.5 -35.5q-39 0 -70.5 9.5t-50 19.5t-63.5 36q-37 21 -90 21q-84 0 -84 -95l-167 9q0 72 29.5 133.5t81 98t115.5 36.5q81 0 140 -43q58 -43 134 -43q37 0 61 26t24 70zM1315 1456v-1456h-300l-584 959v-959h-301v1456h301
l584 -960v960h300z" />
    <glyph glyph-name="Ograve" unicode="&#xd2;" horiz-adv-x="1414" 
d="M652 1846l197 -309h-237l-276 309h316zM1327 695q0 -218 -78 -380t-218.5 -248.5t-322.5 -86.5t-323 86.5t-220 248.5t-79 380v65q0 218 78.5 380t219 249t322.5 87t323 -87t219.5 -249t78.5 -380v-65zM1023 762q0 226 -82.5 346t-234.5 120t-233.5 -118t-82.5 -343v-72
q0 -226 82.5 -347t235.5 -121q151 0 232.5 119.5t82.5 343.5v72z" />
    <glyph glyph-name="Oacute" unicode="&#xd3;" horiz-adv-x="1414" 
d="M568 1537l196 309h315l-277 -309h-234zM1327 695q0 -218 -78 -380t-218.5 -248.5t-322.5 -86.5t-323 86.5t-220 248.5t-79 380v65q0 218 78.5 380t219 249t322.5 87t323 -87t219.5 -249t78.5 -380v-65zM1023 762q0 226 -82.5 346t-234.5 120t-233.5 -118t-82.5 -343v-72
q0 -226 82.5 -347t235.5 -121q151 0 232.5 119.5t82.5 343.5v72z" />
    <glyph glyph-name="Ocircumflex" unicode="&#xd4;" horiz-adv-x="1414" 
d="M790 1847l300 -280v-12h-229l-155 144l-154 -144h-225v15l296 277h167zM1327 695q0 -218 -78 -380t-218.5 -248.5t-322.5 -86.5t-323 86.5t-220 248.5t-79 380v65q0 218 78.5 380t219 249t322.5 87t323 -87t219.5 -249t78.5 -380v-65zM1023 762q0 226 -82.5 346
t-234.5 120t-233.5 -118t-82.5 -343v-72q0 -226 82.5 -347t235.5 -121q151 0 232.5 119.5t82.5 343.5v72z" />
    <glyph glyph-name="Otilde" unicode="&#xd5;" horiz-adv-x="1414" 
d="M1082 1831q0 -73 -29.5 -134t-81 -96.5t-116.5 -35.5q-39 0 -70.5 9.5t-50 19.5t-63.5 36q-38 21 -90 21q-84 0 -84 -95l-167 9q0 72 29.5 133.5t81 98t115.5 36.5q81 0 140 -43q58 -43 134 -43q37 0 61 26t24 70zM1327 695q0 -218 -78 -380t-218.5 -248.5t-322.5 -86.5
t-323 86.5t-220 248.5t-79 380v65q0 218 78.5 380t219 249t322.5 87t323 -87t219.5 -249t78.5 -380v-65zM1023 762q0 226 -82.5 346t-234.5 120t-233.5 -118t-82.5 -343v-72q0 -226 82.5 -347t235.5 -121q151 0 232.5 119.5t82.5 343.5v72z" />
    <glyph glyph-name="Odieresis" unicode="&#xd6;" horiz-adv-x="1414" 
d="M362.5 1766.5q39.5 36.5 99.5 36.5t99 -36.5t39 -90.5t-39 -90.5t-99 -36.5t-99.5 36.5t-39.5 90.5t39.5 90.5zM850 1765.5q39 36.5 99 36.5t99.5 -36.5t39.5 -90.5t-39.5 -90.5t-99.5 -36.5t-99 36.5t-39 90.5t39 90.5zM1327 695q0 -218 -78 -380t-218.5 -248.5
t-322.5 -86.5t-323 86.5t-220 248.5t-79 380v65q0 218 78.5 380t219 249t322.5 87t323 -87t219.5 -249t78.5 -380v-65zM1023 762q0 226 -82.5 346t-234.5 120t-233.5 -118t-82.5 -343v-72q0 -226 82.5 -347t235.5 -121q151 0 232.5 119.5t82.5 343.5v72z" />
    <glyph glyph-name="multiply" unicode="&#xd7;" horiz-adv-x="1088" 
d="M1015 374l-171 -169l-304 310l-304 -310l-171 169l307 312l-307 313l171 169l304 -310l304 310l171 -169l-307 -313z" />
    <glyph glyph-name="Oslash" unicode="&#xd8;" horiz-adv-x="1411" 
d="M421 50l-86 -145h-187l143 241q-197 197 -197 559v55q0 218 78 380t218.5 249t322.5 87q177 0 316 -82l73 124h187l-134 -227q179 -194 179 -540v-56q0 -219 -77.5 -380.5t-218 -248t-323.5 -86.5q-164 0 -294 70zM397 695q0 -171 50 -285l447 757q-73 61 -181 61
q-151 0 -233 -118.5t-83 -342.5v-72zM1030 762q0 151 -37 255l-440 -743q70 -47 162 -47q151 0 232.5 119.5t82.5 343.5v72z" />
    <glyph glyph-name="Ugrave" unicode="&#xd9;" horiz-adv-x="1348" 
d="M617 1846l197 -309h-237l-276 309h316zM932 1456h301v-960q0 -165 -71 -281.5t-197 -175.5t-290 -59q-165 0 -291.5 59t-197 175t-70.5 282v960h301v-960q0 -140 66.5 -207t191.5 -67q251 0 257 261v973z" />
    <glyph glyph-name="Uacute" unicode="&#xda;" horiz-adv-x="1348" 
d="M533 1537l196 309h315l-277 -309h-234zM932 1456h301v-960q0 -165 -71 -281.5t-197 -175.5t-290 -59q-165 0 -291.5 59t-197 175t-70.5 282v960h301v-960q0 -140 66.5 -207t191.5 -67q251 0 257 261v973z" />
    <glyph glyph-name="Ucircumflex" unicode="&#xdb;" horiz-adv-x="1348" 
d="M755 1847l300 -280v-12h-229l-155 144l-154 -144h-225v15l296 277h167zM932 1456h301v-960q0 -165 -71 -281.5t-197 -175.5t-290 -59q-165 0 -291.5 59t-197 175t-70.5 282v960h301v-960q0 -140 66.5 -207t191.5 -67q251 0 257 261v973z" />
    <glyph glyph-name="Udieresis" unicode="&#xdc;" horiz-adv-x="1348" 
d="M327.5 1766.5q39.5 36.5 99.5 36.5t99 -36.5t39 -90.5t-39 -90.5t-99 -36.5t-99.5 36.5t-39.5 90.5t39.5 90.5zM815 1765.5q39 36.5 99 36.5t99.5 -36.5t39.5 -90.5t-39.5 -90.5t-99.5 -36.5t-99 36.5t-39 90.5t39 90.5zM932 1456h301v-960q0 -165 -71 -281.5
t-197 -175.5t-290 -59q-165 0 -291.5 59t-197 175t-70.5 282v960h301v-960q0 -140 66.5 -207t191.5 -67q251 0 257 261v973z" />
    <glyph glyph-name="Yacute" unicode="&#xdd;" horiz-adv-x="1267" 
d="M497 1537l196 309h315l-277 -309h-234zM331 1456l302 -656l302 656h329l-479 -928v-528h-304v528l-479 928h329z" />
    <glyph glyph-name="Thorn" unicode="&#xde;" horiz-adv-x="1246" 
d="M423 287v-287h-290v1456h290v-267h230q168 -1 287 -59t180.5 -159.5t61.5 -232.5q0 -132 -62.5 -234t-183.5 -159.5t-291 -57.5h-222zM423 956v-436h222q84 0 139.5 29.5t81.5 78.5t26 108q0 61 -26 110.5t-81 79.5t-140 30h-222z" />
    <glyph glyph-name="germandbls" unicode="&#xdf;" horiz-adv-x="1292" 
d="M424 0h-288v1102q0 148 57.5 251t164 155t251.5 52q119 0 214.5 -42.5t151.5 -125.5t56 -202q0 -79 -17.5 -125.5t-51.5 -96.5l-11 -17q-27 -43 -27 -120q0 -32 19.5 -63t48 -57.5t83.5 -73.5q69 -60 109.5 -128t40.5 -154q0 -180 -115.5 -277.5t-330.5 -97.5
q-79 0 -159.5 16t-119.5 40l55 229q94 -52 218 -52q164 0 164 137q0 38 -19.5 71t-49.5 60.5t-82 67.5q-70 55 -110.5 117.5t-40.5 151.5q0 68 17.5 113t51.5 98l14 23q27 47 27 123q0 69 -43.5 110.5t-112.5 41.5q-81 0 -123 -53.5t-42 -176.5v-1097z" />
    <glyph glyph-name="agrave" unicode="&#xe0;" horiz-adv-x="1098" 
d="M497 1536l197 -309h-237l-276 309h316zM738 0q-19 39 -29 97q-105 -117 -273 -117q-102 0 -186 42t-132.5 116t-48.5 166q0 172 127 264.5t372 92.5h129v63q0 78 -39.5 121t-120.5 43q-155 0 -155 -130h-289q0 94 57 173t162 125t241 46q127 0 225 -43t153.5 -128.5
t55.5 -208.5v-482q1 -141 43 -223v-17h-292zM620 231.5q53 30.5 77 73.5v188h-118q-110 0 -165.5 -46.5t-55.5 -121.5q0 -55 38 -89.5t103 -34.5q68 0 121 30.5z" />
    <glyph glyph-name="aacute" unicode="&#xe1;" horiz-adv-x="1098" 
d="M413 1227l196 309h315l-277 -309h-234zM738 0q-19 39 -29 97q-105 -117 -273 -117q-102 0 -186 42t-132.5 116t-48.5 166q0 172 127 264.5t372 92.5h129v63q0 78 -39.5 121t-120.5 43q-155 0 -155 -130h-289q0 94 57 173t162 125t241 46q127 0 225 -43t153.5 -128.5
t55.5 -208.5v-482q1 -141 43 -223v-17h-292zM620 231.5q53 30.5 77 73.5v188h-118q-110 0 -165.5 -46.5t-55.5 -121.5q0 -55 38 -89.5t103 -34.5q68 0 121 30.5z" />
    <glyph glyph-name="acircumflex" unicode="&#xe2;" horiz-adv-x="1098" 
d="M635 1537l300 -280v-12h-229l-155 144l-154 -144h-225v15l296 277h167zM738 0q-19 39 -29 97q-105 -117 -273 -117q-102 0 -186 42t-132.5 116t-48.5 166q0 172 127 264.5t372 92.5h129v63q0 78 -39.5 121t-120.5 43q-155 0 -155 -130h-289q0 94 57 173t162 125t241 46
q127 0 225 -43t153.5 -128.5t55.5 -208.5v-482q1 -141 43 -223v-17h-292zM620 231.5q53 30.5 77 73.5v188h-118q-110 0 -165.5 -46.5t-55.5 -121.5q0 -55 38 -89.5t103 -34.5q68 0 121 30.5z" />
    <glyph glyph-name="atilde" unicode="&#xe3;" horiz-adv-x="1098" 
d="M927 1521q0 -73 -29.5 -134t-81 -96.5t-116.5 -35.5q-39 0 -70.5 9.5t-50 19.5t-63.5 36q-37 21 -90 21q-84 0 -84 -95l-167 9q0 72 29.5 133.5t81 98t115.5 36.5q81 0 140 -43q58 -43 134 -43q37 0 61 26t24 70zM738 0q-19 39 -29 97q-105 -117 -273 -117
q-102 0 -186 42t-132.5 116t-48.5 166q0 172 127 264.5t372 92.5h129v63q0 78 -39.5 121t-120.5 43q-155 0 -155 -130h-289q0 94 57 173t162 125t241 46q127 0 225 -43t153.5 -128.5t55.5 -208.5v-482q1 -141 43 -223v-17h-292zM620 231.5q53 30.5 77 73.5v188h-118
q-110 0 -165.5 -46.5t-55.5 -121.5q0 -55 38 -89.5t103 -34.5q68 0 121 30.5z" />
    <glyph glyph-name="adieresis" unicode="&#xe4;" horiz-adv-x="1098" 
d="M207.5 1456.5q39.5 36.5 99.5 36.5t99 -36.5t39 -90.5t-39 -90.5t-99 -36.5t-99.5 36.5t-39.5 90.5t39.5 90.5zM695 1455.5q39 36.5 99 36.5t99.5 -36.5t39.5 -90.5t-39.5 -90.5t-99.5 -36.5t-99 36.5t-39 90.5t39 90.5zM738 0q-19 39 -29 97q-105 -117 -273 -117
q-102 0 -186 42t-132.5 116t-48.5 166q0 172 127 264.5t372 92.5h129v63q0 78 -39.5 121t-120.5 43q-155 0 -155 -130h-289q0 94 57 173t162 125t241 46q127 0 225 -43t153.5 -128.5t55.5 -208.5v-482q1 -141 43 -223v-17h-292zM620 231.5q53 30.5 77 73.5v188h-118
q-110 0 -165.5 -46.5t-55.5 -121.5q0 -55 38 -89.5t103 -34.5q68 0 121 30.5z" />
    <glyph glyph-name="aring" unicode="&#xe5;" horiz-adv-x="1098" 
d="M359 1522q29 47 80 75t114 28t114 -28t80 -75t29 -102q0 -56 -29 -102t-80 -73t-114 -27t-114 27t-80 73t-29 102q0 55 29 102zM475 1344q30 -31 78 -31t78 31t30 76t-30 77t-78 32t-78 -32t-30 -77t30 -76zM738 0q-19 39 -29 97q-105 -117 -273 -117q-102 0 -186 42
t-132.5 116t-48.5 166q0 172 127 264.5t372 92.5h129v63q0 78 -39.5 121t-120.5 43q-155 0 -155 -130h-289q0 94 57 173t162 125t241 46q127 0 225 -43t153.5 -128.5t55.5 -208.5v-482q1 -141 43 -223v-17h-292zM620 231.5q53 30.5 77 73.5v188h-118q-110 0 -165.5 -46.5
t-55.5 -121.5q0 -55 38 -89.5t103 -34.5q68 0 121 30.5z" />
    <glyph glyph-name="ae" unicode="&#xe6;" horiz-adv-x="1730" 
d="M1648 101q-59 -48 -166.5 -84.5t-234.5 -36.5q-246 0 -387 147q-61 -64 -160.5 -105.5t-233.5 -41.5q-128 0 -217.5 41.5t-135.5 117.5t-46 180q0 158 125 244t365 87h169v56q0 163 -158 163q-54 0 -94.5 -16.5t-62 -45t-21.5 -62.5l-289 19q0 97 58.5 174t165 120.5
t246.5 43.5q212 0 327 -110q61 53 147 82t177 29q99 0 187 -33.5t148 -99.5q120 -132 120 -358v-162h-668q12 -109 78 -173t190 -64q94 0 157 19.5t138 57.5zM1077 809.5q-51 -59.5 -65 -164.5h381v27q0 92 -42 144.5t-128 52.5q-95 0 -146 -59.5zM630 215q56 23 96 57v189
h-162q-65 0 -112.5 -20t-71.5 -53.5t-24 -72.5q0 -123 166 -123q52 0 108 23z" />
    <glyph glyph-name="ccedilla" unicode="&#xe7;" horiz-adv-x="1069" 
d="M691.5 257q50.5 44 51.5 117h272q-1 -97 -46.5 -178.5t-125 -135t-180.5 -71.5l-8 -43q64 -11 107 -52.5t43 -120.5q0 -110 -90 -174t-260 -64l-7 166q113 0 113 82q0 40 -32 56.5t-111 21.5l28 130q-124 25 -209.5 100t-128 187.5t-42.5 248.5v28q0 156 56 280
t168.5 195.5t274.5 71.5q132 0 233.5 -51.5t158.5 -147.5t58 -224h-272q-1 53 -22.5 96.5t-62.5 68.5t-98 25q-81 0 -125.5 -41.5t-61.5 -115.5t-17 -185q0 -146 43.5 -230t161.5 -84q80 0 130.5 44z" />
    <glyph glyph-name="egrave" unicode="&#xe8;" horiz-adv-x="1107" 
d="M491 1537l197 -309h-237l-276 309h316zM1032 176q-58 -83 -166.5 -139.5t-255.5 -56.5q-163 0 -285 69t-186.5 188t-65.5 264v42q0 163 62 290t176.5 198t266.5 71q153 0 260 -65.5t162 -185.5t55 -281v-123h-689q15 -107 84 -170.5t178 -63.5q165 0 261 121zM436 809.5
q-51 -59.5 -67 -164.5h402v22q-2 92 -50.5 147t-144.5 55q-89 0 -140 -59.5z" />
    <glyph glyph-name="eacute" unicode="&#xe9;" horiz-adv-x="1107" 
d="M407 1228l196 309h315l-277 -309h-234zM1032 176q-58 -83 -166.5 -139.5t-255.5 -56.5q-163 0 -285 69t-186.5 188t-65.5 264v42q0 163 62 290t176.5 198t266.5 71q153 0 260 -65.5t162 -185.5t55 -281v-123h-689q15 -107 84 -170.5t178 -63.5q165 0 261 121zM436 809.5
q-51 -59.5 -67 -164.5h402v22q-2 92 -50.5 147t-144.5 55q-89 0 -140 -59.5z" />
    <glyph glyph-name="ecircumflex" unicode="&#xea;" horiz-adv-x="1107" 
d="M629 1538l300 -280v-12h-229l-155 144l-154 -144h-225v15l296 277h167zM1032 176q-58 -83 -166.5 -139.5t-255.5 -56.5q-163 0 -285 69t-186.5 188t-65.5 264v42q0 163 62 290t176.5 198t266.5 71q153 0 260 -65.5t162 -185.5t55 -281v-123h-689q15 -107 84 -170.5
t178 -63.5q165 0 261 121zM436 809.5q-51 -59.5 -67 -164.5h402v22q-2 92 -50.5 147t-144.5 55q-89 0 -140 -59.5z" />
    <glyph glyph-name="edieresis" unicode="&#xeb;" horiz-adv-x="1107" 
d="M201.5 1457.5q39.5 36.5 99.5 36.5t99 -36.5t39 -90.5t-39 -90.5t-99 -36.5t-99.5 36.5t-39.5 90.5t39.5 90.5zM689 1456.5q39 36.5 99 36.5t99.5 -36.5t39.5 -90.5t-39.5 -90.5t-99.5 -36.5t-99 36.5t-39 90.5t39 90.5zM1032 176q-58 -83 -166.5 -139.5t-255.5 -56.5
q-163 0 -285 69t-186.5 188t-65.5 264v42q0 163 62 290t176.5 198t266.5 71q153 0 260 -65.5t162 -185.5t55 -281v-123h-689q15 -107 84 -170.5t178 -63.5q165 0 261 121zM436 809.5q-51 -59.5 -67 -164.5h402v22q-2 92 -50.5 147t-144.5 55q-89 0 -140 -59.5z" />
    <glyph glyph-name="igrave" unicode="&#xec;" horiz-adv-x="561" 
d="M226 1521l197 -309h-237l-276 309h316zM424 1082v-1082h-290v1082h290z" />
    <glyph glyph-name="iacute" unicode="&#xed;" horiz-adv-x="561" 
d="M142 1212l196 309h315l-277 -309h-234zM424 1082v-1082h-290v1082h290z" />
    <glyph glyph-name="icircumflex" unicode="&#xee;" horiz-adv-x="561" 
d="M364 1522l300 -280v-12h-229l-155 144l-154 -144h-225v15l296 277h167zM424 1082v-1082h-290v1082h290z" />
    <glyph glyph-name="idieresis" unicode="&#xef;" horiz-adv-x="561" 
d="M-63.5 1441.5q39.5 36.5 99.5 36.5t99 -36.5t39 -90.5t-39 -90.5t-99 -36.5t-99.5 36.5t-39.5 90.5t39.5 90.5zM424 1440.5q39 36.5 99 36.5t99.5 -36.5t39.5 -90.5t-39.5 -90.5t-99.5 -36.5t-99 36.5t-39 90.5t39 90.5zM424 1082v-1082h-290v1082h290z" />
    <glyph glyph-name="eth" unicode="&#xf0;" horiz-adv-x="1179" 
d="M1106 577q0 -174 -67 -310t-185.5 -211.5t-266.5 -75.5q-147 0 -261 64.5t-177.5 176t-63.5 247.5q0 149 54 261.5t156 174.5t242 62q137 0 243 -75q-50 155 -166 264l-190 -121l-78 114l152 97q-116 72 -264 111l91 224q236 -49 415 -180l171 109l78 -115l-139 -89
q123 -125 189.5 -291.5t66.5 -363.5v-73zM400 339q26 -58 75 -92t116 -34q72 0 122.5 43t76.5 119t26 173v117q-67 82 -214 82q-112 0 -170 -73.5t-58 -205.5q0 -71 26 -129z" />
    <glyph glyph-name="ntilde" unicode="&#xf1;" horiz-adv-x="1147" 
d="M952 1521q0 -73 -29.5 -134t-81 -96.5t-116.5 -35.5q-39 0 -70.5 9.5t-50 19.5t-63.5 36q-37 21 -90 21q-84 0 -84 -95l-167 9q0 72 29.5 133.5t81 98t115.5 36.5q81 0 140 -43q58 -43 134 -43q37 0 61 26t24 70zM395 764v-764h-289v1082h271l10 -124q116 144 311 144
q162 0 251.5 -96t90.5 -312v-694h-290v690q0 100 -42 139t-130 39q-123 0 -183 -104z" />
    <glyph glyph-name="ograve" unicode="&#xf2;" horiz-adv-x="1158" 
d="M522 1536l197 -309h-237l-276 309h316zM66 551q0 159 61 284t176.5 196t274.5 71q160 0 276 -71t176.5 -196t60.5 -284v-21q0 -159 -60.5 -283.5t-175.5 -195.5t-275 -71q-158 0 -273.5 69t-176.5 191t-64 277v34zM410 300q54 -87 170 -87q222 0 222 338q0 141 -54 229.5
t-170 88.5q-222 0 -222 -339q0 -143 54 -230z" />
    <glyph glyph-name="oacute" unicode="&#xf3;" horiz-adv-x="1158" 
d="M438 1227l196 309h315l-277 -309h-234zM66 551q0 159 61 284t176.5 196t274.5 71q160 0 276 -71t176.5 -196t60.5 -284v-21q0 -159 -60.5 -283.5t-175.5 -195.5t-275 -71q-158 0 -273.5 69t-176.5 191t-64 277v34zM410 300q54 -87 170 -87q222 0 222 338q0 141 -54 229.5
t-170 88.5q-222 0 -222 -339q0 -143 54 -230z" />
    <glyph glyph-name="ocircumflex" unicode="&#xf4;" horiz-adv-x="1158" 
d="M660 1537l300 -280v-12h-229l-155 144l-154 -144h-225v15l296 277h167zM66 551q0 159 61 284t176.5 196t274.5 71q160 0 276 -71t176.5 -196t60.5 -284v-21q0 -159 -60.5 -283.5t-175.5 -195.5t-275 -71q-158 0 -273.5 69t-176.5 191t-64 277v34zM410 300q54 -87 170 -87
q222 0 222 338q0 141 -54 229.5t-170 88.5q-222 0 -222 -339q0 -143 54 -230z" />
    <glyph glyph-name="otilde" unicode="&#xf5;" horiz-adv-x="1158" 
d="M952 1521q0 -73 -29.5 -134t-81 -96.5t-116.5 -35.5q-39 0 -70.5 9.5t-50 19.5t-63.5 36q-37 21 -90 21q-84 0 -84 -95l-167 9q0 72 29.5 133.5t81 98t115.5 36.5q81 0 140 -43q58 -43 134 -43q37 0 61 26t24 70zM66 551q0 159 61 284t176.5 196t274.5 71q160 0 276 -71
t176.5 -196t60.5 -284v-21q0 -159 -60.5 -283.5t-175.5 -195.5t-275 -71q-158 0 -273.5 69t-176.5 191t-64 277v34zM410 300q54 -87 170 -87q222 0 222 338q0 141 -54 229.5t-170 88.5q-222 0 -222 -339q0 -143 54 -230z" />
    <glyph glyph-name="odieresis" unicode="&#xf6;" horiz-adv-x="1158" 
d="M232.5 1456.5q39.5 36.5 99.5 36.5t99 -36.5t39 -90.5t-39 -90.5t-99 -36.5t-99.5 36.5t-39.5 90.5t39.5 90.5zM720 1455.5q39 36.5 99 36.5t99.5 -36.5t39.5 -90.5t-39.5 -90.5t-99.5 -36.5t-99 36.5t-39 90.5t39 90.5zM66 551q0 159 61 284t176.5 196t274.5 71
q160 0 276 -71t176.5 -196t60.5 -284v-21q0 -159 -60.5 -283.5t-175.5 -195.5t-275 -71q-158 0 -273.5 69t-176.5 191t-64 277v34zM410 300q54 -87 170 -87q222 0 222 338q0 141 -54 229.5t-170 88.5q-222 0 -222 -339q0 -143 54 -230z" />
    <glyph glyph-name="divide" unicode="&#xf7;" horiz-adv-x="1168" 
d="M460 1199q45 42 119 42t118.5 -42t44.5 -109t-44.5 -109t-118.5 -42t-119 42t-45 109t45 109zM1092 802v-231h-1028v231h1028zM460 387q45 42 119 42t118.5 -42t44.5 -109t-44.5 -109t-118.5 -42t-119 42t-45 109t45 109z" />
    <glyph glyph-name="oslash" unicode="&#xf8;" horiz-adv-x="1156" 
d="M403 6l-72 -148h-161l104 213q-205 145 -208 450v30q0 159 61 284t176.5 196t274.5 71q98 0 185 -29l70 143h161l-103 -210q195 -146 200 -443v-33q0 -159 -60.5 -283.5t-175.5 -195.5t-275 -71q-93 0 -177 26zM397 323l260 532q-37 14 -79 14q-222 0 -222 -339
q0 -127 41 -207zM766 748l-257 -525q31 -10 71 -10q222 0 222 338q0 119 -36 197z" />
    <glyph glyph-name="ugrave" unicode="&#xf9;" horiz-adv-x="1147" 
d="M519 1536l197 -309h-237l-276 309h316zM768 0l-8 111q-107 -131 -296 -131q-167 0 -262.5 97t-96.5 301v704h289v-702q0 -86 41 -125.5t112 -39.5q148 0 203 103v764h290v-1082h-272z" />
    <glyph glyph-name="uacute" unicode="&#xfa;" horiz-adv-x="1147" 
d="M435 1227l196 309h315l-277 -309h-234zM768 0l-8 111q-107 -131 -296 -131q-167 0 -262.5 97t-96.5 301v704h289v-702q0 -86 41 -125.5t112 -39.5q148 0 203 103v764h290v-1082h-272z" />
    <glyph glyph-name="ucircumflex" unicode="&#xfb;" horiz-adv-x="1147" 
d="M657 1537l300 -280v-12h-229l-155 144l-154 -144h-225v15l296 277h167zM768 0l-8 111q-107 -131 -296 -131q-167 0 -262.5 97t-96.5 301v704h289v-702q0 -86 41 -125.5t112 -39.5q148 0 203 103v764h290v-1082h-272z" />
    <glyph glyph-name="udieresis" unicode="&#xfc;" horiz-adv-x="1147" 
d="M229.5 1456.5q39.5 36.5 99.5 36.5t99 -36.5t39 -90.5t-39 -90.5t-99 -36.5t-99.5 36.5t-39.5 90.5t39.5 90.5zM717 1455.5q39 36.5 99 36.5t99.5 -36.5t39.5 -90.5t-39.5 -90.5t-99.5 -36.5t-99 36.5t-39 90.5t39 90.5zM768 0l-8 111q-107 -131 -296 -131
q-167 0 -262.5 97t-96.5 301v704h289v-702q0 -86 41 -125.5t112 -39.5q148 0 203 103v764h290v-1082h-272z" />
    <glyph glyph-name="yacute" unicode="&#xfd;" horiz-adv-x="1029" 
d="M383 1227l196 309h315l-277 -309h-234zM118 -418v219l45 -1q83 0 124.5 26.5t63.5 88.5l32 83l-379 1084h311l201 -674l200 674h309l-433 -1244q-55 -158 -162 -229q-70 -46 -184 -46q-58 0 -128 19z" />
    <glyph glyph-name="thorn" unicode="&#xfe;" horiz-adv-x="1162" 
d="M403 94v-510h-290v1952h290v-547q101 113 262 113q135 0 230 -68t144 -191.5t49 -289.5v-21q0 -159 -49 -284t-144 -196.5t-227 -71.5q-161 0 -265 114zM403 763v-443q54 -107 189 -107q207 0 207 340q0 143 -51.5 229t-157.5 86q-134 0 -187 -105z" />
    <glyph glyph-name="ydieresis" unicode="&#xff;" horiz-adv-x="1029" 
d="M177.5 1456.5q39.5 36.5 99.5 36.5t99 -36.5t39 -90.5t-39 -90.5t-99 -36.5t-99.5 36.5t-39.5 90.5t39.5 90.5zM665 1455.5q39 36.5 99 36.5t99.5 -36.5t39.5 -90.5t-39.5 -90.5t-99.5 -36.5t-99 36.5t-39 90.5t39 90.5zM118 -418v219l45 -1q83 0 124.5 26.5t63.5 88.5
l32 83l-379 1084h311l201 -674l200 674h309l-433 -1244q-55 -158 -162 -229q-70 -46 -184 -46q-58 0 -128 19z" />
    <glyph glyph-name="dotlessi" unicode="&#x131;" horiz-adv-x="561" 
d="M424 1082v-1082h-290v1082h290z" />
    <glyph glyph-name="OE" unicode="&#x152;" horiz-adv-x="1983" 
d="M1877 242v-242h-887q-171 -20 -288 -20q-177 0 -314.5 75.5t-214 210.5t-76.5 310v304q0 175 76 310.5t213 210.5t314 75q119 0 290 -20h885v-243h-674v-347h575v-235h-575v-389h676zM386 576q0 -178 84 -270.5t232 -92.5q101 0 198 13v1004q-98 13 -200 13
q-148 0 -231 -92t-83 -269v-306z" />
    <glyph glyph-name="oe" unicode="&#x153;" horiz-adv-x="1848" 
d="M1748 104q-64 -53 -171 -88.5t-239 -35.5q-228 0 -374 149q-137 -149 -370 -149q-160 0 -275.5 71t-175.5 195.5t-60 283.5v21q0 159 60 284t175 196t274 71q232 0 371 -148q64 71 152.5 110t195.5 38q146 0 250 -60t157.5 -170.5t53.5 -258.5v-163h-655
q15 -106 78.5 -171.5t172.5 -65.5q97 0 160.5 19t139.5 58zM425 299.5q53 -86.5 169 -86.5t168 88t52 250q0 141 -53.5 229.5t-168.5 88.5q-220 0 -220 -339q0 -144 53 -230.5zM1183 809q-48 -60 -63 -162h368v26q0 91 -43.5 143.5t-133.5 52.5q-80 0 -128 -60z" />
    <glyph glyph-name="circumflex" unicode="&#x2c6;" horiz-adv-x="1016" 
d="M587 1537l300 -280v-12h-229l-155 144l-154 -144h-225v15l296 277h167z" />
    <glyph glyph-name="ring" unicode="&#x2da;" horiz-adv-x="682" 
d="M149 1428q29 47 80 75t114 28t114 -28t80 -75t29 -102q0 -56 -29 -102t-80 -73t-114 -27t-114 27t-80 73t-29 102q0 55 29 102zM265 1250q30 -31 78 -31t78 31t30 76t-30 77t-78 32t-78 -32t-30 -77t30 -76z" />
    <glyph glyph-name="tilde" unicode="&#x2dc;" horiz-adv-x="986" 
d="M870 1524q0 -73 -29.5 -134t-81 -96.5t-116.5 -35.5q-39 0 -70.5 9.5t-50 19.5t-63.5 36q-38 21 -90 21q-84 0 -84 -95l-167 9q0 72 29.5 133.5t81 98t115.5 36.5q81 0 140 -43q58 -43 134 -43q37 0 61 26t24 70z" />
    <glyph glyph-name="uni0531" unicode="&#x531;" horiz-adv-x="1567" 
d="M1487 -33l-314 249q-69 -115 -196 -175.5t-292 -60.5t-291.5 59t-197 175t-70.5 282v1040h301v-1040q0 -140 66.5 -207t191.5 -67q126 0 191.5 65.5t65.5 195.5v1053h301v-1040v-5l244 -193v-331z" />
    <glyph glyph-name="uni0532" unicode="&#x532;" horiz-adv-x="1360" 
d="M1304 373h-877v-373h-301v1040q0 166 70.5 282t197 175t291.5 59q164 0 290 -59t197 -175.5t71 -281.5v-154h-301v167q0 130 -65.5 195.5t-191.5 65.5q-125 0 -191.5 -67t-66.5 -207v-424h877v-243z" />
    <glyph glyph-name="uni0533" unicode="&#x533;" horiz-adv-x="1536" 
d="M1536 464h-300v-464h-300v509q-138 -87 -289 -87q-174 0 -308 66t-208.5 189t-74.5 289v46q0 165 75 288.5t209 189.5t307 66t307 -66t208 -189.5t74 -288.5v-305h300v-243zM863 749.5q73 79.5 73 217.5v42q0 92 -34.5 159t-99.5 103.5t-155 36.5q-142 0 -216.5 -79.5
t-74.5 -219.5v-42q0 -89 34.5 -156.5t100.5 -104t156 -36.5q143 0 216 79.5z" />
    <glyph glyph-name="uni0534" unicode="&#x534;" horiz-adv-x="1532" 
d="M1532 464h-299v-464h-301v1053q0 130 -65.5 195.5t-191.5 65.5q-125 0 -191.5 -67t-66.5 -207v-384h-301v384q0 166 70.5 282t197 175t291.5 59q164 0 290 -59t197 -175.5t71 -281.5v-333h299v-243z" />
    <glyph glyph-name="uni0535" unicode="&#x535;" horiz-adv-x="1360" 
d="M427 920v-424q0 -140 66.5 -207t191.5 -67q126 0 191.5 65.5t65.5 195.5v167h301v-154q0 -165 -71 -281.5t-197 -175.5t-290 -59q-165 0 -291.5 59t-197 175t-70.5 282v1040h301v-373h877v-243h-877z" />
    <glyph glyph-name="uni0536" unicode="&#x536;" horiz-adv-x="1420" 
d="M1184 370q91 -51 138.5 -145.5t47.5 -222.5v-2h-301q0 83 -41.5 130.5t-126.5 47.5h-481v-178h-300v599h300v-178h80l21 7q96 28 198.5 81t193.5 177.5t91 322.5q0 99 -35 167.5t-97.5 103t-146.5 34.5q-129 0 -202 -69.5t-73 -215.5v-123h-300v125q0 260 149 392.5
t426 132.5q173 0 303.5 -64.5t203 -191.5t72.5 -309q0 -196 -74 -320.5t-118.5 -154.5t-159.5 -95h15q126 0 217 -51z" />
    <glyph glyph-name="uni0537" unicode="&#x537;" horiz-adv-x="1244" 
d="M436 920v-677h112q156 0 273.5 -52.5t182 -148t64.5 -221.5h-300q0 51 -33.5 92t-93.5 64t-138 23h-367v1536h300v-373h752v-243h-752z" />
    <glyph glyph-name="uni0538" unicode="&#x538;" horiz-adv-x="1360" 
d="M1304 243v-243h-1178v1040q0 166 70.5 282t197 175t291.5 59q164 0 290 -59t197 -175.5t71 -281.5v-384h-301v397q0 130 -65.5 195.5t-191.5 65.5q-125 0 -191.5 -67t-66.5 -207v-797h877z" />
    <glyph glyph-name="uni0539" unicode="&#x539;" horiz-adv-x="1891" 
d="M1835 901v-235h-202v-235q0 -214 -121 -332.5t-367 -118.5q-154 0 -267 56.5t-173.5 160.5t-60.5 244v27q0 211 130 322t371 111h187v92q0 88 -55 161.5t-157.5 116.5t-239.5 43q-134 0 -237 -43t-159.5 -119t-56.5 -172v-980h-301v980q0 171 86.5 301t256 202.5
t411.5 72.5q240 0 409.5 -72.5t256.5 -202.5t87 -301v-79h202zM1332 666h-187q-99 0 -149.5 -64t-50.5 -162q0 -61 23.5 -110.5t68.5 -78.5t108 -29q88 0 137.5 58t49.5 151v235z" />
    <glyph glyph-name="uni053A" unicode="&#x53a;" horiz-adv-x="1503" 
d="M1447 920h-301v-380q0 -192 -53.5 -315t-172.5 -184t-314 -61q-176 0 -304.5 70.5t-197 200.5t-68.5 304v33q0 174 68.5 304t197 200.5t304.5 70.5h239v373h301v-373h301v-243zM845 920h-239q-79 0 -139 -41t-93.5 -120t-33.5 -188q0 -168 68 -258.5t198 -90.5
q122 0 180.5 78.5t58.5 239.5v380z" />
    <glyph glyph-name="uni053B" unicode="&#x53b;" horiz-adv-x="1359" 
d="M985.5 1151q126.5 -59 197 -175t70.5 -282v-330h-301v330q0 140 -66.5 207t-191.5 67q-82 0 -139.5 -38.5t-87.5 -106.5t-30 -156v-667h-301v654q0 19 1 28l-1 854h300v-392q122 66 258 66q165 0 291.5 -59z" />
    <glyph glyph-name="uni053C" unicode="&#x53c;" horiz-adv-x="1092" 
d="M931.5 190.5q117.5 -52.5 182 -148t64.5 -221.5h-300q0 51 -33.5 92t-93.5 64t-138 23h-477v1536h300v-1293h222q156 0 273.5 -52.5z" />
    <glyph glyph-name="uni053D" unicode="&#x53d;" horiz-adv-x="1849" 
d="M136 1536h300v-373h566l-1 -667q0 -274 212 -274q103 0 156.5 65.5t53.5 195.5v680h300v-667q0 -165 -66.5 -281t-182.5 -175.5t-261 -59.5q-147 0 -262.5 59.5t-182 175.5t-66.5 281v424h-266v-920h-300v1536z" />
    <glyph glyph-name="uni053E" unicode="&#x53e;" horiz-adv-x="1651" 
d="M1611 1115h-250q58 -82 88.5 -187t30.5 -229v-60q0 -201 -78 -350t-218.5 -229t-322.5 -80t-323 80t-220 229t-79 350v60q0 129 37.5 239t106.5 195q-165 36 -259 142.5t-94 260.5h300q0 -51 33.5 -91.5t93.5 -63.5t138 -23h1016v-243zM1176 699q0 200 -82.5 306
t-234.5 106t-234 -105t-82 -303v-64q0 -198 82.5 -305t235.5 -107q151 0 233 105.5t82 302.5v64z" />
    <glyph glyph-name="uni053F" unicode="&#x53f;" horiz-adv-x="1339" 
d="M1223 1082v-1082h-300v384q-119 -58 -258 -58q-165 0 -291.5 59t-197 175t-70.5 282v694h301v-694q0 -140 66.5 -207t191.5 -67q126 0 192 65.5t66 195.5v253h300z" />
    <glyph glyph-name="uni0540" unicode="&#x540;" horiz-adv-x="1269" 
d="M86 1536h507q261 0 396 -111t135 -324q0 -80 -15.5 -138t-56 -101.5t-113.5 -71.5q120 -38 172 -123.5t52 -199.5v-468h-301v448q0 114 -68 171.5t-201 57.5h-457v235h457q72 0 124 25t79 69t27 99q0 84 -60.5 136t-169.5 53h-507v243z" />
    <glyph glyph-name="uni0541" unicode="&#x541;" horiz-adv-x="1446" 
d="M1203 -51q-101 108 -91 97l-130 138q-100 -96 -214 -150t-234 -54q-210 0 -339 91t-129 284t128 281t340 88q227 0 424 -131q67 149 67 296v29q0 102 -35.5 191.5t-110 145t-184.5 55.5q-151 0 -231 -70.5t-80 -188.5v-43h-300v45q0 147 72 260.5t210.5 178t331.5 64.5
q197 0 339.5 -81.5t217 -224t74.5 -322.5v-29q0 -104 -42.5 -232t-117.5 -251l90 -92q96 -100 141 -139zM414 264.5q43 -37.5 120 -37.5q60 0 127.5 34.5t131.5 96.5q-152 120 -259 120q-79 0 -121 -31t-42 -87q0 -58 43 -95.5z" />
    <glyph glyph-name="uni0542" unicode="&#x542;" horiz-adv-x="1542" 
d="M1532 243v-243h-600v1053q0 130 -65.5 195.5t-191.5 65.5q-125 0 -191.5 -67t-66.5 -207v-384h-301v384q0 166 70.5 282t197 175t291.5 59q164 0 290 -59t197 -175.5t71 -281.5v-797h299z" />
    <glyph glyph-name="uni0543" unicode="&#x543;" horiz-adv-x="1508" 
d="M1138 1005q131 -77 202.5 -211.5t71.5 -301.5v-492h-301v1h-910v574q0 136 16 264h-217v243h273q84 242 257.5 358t422.5 116q102 0 195.5 -12t159 -26.5t65.5 -15.5l-10 -249q0 2 -52.5 18t-135.5 29.5t-185 13.5q-270 0 -392 -232h240q169 0 300 -77zM1111 244v169
q0 151 -43 244t-137.5 137.5t-252.5 44.5h-156q-20 -120 -20 -269v-326h609z" />
    <glyph glyph-name="uni0544" unicode="&#x544;" horiz-adv-x="1572" 
d="M1542 1293h-299v-797q0 -165 -71 -281.5t-197 -175.5t-290 -59q-165 0 -291.5 59t-197 175t-70.5 282v1040h301v-1040q0 -140 66.5 -207t191.5 -67q251 0 257 261v1053h600v-243z" />
    <glyph glyph-name="uni0545" unicode="&#x545;" horiz-adv-x="1388" 
d="M96 666v235h631q115 0 178.5 57.5t63.5 154.5q0 92 -70.5 147t-197.5 55q-125 0 -188.5 -53t-63.5 -141h-300q0 132 74 231t200 151.5t278 52.5q166 0 294.5 -50t201 -148.5t72.5 -237.5q0 -108 -64 -191.5t-180 -139.5q129 -48 203 -138.5t74 -220.5
q0 -143 -74.5 -244.5t-208.5 -153.5t-309 -52q-171 0 -305.5 54t-210.5 157t-76 244h301q0 -109 80 -161.5t212 -52.5t211 52.5t79 161.5q0 116 -74.5 173.5t-199.5 57.5h-631z" />
    <glyph glyph-name="uni0546" unicode="&#x546;" horiz-adv-x="1562" 
d="M1446 880v-384q0 -166 -70.5 -282t-197 -175t-291.5 -59q-164 0 -290 59t-197 175.5t-71 281.5v797h-299v243h600v-1053q0 -130 65.5 -195.5t191.5 -65.5q125 0 191.5 67t66.5 207v384h301z" />
    <glyph glyph-name="uni0547" unicode="&#x547;" horiz-adv-x="1318" 
d="M1242 530v-25q0 -168 -69.5 -286t-199 -178.5t-307.5 -60.5q-175 0 -309 73.5t-207.5 208.5t-73.5 313q1 258 121 390.5t267 184.5l-253 115v291l1016 -461v-291l-496 225q-152 -38 -253 -148t-101 -324q0 -108 40 -183.5t107 -113.5t148 -38q77 0 138 34.5t96 99
t35 151.5v23h301z" />
    <glyph glyph-name="uni0548" unicode="&#x548;" horiz-adv-x="1369" 
d="M876.5 1248.5q-65.5 65.5 -191.5 65.5q-125 0 -191.5 -67t-66.5 -207v-1040h-301v1040q0 166 70.5 282t197 175t291.5 59q164 0 290 -59t197 -175.5t71 -281.5v-1040h-301v1053q0 130 -65.5 195.5z" />
    <glyph glyph-name="uni0549" unicode="&#x549;" horiz-adv-x="1318" 
d="M1118.5 579.5q-123.5 -153.5 -269.5 -219.5l258 -117v-291l-1016 461v291l447 -203q169 40 286 162t117 366q0 89 -40 153.5t-107.5 98t-147.5 33.5q-77 0 -138 -34.5t-96 -99t-35 -151.5v-23h-301v25q0 168 69.5 286t199 178.5t307.5 60.5t311 -61.5t206 -183.5t73 -298
q0 -280 -123.5 -433.5z" />
    <glyph glyph-name="uni054A" unicode="&#x54a;" horiz-adv-x="1749" 
d="M1280.5 1483.5q169.5 -72.5 256 -202.5t86.5 -301v-980h-301v980q0 76 -36.5 141t-104.5 110.5t-161 66.5v-845h-301v846q-94 -21 -162 -66t-104 -107t-36 -133v-235h-301v222q0 171 87 301t256.5 202.5t409.5 72.5q242 0 411.5 -72.5z" />
    <glyph glyph-name="uni054B" unicode="&#x54b;" horiz-adv-x="1410" 
d="M1181.5 360.5q85.5 -57.5 132 -151t46.5 -207.5l-301 -2q0 51 -25 91.5t-66 63.5t-85 23h-462v-178h-301v579h301v-155l66 1q45 12 69 20q11 10 20 26t9 36q0 82 -173 163q-119 56 -197.5 145.5t-78.5 223.5q0 164 67.5 280t197 176.5t312.5 60.5t317 -64t206.5 -188.5
t72.5 -302.5q0 -160 -61.5 -279t-125 -179t-138.5 -115q112 -10 197.5 -67.5zM467 961.5q27 -39.5 67.5 -65.5t105.5 -57q58 -27 97 -52.5t70 -66t41 -98.5q157 164 157 414q0 87 -36.5 148.5t-102 93t-152.5 31.5q-134 0 -204 -62t-70 -190q0 -56 27 -95.5z" />
    <glyph glyph-name="uni054C" unicode="&#x54c;" horiz-adv-x="1542" 
d="M1542 464h-299v-464h-301v1053q0 130 -65.5 195.5t-191.5 65.5q-125 0 -191.5 -67t-66.5 -207v-1040h-301v1040q0 166 70.5 282t197 175t291.5 59q164 0 290 -59t197 -175.5t71 -281.5v-333h299v-243z" />
    <glyph glyph-name="uni054D" unicode="&#x54d;" horiz-adv-x="1369" 
d="M942 1536h301v-1040q0 -165 -71 -281.5t-197 -175.5t-290 -59q-165 0 -291.5 59t-197 175t-70.5 282v1040h301v-1040q0 -140 66.5 -207t191.5 -67q251 0 257 261v1053z" />
    <glyph glyph-name="uni054E" unicode="&#x54e;" horiz-adv-x="1533" 
d="M1523 243v-243h-600v392q-122 -66 -258 -66q-165 0 -291.5 59t-197 175t-70.5 282v321h301v-321q0 -140 66.5 -207t191.5 -67q82 0 139.5 38.5t87.5 106.5t30 156v667h301v-654q0 -18 -1 -28l1 -611h300z" />
    <glyph glyph-name="uni054F" unicode="&#x54f;" horiz-adv-x="1277" 
d="M861.5 514q-34.5 46 -94 77.5t-153.5 64.5q-151 53 -256 111t-171 146.5t-66 213.5q0 127 68.5 224.5t191 151t278.5 53.5q159 0 280 -60.5t187.5 -168t66.5 -243.5h-300q0 107 -61 170t-178 63q-113 0 -173 -53.5t-60 -137.5q0 -72 76.5 -126.5t225.5 -102.5
q164 -52 267.5 -118t155 -157t51.5 -216q0 -133 -65 -229t-184 -146.5t-279 -50.5q-170 0 -302.5 54.5t-209.5 168t-77 282.5h301q0 -104 35 -162.5t97.5 -81.5t155.5 -23q74 0 125.5 25.5t76.5 67.5t25 92q0 65 -34.5 111z" />
    <glyph glyph-name="uni0550" unicode="&#x550;" horiz-adv-x="1359" 
d="M427 0h-301v1040q0 165 71 281.5t197 175.5t290 59q165 0 291.5 -59t197 -175t70.5 -282v-384h-301v384q0 140 -66.5 207t-191.5 67q-126 0 -191.5 -65.5t-65.5 -195.5v-1053z" />
    <glyph glyph-name="uni0551" unicode="&#x551;" horiz-adv-x="1408" 
d="M96 905h256q-43 38 -75 106.5t-32 137.5q0 195 126 301t368 106q244 0 369 -109.5t125 -317.5q0 -109 -50.5 -203t-137.5 -137q137 -52 207 -143t70 -216q0 -143 -74.5 -244.5t-208.5 -153.5t-309 -52q-171 0 -305.5 54t-210.5 157t-76 244h301q0 -109 80 -161.5
t212 -52.5t211 52.5t79 161.5q0 115 -73.5 170t-200.5 57h-651v243zM577.5 965q50.5 -57 161.5 -57q112 0 162 56.5t50 164.5q0 224 -212 224q-111 0 -161.5 -58t-50.5 -166q0 -107 50.5 -164z" />
    <glyph glyph-name="uni0552" unicode="&#x552;" horiz-adv-x="690" 
d="M690 696h-274v-696h-300v1536h300v-597h274v-243z" />
    <glyph glyph-name="uni0553" unicode="&#x553;" horiz-adv-x="1652" 
d="M972 177v-177h-289v177h-21q-177 0 -316 71t-217.5 203t-78.5 307q0 181 78.5 316.5t218.5 208.5t318 73h18v180h289v-180h26q175 0 312.5 -73t214.5 -208t77 -315q0 -175 -77.5 -307.5t-215 -204t-312.5 -71.5h-25zM683 426v681h-18q-156 0 -243.5 -88t-87.5 -261
q0 -164 87.5 -248t240.5 -84h21zM972 1107v-681h20q153 0 239.5 85t86.5 249q0 172 -86.5 259.5t-239.5 87.5h-20z" />
    <glyph glyph-name="uni0554" unicode="&#x554;" horiz-adv-x="1474" 
d="M1418 163h-908v-163h-300v163h-220v243h220v594q-1 7 -1 21v42q0 150 75 261.5t207.5 171.5t302.5 60t303.5 -60t209 -172t75.5 -261v-42q0 -150 -75.5 -261.5t-209 -172t-303.5 -60.5q-146 0 -284 79v-200h908v-243zM510 1022q0 -113 74 -179t212 -66q86 0 151 30.5
t100 86t35 128.5v37q0 115 -74.5 181t-211.5 66q-86 0 -151 -30t-100 -86t-35 -131v-37z" />
    <glyph glyph-name="uni0555" unicode="&#x555;" horiz-adv-x="1433" 
d="M1337 732q0 -230 -78 -400t-218.5 -261t-322.5 -91t-323 91t-220 261.5t-79 399.5v69q0 230 78.5 401t219 262.5t322.5 91.5t323 -91.5t219.5 -262.5t78.5 -401v-69zM1033 806q0 244 -82.5 373.5t-234.5 129.5q-151 0 -233 -127.5t-83 -369.5v-79q0 -245 82.5 -375.5
t235.5 -130.5q151 0 232.5 129t82.5 372v78z" />
    <glyph glyph-name="uni0556" unicode="&#x556;" horiz-adv-x="1626" 
d="M1299 925q140 -60 217.5 -170t77.5 -255v-35q0 -149 -85.5 -258t-257.5 -168t-426 -59q-259 0 -431.5 64t-257 182t-84.5 280h301v-8q0 -83 51.5 -146.5t126.5 -97t143 -33.5v521q-170 0 -290 46.5t-183 136t-63 214.5t63 214.5t183 136t290 46.5h300v-551h1
q184 0 324 -60zM494 1025q55 -40 180 -40v308q-125 0 -180 -40t-55 -114t55 -114zM1293 494q0 71 -44 128t-117 88.5t-157 31.5h-1v-521h1q84 0 157 31.5t117 88.5t44 128v25z" />
    <glyph glyph-name="uni0559" unicode="&#x559;" horiz-adv-x="464" 
d="M322 1601q0 -134 89 -276l-136 -79q-50 42 -91.5 105t-66 133t-24.5 133v155h229v-171z" />
    <glyph glyph-name="uni055A" unicode="&#x55a;" horiz-adv-x="470" 
d="M377 1772v-155q0 -63 -24.5 -133t-66 -133t-91.5 -105l-136 79q89 142 89 276v171h229z" />
    <glyph glyph-name="uni055B" unicode="&#x55b;" horiz-adv-x="74" 
d="M34 1772l-312 -497h-237l232 497h317z" />
    <glyph glyph-name="uni055C" unicode="&#x55c;" horiz-adv-x="95" 
d="M-515 1311q0 102 43.5 183t131.5 110q75 25 100 68.5t25 113.5v9h270v-25q0 -77 -8 -130.5t-40 -99.5t-100 -67q-56 -17 -92.5 -52.5t-53 -77t-16.5 -80.5v-9h-260v57z" />
    <glyph glyph-name="uni055D" unicode="&#x55d;" horiz-adv-x="289" 
d="M289 1275h-237l-312 497h317z" />
    <glyph glyph-name="uni055E" unicode="&#x55e;" horiz-adv-x="301" 
d="M-15 1529.5q36 28.5 36 86.5q0 52 -32.5 78.5t-93.5 26.5q-44 0 -83 -26t-63 -76.5t-24 -120.5v-243h-240v256q0 139 58.5 235t152.5 143t199 47q104 0 186.5 -32.5t131 -99.5t48.5 -168q0 -152 -86 -245.5t-289 -93.5v204q63 0 99 28.5z" />
    <glyph glyph-name="uni055F" unicode="&#x55f;" horiz-adv-x="815" 
d="M117 1394q-97 95 -97 227q0 83 36 155.5t116.5 118.5t205.5 46h78v-194h-21q-81 0 -126 -31t-45 -88q0 -66 50.5 -101.5t141.5 -35.5h339v-192h-339q-242 0 -339 95z" />
    <glyph glyph-name="uni0561" unicode="&#x561;" horiz-adv-x="1775" 
d="M1367 316v766h290v-1082h-272l-10 119q-112 -139 -310 -139q-209 0 -287 165q-111 -165 -325 -165q-165 0 -255.5 96.5t-91.5 311.5v694h290v-690q0 -102 40 -140t122 -38q128 0 179 121v747h289v-688q0 -101 41 -140.5t123 -39.5q120 0 177 102z" />
    <glyph glyph-name="uni0562" unicode="&#x562;" horiz-adv-x="1181" 
d="M1125 0h-718v-416h-289v1498h271l10 -124q116 144 311 144q162 0 251.5 -96t90.5 -312v-253h-290v249q0 100 -42 139t-130 39q-123 0 -183 -104v-553h718v-211z" />
    <glyph glyph-name="uni0563" unicode="&#x563;" horiz-adv-x="1295" 
d="M1279 0h-228v-416h-290v508q-102 -112 -261 -112q-132 0 -228 71t-146 195.5t-50 283.5v21q0 165 49.5 289.5t145.5 193t231 68.5q173 0 277 -131l18 111h254v-849h228v-233zM761 319v448q-54 102 -186 102q-109 0 -159 -87.5t-50 -251.5q0 -142 50 -229.5t157 -87.5
q133 0 188 106z" />
    <glyph glyph-name="uni0564" unicode="&#x564;" horiz-adv-x="1296" 
d="M1280 0h-228v-416h-290v1106q0 100 -42 139t-130 39q-123 0 -183 -104v-764h-289v1082h271l10 -124q116 144 311 144q162 0 251.5 -96t90.5 -312v-461h228v-233z" />
    <glyph glyph-name="uni0565" unicode="&#x565;" horiz-adv-x="1170" 
d="M395 849v-469q0 -86 41 -125.5t112 -39.5q148 0 203 103v324h290v-642h-272l-8 111q-107 -131 -296 -131q-167 0 -262.5 97t-96.5 301v1158h289v-454h719v-233h-719z" />
    <glyph glyph-name="uni0566" unicode="&#x566;" horiz-adv-x="1179" 
d="M1279 -183v-233h-518v508q-102 -112 -261 -112q-132 0 -228 71t-146 195.5t-50 283.5v21q0 165 49.5 289.5t145.5 193t231 68.5q173 0 277 -131l18 111h254v-1265h228zM761 319v448q-54 102 -186 102q-109 0 -159 -87.5t-50 -251.5q0 -142 50 -229.5t157 -87.5
q133 0 188 106z" />
    <glyph glyph-name="uni0567" unicode="&#x567;" horiz-adv-x="1062" 
d="M407 849v-616h82q104 0 187 -33.5t131.5 -103.5t48.5 -177q0 -156 -112 -233.5t-309 -77.5v233q64 0 98 21t34 59q0 39 -33.5 59t-98.5 20h-317v1536h289v-454h599v-233h-599z" />
    <glyph glyph-name="uni0568" unicode="&#x568;" horiz-adv-x="1181" 
d="M1125 -183v-233h-1007v1498h271l10 -124q116 144 311 144q162 0 251.5 -96t90.5 -312v-694h-290v690q0 100 -42 139t-130 39q-123 0 -183 -104v-947h718z" />
    <glyph glyph-name="uni0569" unicode="&#x569;" horiz-adv-x="1595" 
d="M1539 478h-166v-135q0 -114 -49 -196t-139 -124.5t-209 -42.5q-131 0 -225 43.5t-143 122t-49 181.5v24q0 106 46.5 187.5t139 127t227.5 45.5h103q-23 69 -103.5 113t-207.5 44q-122 0 -225.5 -27.5t-131.5 -76.5v-1180h-289v1498h271l10 -124q57 71 168 107.5t256 36.5
q122 0 242.5 -43.5t205 -132t99.5 -215.5h169v-233zM1083 477h-111q-58 0 -91.5 -38.5t-33.5 -105.5q0 -58 36.5 -96t94.5 -38q44 0 74.5 36t30.5 102v140z" />
    <glyph glyph-name="uni056A" unicode="&#x56a;" horiz-adv-x="1313" 
d="M1297 848h-228v-318q0 -196 -56 -317t-168.5 -177t-287.5 -56q-160 0 -276 69t-177 191t-61 277v34q0 157 63.5 277t182 186.5t278.5 66.5h212v455h290v-455h228v-233zM779 848h-212q-119 0 -176.5 -82t-57.5 -236q0 -156 52 -236.5t172 -80.5q91 0 138.5 33t65 100
t18.5 184v318z" />
    <glyph glyph-name="uni056B" unicode="&#x56b;" horiz-adv-x="1159" 
d="M407 771v-1187h-289v1952h289v-571q113 137 289 137q168 0 262 -99t95 -316v-687h-290v684q0 101 -43 142.5t-130 41.5q-126 0 -183 -97z" />
    <glyph glyph-name="uni056C" unicode="&#x56c;" horiz-adv-x="536" 
d="M636 -183v-233h-518v1498h289v-1265h229z" />
    <glyph glyph-name="uni056D" unicode="&#x56d;" horiz-adv-x="1753" 
d="M118 1536h289v-454h582v-702q0 -86 41 -125.5t112 -39.5q148 0 203 103v764h290v-1082h-272l-8 111q-107 -131 -296 -131q-167 0 -263 97t-96 301v471h-293v-1265h-289v1952z" />
    <glyph glyph-name="uni056E" unicode="&#x56e;" horiz-adv-x="1223" 
d="M991 849q76 -130 77 -308v-11q0 -160 -58 -284.5t-171 -195t-272 -70.5t-277.5 69.5t-182.5 191.5t-64 276v34q0 132 43 239t126 178t200 98q-65 67 -100.5 132.5t-35.5 142.5q0 48 6 91t12 70t8 34h289q-2 -6 -9 -29t-13 -62t-6 -85q0 -57 27 -103t64.5 -80t115.5 -95
h383v-233h-162zM742 704.5q-36 74.5 -100 144.5h-87q-118 0 -170 -81t-52 -238q0 -141 58.5 -229t175.5 -88q113 0 161.5 84.5t50.5 242.5q-1 90 -37 164.5z" />
    <glyph glyph-name="uni056F" unicode="&#x56f;" horiz-adv-x="1159" 
d="M751 -416v527q-46 -65 -118 -98t-168 -33q-167 0 -263 97t-96 301v1158h289v-1156q0 -86 41 -125.5t112 -39.5q148 0 203 103v764h290v-1498h-290z" />
    <glyph glyph-name="uni0570" unicode="&#x570;" horiz-adv-x="1159" 
d="M407 771v-771h-289v1536h289v-571q113 137 289 137q168 0 262 -99t95 -316v-687h-290v684q0 101 -43 142.5t-130 41.5q-126 0 -183 -97z" />
    <glyph glyph-name="uni0571" unicode="&#x571;" horiz-adv-x="1133" 
d="M888 893.5q67 -75.5 104.5 -171.5t40.5 -200v-522h-276l-20 116q-35 -63 -105 -99.5t-172 -36.5q-125 0 -217.5 60.5t-141.5 169.5t-49 251v25q0 127 39.5 226.5t127.5 191t239 192.5l137 87h-166q-147 0 -228 74t-81 212v64h290q0 -59 34 -88.5t92 -29.5l254 1
q72 0 113.5 -37.5t41.5 -95.5v-9q0 -59 -31 -106t-70 -74q-20 -13 -46.5 -32t-43.5 -31q-2 -2 -22 -16q89 -46 156 -121.5zM655 240q50 26 82 79v163q-2 137 -53 235.5t-140 141.5q-111 -106 -156.5 -195t-45.5 -178v-16q0 -122 50.5 -189t140.5 -67q72 0 122 26z" />
    <glyph glyph-name="uni0572" unicode="&#x572;" horiz-adv-x="1180" 
d="M1280 -183v-233h-518v1106q0 100 -42 139t-130 39q-123 0 -183 -104v-764h-289v1082h271l10 -124q116 144 311 144q162 0 251.5 -96t90.5 -312v-877h228z" />
    <glyph glyph-name="uni0573" unicode="&#x573;" horiz-adv-x="1227" 
d="M911 1020.5q114 -61.5 175 -176.5t61 -272v-572h-279l-11 126q-41 -64 -126 -105t-194 -41q-112 0 -203 48.5t-145 147.5t-54 246q0 234 36 426h-141v234h205q86 229 243.5 351t386.5 124q77 1 143.5 -6t107.5 -21l-10 -230q-64 25 -154 25q-166 0 -270.5 -61
t-162.5 -182h122q156 0 270 -61.5zM857 532q0 168 -80.5 242t-238.5 74h-88q-26 -160 -26 -428q0 -93 51.5 -149.5t152.5 -56.5q63 0 129 34t100 93v191z" />
    <glyph glyph-name="uni0574" unicode="&#x574;" horiz-adv-x="1169" 
d="M1269 1303h-228v-1303h-272l-8 111q-107 -131 -296 -131q-167 0 -263 97t-96 301v704h289v-702q0 -86 41 -125.5t112 -39.5q148 0 203 103v1218h518v-233z" />
    <glyph glyph-name="uni0575" unicode="&#x575;" horiz-adv-x="522" 
d="M127 1082h290v-1142q0 -182 -96 -279.5t-272 -97.5q-74 0 -145 17v229q46 -9 92 -9q131 0 131 140v1142z" />
    <glyph glyph-name="uni0576" unicode="&#x576;" horiz-adv-x="1182" 
d="M1064 1082v-1082h-272l-8 111q-107 -131 -296 -131q-167 0 -263 97t-96 301v925h-229v233h518v-1156q0 -86 41 -125.5t112 -39.5q148 0 203 103v764h290z" />
    <glyph glyph-name="uni0577" unicode="&#x577;" horiz-adv-x="1149" 
d="M408.5 -156.5q39.5 -26.5 108.5 -26.5h560v-233h-560q-195 0 -319.5 70t-124.5 258q0 106 46 180t114 121.5t185 110.5l54 29l25 14q87 47 144.5 85.5t99 93.5t41.5 123q0 55 -23.5 100.5t-66 72.5t-98.5 27q-55 0 -97 -27t-65 -72.5t-23 -99.5v-27h-290l1 37
q0 115 60 211.5t168 153.5t244 57q139 0 248.5 -55.5t170.5 -148.5t61 -201q0 -145 -58.5 -244.5t-140 -159t-206.5 -127.5l-32 -18l-47 -25q-68 -35 -111.5 -62.5t-75.5 -63t-32 -75.5q0 -52 39.5 -78.5z" />
    <glyph glyph-name="uni0578" unicode="&#x578;" horiz-adv-x="1158" 
d="M407 764v-764h-289v1082h271l10 -124q116 144 311 144q162 0 251.5 -96t90.5 -312v-694h-290v690q0 100 -42 139t-130 39q-123 0 -183 -104z" />
    <glyph glyph-name="uni0579" unicode="&#x579;" horiz-adv-x="906" 
d="M99.5 83.5q49.5 86.5 122 161.5t196.5 187q15 14 15 32q0 17 -14 31q-42 37 -81 69q-65 55 -99.5 89.5t-56 77.5t-21.5 98q0 67 32.5 136.5t90.5 116.5h290q-123 -101 -123 -195q0 -36 15.5 -64t41 -52t75.5 -64q48 -39 85 -71q34 -31 51.5 -69t17.5 -80t-18 -84t-51 -77
q-126 -132 -188.5 -201t-101 -127t-38.5 -98q0 -42 32.5 -62.5t86.5 -20.5h407v-233h-443q-155 0 -264 68.5t-109 253.5q0 91 49.5 177.5z" />
    <glyph glyph-name="uni057A" unicode="&#x57a;" horiz-adv-x="1775" 
d="M1367 316v766h290v-1498h-290v535q-50 -69 -126.5 -104t-175.5 -35q-209 0 -287 165q-111 -165 -325 -165q-165 0 -255.5 96.5t-91.5 311.5v694h290v-690q0 -102 40 -140t122 -38q128 0 179 121v747h289v-688q0 -101 41 -140.5t123 -39.5q120 0 177 102z" />
    <glyph glyph-name="uni057B" unicode="&#x57b;" horiz-adv-x="1154" 
d="M101 18q28 57 75 96.5t116 77.5q35 36 35 65q0 21 -16 39t-53 47q-49 39 -81.5 74t-57.5 93t-25 140q0 124 56.5 227t171 164t280.5 61q167 0 282.5 -61t172.5 -164t57 -227q0 -154 -70 -263t-166 -173.5t-226 -125.5l-39 -18q-115 -53 -182.5 -94.5t-67.5 -83.5
q0 -31 13.5 -47t44.5 -22t88 -6h590v-233h-643q-154 0 -268.5 66t-114.5 231q0 80 28 137zM412 561.5q28 -37.5 82 -84.5q43 -37 64 -63t21 -57q0 -21 -11 -43q77 32 131.5 70t90.5 103t36 163q0 58 -26 108t-77 80.5t-121 30.5q-62 0 -112 -30.5t-78 -81t-28 -107.5
q0 -51 28 -88.5z" />
    <glyph glyph-name="uni057C" unicode="&#x57c;" horiz-adv-x="1159" 
d="M1143 233v-233h-518v233q0 -8 38 65t68.5 174.5t30.5 217.5q0 100 -42 139t-130 39q-123 0 -183 -104v-764h-289v1082h271l10 -124q116 144 311 144q162 0 251.5 -96t90.5 -312q0 -116 -30.5 -218.5t-68.5 -176t-38 -66.5h228z" />
    <glyph glyph-name="uni057D" unicode="&#x57d;" horiz-adv-x="1159" 
d="M769 0l-8 111q-107 -131 -296 -131q-167 0 -263 97t-96 301v704h289v-702q0 -86 41 -125.5t112 -39.5q148 0 203 103v764h290v-1082h-272z" />
    <glyph glyph-name="uni057E" unicode="&#x57e;" horiz-adv-x="1169" 
d="M1269 -183v-233h-518v527q-46 -65 -118 -98t-168 -33q-167 0 -263 97t-96 301v704h289v-702q0 -86 41 -125.5t112 -39.5q148 0 203 103v1218h290v-1719h228z" />
    <glyph glyph-name="uni057F" unicode="&#x57f;" horiz-adv-x="1757" 
d="M1559.5 1012.5q90.5 -96.5 91.5 -311.5v-694h-290v690q0 102 -40 140t-122 38q-62 0 -104.5 -24.5t-71.5 -75.5v-775h-289v110q-64 -68 -133.5 -99t-147.5 -31q-165 0 -255.5 96.5t-91.5 311.5v694h290v-690q0 -102 40 -140t122 -38q62 0 104.5 24.5t71.5 75.5v768h289
v-103q64 68 133.5 99t147.5 31q165 0 255.5 -96.5z" />
    <glyph glyph-name="uni0580" unicode="&#x580;" horiz-adv-x="1158" 
d="M407 764v-1180h-289v1498h271l10 -124q116 144 311 144q162 0 251.5 -96t90.5 -312v-694h-290v690q0 100 -42 139t-130 39q-123 0 -183 -104z" />
    <glyph glyph-name="uni0581" unicode="&#x581;" horiz-adv-x="1190" 
d="M403 -407q-76 19 -145 57t-113 93l128 176q107 -120 263 -120q115 0 179 62t64 175v58q-102 -114 -263 -114q-131 0 -230.5 70t-153 193t-53.5 277v29q0 164 53 289t152.5 194.5t233.5 69.5q179 0 278 -122l11 102h262v-1045q0 -146 -65 -250t-183 -158.5t-273 -54.5
q-69 0 -145 19zM368 528q0 -138 56 -225.5t165 -87.5q132 0 190 100v454q-57 99 -188 99q-109 0 -166 -89t-57 -230v-21z" />
    <glyph glyph-name="uni0582" unicode="&#x582;" horiz-adv-x="614" 
d="M598 233v-233h-518v1082h289v-849h229z" />
    <glyph glyph-name="uni0583" unicode="&#x583;" horiz-adv-x="1757" 
d="M1559.5 1012.5q90.5 -96.5 91.5 -311.5v-694h-290v690q0 102 -40 140t-122 38q-62 0 -104.5 -24.5t-71.5 -75.5v-1191h-289v526q-64 -68 -133.5 -99t-147.5 -31q-165 0 -255.5 96.5t-91.5 311.5v694h290v-690q0 -102 40 -140t122 -38q62 0 104.5 24.5t71.5 75.5v1222h289
v-557q64 68 133.5 99t147.5 31q165 0 255.5 -96.5z" />
    <glyph glyph-name="uni0584" unicode="&#x584;" horiz-adv-x="1230" 
d="M1174 -233h-711v-183h-290v183h-123v233h123v1082h269l11 -105q104 125 272 125q136 0 231 -59.5t143.5 -169t48.5 -260.5v-21q0 -152 -48.5 -260t-143 -165t-228.5 -57q-162 0 -265 115v-225h711v-233zM463 450q54 -107 189 -107q106 0 156.5 66t50.5 204
q0 255 -209 255q-134 0 -187 -105v-313z" />
    <glyph glyph-name="uni0585" unicode="&#x585;" horiz-adv-x="1177" 
d="M76 551q0 159 61 284t176.5 196t274.5 71q160 0 276 -71t176.5 -196t60.5 -284v-21q0 -159 -60.5 -283.5t-175.5 -195.5t-275 -71q-158 0 -274.5 69t-178 191t-61.5 277v34zM420 300q54 -87 170 -87q222 0 222 338q0 141 -54 229.5t-170 88.5q-222 0 -222 -339
q0 -143 54 -230z" />
    <glyph glyph-name="uni0586" unicode="&#x586;" horiz-adv-x="1611" 
d="M1305 929.5q137 -60.5 206.5 -170.5t69.5 -258v-33q0 -208 -146.5 -333t-462.5 -150v-401h-290v401q-314 26 -468 161.5t-154 359.5h290v-8q0 -85 48.5 -149t125.5 -98.5t158 -34.5v540q-179 0 -296.5 49t-173.5 136.5t-56 204.5t55 204.5t168.5 136.5t283.5 49h309v-546
q196 0 333 -60.5zM504.5 1023.5q58.5 -33.5 177.5 -33.5v312h-19q-106 0 -161.5 -34t-55.5 -122q0 -89 58.5 -122.5zM1291 498q0 73 -39 132t-111.5 92.5t-168.5 33.5v-540q96 0 168.5 33.5t111.5 92.5t39 132v24z" />
    <glyph glyph-name="uni0587" unicode="&#x587;" horiz-adv-x="1305" 
d="M1289 233v-233h-520l-8 111q-107 -131 -296 -131q-167 0 -262.5 97t-96.5 301v1158h289v-1156q0 -86 41 -125.5t112 -39.5q148 0 203 103v764h290v-849h248z" />
    <glyph glyph-name="uni0589" unicode="&#x589;" horiz-adv-x="620" 
d="M179 1073q45 44 119 44t118.5 -44t44.5 -111t-44.5 -110.5t-118.5 -43.5t-119 44t-45 110q0 67 45 111zM179 254q45 44 119 44t118.5 -44t44.5 -111t-44.5 -110.5t-118.5 -43.5t-119 44t-45 110q0 67 45 111z" />
    <glyph glyph-name="uni058A" unicode="&#x58a;" horiz-adv-x="848" 
d="M656 504q-115 -26 -240 -26q-225 0 -379 92l31 237q7 -2 16.5 -7t14.5 -8q79 -39 180 -60t207 -21q95 0 183 16.5t159 50.5v-216q-57 -32 -172 -58z" />
    <glyph glyph-name="uni058F" unicode="&#x58f;" horiz-adv-x="1532" 
d="M1233 574v-127h299v-243h-299v-204h-301v204h-299v243h299v127h-299v243h299v236q0 130 -65.5 195.5t-191.5 65.5q-125 0 -191.5 -67t-66.5 -207v-384h-301v384q0 166 70.5 282t197 175t291.5 59q164 0 290 -59t197 -175.5t71 -281.5v-223h299v-243h-299z" />
    <glyph glyph-name="endash" unicode="&#x2013;" horiz-adv-x="1294" 
d="M1188 832v-236h-1037v236h1037z" />
    <glyph glyph-name="emdash" unicode="&#x2014;" horiz-adv-x="1563" 
d="M1491 832v-236h-1383v236h1383z" />
    <glyph glyph-name="quoteleft" unicode="&#x2018;" horiz-adv-x="479" 
d="M104 1048v151q0 96 52.5 200.5t130.5 171.5l135 -79q-86 -140 -89 -277v-167h-229z" />
    <glyph glyph-name="quoteright" unicode="&#x2019;" horiz-adv-x="470" 
d="M377 1536v-155q0 -63 -24.5 -133t-66 -133t-91.5 -105l-136 79q86 137 89 276v171h229z" />
    <glyph glyph-name="quotesinglbase" unicode="&#x201a;" horiz-adv-x="508" 
d="M385 230v-164q0 -96 -52.5 -200t-130.5 -171l-136 79q79 121 82 275v181h237z" />
    <glyph glyph-name="quotedblleft" unicode="&#x201c;" horiz-adv-x="831" 
d="M112 1048v151q0 96 52.5 200.5t130.5 171.5l135 -79q-86 -140 -89 -277v-167h-229zM455 1048v151q0 96 52.5 200.5t130.5 171.5l135 -79q-86 -140 -89 -277v-167h-229z" />
    <glyph glyph-name="quotedblright" unicode="&#x201d;" horiz-adv-x="837" 
d="M391 1536v-155q0 -63 -24.5 -133t-66 -133t-91.5 -105l-136 79q86 137 89 276v171h229zM738 1536v-155q0 -63 -24.5 -133t-66 -133t-91.5 -105l-136 79q86 137 89 276v171h229z" />
    <glyph glyph-name="quotedblbase" unicode="&#x201e;" horiz-adv-x="825" 
d="M385 263v-197q0 -102 -50 -212t-126 -179l-143 79q79 131 82 293v216h237zM729 263l-1 -197q0 -100 -52.5 -210.5t-129.5 -180.5l-143 79q85 145 88 295v214h238z" />
    <glyph glyph-name="bullet" unicode="&#x2022;" horiz-adv-x="736" 
d="M136 767q0 67 29 119.5t82.5 81.5t124.5 29q73 0 127 -29t83 -81.5t29 -119.5v-39q0 -66 -29 -117.5t-82.5 -80.5t-126.5 -29q-71 0 -125 29t-83 80.5t-29 117.5v39z" />
    <glyph glyph-name="ellipsis" unicode="&#x2026;" horiz-adv-x="1515" 
d="M178 254q45 44 119 44t118.5 -44t44.5 -111t-44.5 -110.5t-118.5 -43.5t-119 44t-45 110q0 67 45 111zM651 254q45 44 119 44t118.5 -44t44.5 -111t-44.5 -110.5t-118.5 -43.5t-119 44t-45 110q0 67 45 111zM1115 254q45 44 119 44t118.5 -44t44.5 -111t-44.5 -110.5
t-118.5 -43.5t-119 44t-45 110q0 67 45 111z" />
    <glyph glyph-name="guilsinglleft" unicode="&#x2039;" horiz-adv-x="639" 
d="M388 125l-280 390v19l280 390h187l-239 -400l239 -399h-187z" />
    <glyph glyph-name="guilsinglright" unicode="&#x203a;" horiz-adv-x="619" 
d="M267 924l281 -390v-19l-281 -390h-186l239 399l-239 400h186z" />
    <glyph glyph-name="fraction" unicode="&#x2044;" horiz-adv-x="914" 
d="M882 1247l-711 -1138l-140 76l711 1138z" />
    <glyph glyph-name="uni2074" unicode="&#x2074;" horiz-adv-x="763" 
d="M705 827h-88v-160h-206v160h-345l-12 135l357 494h206v-462h88v-167zM249 994h162v211l-14 -22z" />
    <glyph glyph-name="Euro" unicode="&#x20ac;" 
d="M1092 11q-124 -30 -256 -30q-166 0 -294.5 60.5t-203.5 181t-80 293.5h-168v152h168v125h-168v151h170q12 171 89.5 290.5t207.5 180t300 60.5q110 0 235 -31l-36 -243q-90 32 -184 32q-140 0 -219 -69.5t-91 -219.5h332v-151h-334v-125h334v-152h-334q6 -159 85 -226.5
t221 -67.5q109 0 190 31z" />
    <glyph glyph-name="minus" unicode="&#x2212;" horiz-adv-x="1138" 
d="M1011 832v-236h-864v236h864z" />
    </font>
</defs>
</svg>
