<svg id="Layer_1" data-name="Layer 1" xmlns="http://www.w3.org/2000/svg" viewBox="0 0 215 215"><defs><style>.cls-1{fill:#759bf0;}.cls-2{fill:#5965d4;}</style></defs><path class="cls-1" d="M107.53,27.78V53.66h-3.29l-3.61-5.4c-11.15-16.6-20-26.12-21.87-23.54-1.55,2,1.33,11.15,7.83,25.22,1.81,3.84,3.67,7.69,4.17,8.55l.89,1.58-.65.59a25.26,25.26,0,0,0-4,5.77l-.59,1.36-7.4.53c-16.51,1.21-27.23,3.13-29.94,5.42-1.08.9-1.11,1.31-.18,2.17,2.73,2.57,15.37,4.8,32.86,5.82l3.61.22,1,2.54a26,26,0,0,0,2.08,4.15l1.08,1.61L86.19,97c-5.34,10.91-9.16,20.22-10.41,25.32-3,12.55,6.06,5.06,21.43-17.63l4.38-6.5v57.6c0,33-.12,57.48-.28,57.3s-2.16-3.19-4.53-6.79-12-18.28-21.52-32.69-21.62-32.81-26.93-40.9c-9.44-14.34-16.87-25.63-20.84-31.63-1.09-1.65-2-3.07-2-3.17a26.76,26.76,0,0,1,1.74-2.6A32.71,32.71,0,0,0,32,85.89c3.41-9.33,5.87-23,7.3-40.9.62-8.09,1.08-18.5,1.08-25v-5.3l1.44-.5c.85-.25,5.34-1.55,10-2.85,22.43-6.2,35.68-8.55,52-9.24l3.68-.15Z"/><path class="cls-1" d="M90.3,41.54a22.25,22.25,0,0,1,3.11,3c2.16,2.42,7.58,9.45,7.58,9.85,0,.15-.19.25-.44.25-.72,0-2.3,2-2.64,3.31-.65,2.33-.21,6,1.31,10.69A13.74,13.74,0,0,1,99.87,71c-.25,0-6.37-12.46-8.35-17C87.26,44.18,86.79,39.38,90.3,41.54Z"/><path class="cls-1" d="M85.15,71.78c0,3.22,3.35,5.61,10.18,7.22,4.23,1.06,3.82,1.12-4,.66-15.66-1-24.94-2.89-24.1-5.12.43-1.17,5.22-2.47,12.24-3.37C85.15,70.48,85.15,70.48,85.15,71.78Z"/><path class="cls-1" d="M105.64,86.13c0,.72-7.39,11.81-11.24,16.86-4.78,6.32-8.35,9.64-9.38,8.61-.47-.46-.35-2.6.27-4.83,1.19-4.06,5.44-14.07,6-14.07a4.29,4.29,0,0,1,1,.47,6,6,0,0,0,2.25.46c2.33,0,4.94-1.52,8.26-4.84A24.73,24.73,0,0,1,105.64,86.13Z"/><path class="cls-2" d="M107.53,27.78V53.66h3.29l3.61-5.4c11.15-16.6,20-26.1,21.87-23.54,1.49,2-1.34,11.15-7.89,25.22-1.8,3.84-3.66,7.69-4.16,8.55l-.9,1.58.65.59a24.91,24.91,0,0,1,4,5.77l.6,1.36,7.39.53c16.52,1.21,27.24,3.13,29.94,5.42,1.09.9,1.12,1.31.19,2.17-2.74,2.57-15.38,4.8-32.86,5.82l-3.61.22-1,2.54a27.74,27.74,0,0,1-2.08,4.15l-1.09,1.61L128.81,97c5.34,10.91,9.16,20.22,10.41,25.32,3,12.55-6.05,5.06-21.43-17.63l-4.38-6.5v57.6c0,33,.13,57.48.28,57.3s2.21-3.19,4.53-6.79,12.06-18.28,21.53-32.69,21.62-32.81,26.92-40.9c9.44-14.34,16.87-25.63,20.84-31.63,1.09-1.65,2-3.07,2-3.17a23.55,23.55,0,0,0-1.74-2.6A32.46,32.46,0,0,1,183,85.89c-3.41-9.33-5.87-23-7.3-40.9-.62-8.1-1.09-18.5-1.09-25V14.68l-1.44-.5c-.84-.25-5.34-1.55-10-2.85-22.44-6.2-35.67-8.55-51.95-9.24l-3.64-.15Z"/><path class="cls-2" d="M124.4,41.54a21.64,21.64,0,0,0-3.1,3c-2.17,2.42-7.58,9.45-7.58,9.85,0,.15.18.25.44.25.68,0,2.29,2,2.63,3.31.66,2.33.23,6-1.3,10.69a13.74,13.74,0,0,0-.65,2.42c.25,0,6.36-12.46,8.36-17C127.45,44.18,127.92,39.38,124.4,41.54Z"/><path class="cls-2" d="M129.56,71.78c0,3.22-3.35,5.61-10.18,7.22-4.23,1.06-3.83,1.12,4,.66,15.65-1,24.94-2.89,24.1-5.12-.44-1.17-5.22-2.47-12.23-3.37C129.56,70.48,129.56,70.48,129.56,71.78Z"/><path class="cls-2" d="M109.06,86.13c0,.72,7.39,11.81,11.25,16.86,4.78,6.32,8.35,9.64,9.38,8.61.47-.46.34-2.6-.28-4.83-1.18-4.06-5.43-14.07-6-14.07a4.36,4.36,0,0,0-1,.47,5.93,5.93,0,0,1-2.2.46c-2.33,0-4.94-1.52-8.27-4.84A22.07,22.07,0,0,0,109.06,86.13Z"/></svg>