<svg id="Layer_1" data-name="Layer 1" xmlns="http://www.w3.org/2000/svg" viewBox="0 0 286.14 158.54"><defs><style>.cls-1{fill:#5965d4;}.cls-2{fill:#fafafa;}</style></defs><path class="cls-1" d="M128.61,158.54H0L64.31,30.37ZM2.43,157H126.18L64.31,33.71Z"/><path class="cls-1" d="M286.14,142H157.53l.55-1.08L221.84,13.8ZM160,140.47H283.71L221.84,17.14Z"/><path class="cls-1" d="M244.57,2.8,37.29,24.72l.89,8.4L245.46,11.2Z"/><circle class="cls-2" cx="141.37" cy="17.96" r="17.21"/><path class="cls-1" d="M141.37,35.92a18,18,0,1,1,18-18A18,18,0,0,1,141.37,35.92Zm0-34.42A16.46,16.46,0,1,0,157.83,18,16.48,16.48,0,0,0,141.37,1.5Z"/></svg>