<svg xmlns="http://www.w3.org/2000/svg" viewBox="0 0 70.63 86.67">
 <defs>
  <style>.cls-1{fill:#759bf0;}.cls-2{fill:#5965d4;fill-rule:evenodd;}</style>
 </defs>
 <path class="cls-1" d="M35.31,77.46A35.32,35.32,0,1,1,70.63,42.14,35.36,35.36,0,0,1,35.31,77.46Zm0-69.28a34,34,0,1,0,34,34A34,34,0,0,0,35.31,8.18Z"/>
 <path class="cls-2" d="M45.21,9.89A9.9,9.9,0,1,1,35.32,0,9.89,9.89,0,0,1,45.21,9.89Z"/>
 <path class="cls-2" d="M45.21,76.78a9.9,9.9,0,1,1-9.89-9.9A9.89,9.89,0,0,1,45.21,76.78Z"/>
</svg>