<svg xmlns="http://www.w3.org/2000/svg" viewBox="0 0 111.27 120">
 <defs>
  <style>.cls-1{fill:#759bf0;}.cls-2{fill:#5965d4;fill-rule:evenodd;}</style>
 </defs>
 <path class="cls-1" d="M55.63,99.92A35.33,35.33,0,1,1,91,64.59,35.36,35.36,0,0,1,55.63,99.92Zm0-69.28a34,34,0,1,0,33.95,34A34,34,0,0,0,55.63,30.64Z"/>
 <path class="cls-1" d="M55.64,120a55.65,55.65,0,1,1,55.63-55.64A55.7,55.7,0,0,1,55.64,120Zm0-109.92A54.28,54.28,0,1,0,109.9,64.36,54.33,54.33,0,0,0,55.64,10.08Z"/>
 <path class="cls-2" d="M65.53,33.91A9.9,9.9,0,1,1,55.64,24,9.89,9.89,0,0,1,65.53,33.91Z"/>
 <path class="cls-2" d="M65,9.39A9.4,9.4,0,1,1,55.64,0,9.4,9.4,0,0,1,65,9.39Z"/>
 <path class="cls-2" d="M106.58,28.18a9.39,9.39,0,1,1-9.39-9.39A9.39,9.39,0,0,1,106.58,28.18Z"/>
 <path class="cls-2" d="M65.53,99.23a9.9,9.9,0,1,1-9.89-9.89A9.89,9.89,0,0,1,65.53,99.23Z"/>
</svg>