<svg id="Layer_1" data-name="Layer 1" xmlns="http://www.w3.org/2000/svg" viewBox="0 0 273.4 225.96"><defs><style>.cls-1{fill:#5965d4;}</style></defs><path class="cls-1" d="M204,62.15H199.9c0-8.68-20.34-29-29-29V29c8.68,0,29-20.34,29-29H204c0,8.68,20.34,29,29,29v4.11C224.35,33.13,204,53.47,204,62.15Z"/><path class="cls-1" d="M255.59,71.94h-4.1c0-5.16-12.65-17.81-17.81-17.81V50c5.16,0,17.81-12.65,17.81-17.81h4.1c0,5.16,12.65,17.81,17.81,17.81v4.1C268.24,54.13,255.59,66.78,255.59,71.94Z"/><path class="cls-1" d="M130.66,94.91l-78,25.65,1.92,5.85,78-25.65Z"/><path class="cls-1" d="M35.1,125l-18,5.91L19,136.79l18-5.91Z"/><path class="cls-1" d="M132.61,162l-100,32.15L34.5,200l100-32.15Z"/><path class="cls-1" d="M21.42,196.89,0,203.77l1.88,5.87,21.42-6.89Z"/><path class="cls-1" d="M142.9,191.25,55.32,220.11,57.25,226l87.57-28.86Z"/><path class="cls-1" d="M95.82,140.55l-57.6,18.73,1.9,5.85,57.6-18.73Z"/><path class="cls-1" d="M26.13,162,5.71,168.65l1.91,5.85L28,167.86Z"/><path class="cls-1" d="M154.25,206.69,149.5,154.2l-45.93-25.85L152,107.62l10.38-51.68,34.7,39.68,52.35-6.09-27,45.26,22,47.91L193,171ZM107,128.54l44,24.74.07.78,4.47,49.47,37.12-34.17.77.17,48.43,11-21-45.86.4-.68,25.46-42.65L196.5,97.2l-.52-.59L163.29,59.22l-9.95,49.47-.72.31Z"/></svg>