<svg xmlns="http://www.w3.org/2000/svg" viewBox="0 0 258.94 228.97">
 <defs>
  <style>.cls-1{fill:#5965d4;}</style>
 </defs>
 <rect class="cls-1" x="55.36" y="108.85" width="1" height="1" transform="translate(-27.21 18.92) rotate(-15.51)"/>
 <rect class="cls-1" x="101.55" y="55.74" width="1" height="1" transform="translate(-11.33 29.37) rotate(-15.52)"/>
 <rect class="cls-1" x="47.9" y="78.25" width="1" height="1" transform="translate(-19.3 15.81) rotate(-15.51)"/>
 <path class="cls-1" d="M246.34,72.24l12.6-3.5L239.86,0,227.25,3.5l1.84,6.61L98.77,46.3l.27,1h0l-.27-1-1,.26.26,1,2.13,7.67L45.55,70.37l-1,.27.27,1,1.69,6.11L9.72,87.93,8.64,84,0,86.43l9.37,33.73,8.64-2.4-1.29-4.64,36.82-10.23,1.7,6.11,1-.27.27,1L97.06,98.43c-.07.72-.11,1.44-.11,2.17a22.78,22.78,0,0,0,7.85,17.23L69,224.46,79,227.85l35.32-105.07.1,0V229h10.63V122.82h0l35.23,104.8,10.07-3.38L134.68,117.91A22.84,22.84,0,0,0,142,95.23L244.79,66.68ZM78.09,226l-7.23-2.43L106,118.84a22.69,22.69,0,0,0,6.86,3.54Zm45.49,1.52H116V123.11a22.11,22.11,0,0,0,3.84.33,22.63,22.63,0,0,0,3.79-.32Zm44.93-4.19-7.23,2.43L126.56,122.42a22.87,22.87,0,0,0,6.87-3.5Zm-27.09-130a22.83,22.83,0,0,0-44,3L56.9,107.5l-1.7-6.11-.26-1-1,.27L16.18,111.19,10.26,89.86,48.05,79.37l-.27-1,1-.26L47.05,72,101.7,56.86l-.27-1,1-.26L100.27,48,229.62,12l14.64,52.72Z"/>
</svg>